999
dxfrw 0.6.3
  0
SECTION
  2
HEADER
  9
$ACADVER
  1
AC1021
  9
$DWGCODEPAGE
  3
ANSI_1252
  9
$INSBASE
 10
0
 20
0
 30
0
  9
$EXTMIN
 10
-1020
 20
-2869.999999999999
 30
0
  9
$EXTMAX
 10
4849.742261192858
 20
1599.999999999993
 30
0
  9
$LIMMIN
 10
0
 20
0
  9
$LIMMAX
 10
420
 20
297
  9
$ORTHOMODE
 70
    0
  9
$REGENMODE
 70
    1
  9
$FILLMODE
 70
    1
  9
$QTEXTMODE
 70
    0
  9
$MIRRTEXT
 70
    0
  9
$LTSCALE
 40
1
  9
$ATTMODE
 70
    0
  9
$TEXTSIZE
 40
2.5
  9
$TRACEWID
 40
15.68
  9
$TEXTSTYLE
  7
STANDARD
  9
$CLAYER
  8
0
  9
$CELTYPE
  6
BYLAYER
  9
$CECOLOR
 62
  256
  9
$CELTSCALE
 40
1
  9
$DISPSILH
 70
    0
  9
$DIMSCALE
 40
1
  9
$DIMASZ
 40
2.5
  9
$DIMEXO
 40
0.625
  9
$DIMDLI
 40
3.75
  9
$DIMRND
 40
0
  9
$DIMDLE
 40
0
  9
$DIMEXE
 40
1.25
  9
$DIMTP
 40
0
  9
$DIMTM
 40
0
  9
$DIMTXT
 40
2.5
  9
$DIMCEN
 40
2.5
  9
$DIMTSZ
 40
0
  9
$DIMTOL
 70
    0
  9
$DIMLIM
 70
    0
  9
$DIMTIH
 70
    0
  9
$DIMTOH
 70
    0
  9
$DIMSE1
 70
    0
  9
$DIMSE2
 70
    0
  9
$DIMTAD
 70
    1
  9
$DIMZIN
 70
    1
  9
$DIMBLK
  1

  9
$DIMASO
 70
    1
  9
$DIMSHO
 70
    1
  9
$DIMPOST
  1

  9
$DIMAPOST
  1

  9
$DIMALT
 70
    0
  9
$DIMALTD
 70
    3
  9
$DIMALTF
 40
0.03937
  9
$DIMLFAC
 40
1
  9
$DIMTOFL
 70
    1
  9
$DIMTVP
 40
0
  9
$DIMTIX
 70
    0
  9
$DIMSOXD
 70
    0
  9
$DIMSAH
 70
    0
  9
$DIMBLK1
  1

  9
$DIMBLK2
  1

  9
$DIMSTYLE
  2
STANDARD
  9
$DIMCLRD
 70
    0
  9
$DIMCLRE
 70
    0
  9
$DIMCLRT
 70
    0
  9
$DIMTFAC
 40
1
  9
$DIMGAP
 40
0.625
  9
$DIMJUST
 70
    0
  9
$DIMSD1
 70
    0
  9
$DIMSD2
 70
    0
  9
$DIMTOLJ
 70
    0
  9
$DIMTZIN
 70
    8
  9
$DIMALTZ
 70
    0
  9
$DIMALTTZ
 70
    0
  9
$DIMUPT
 70
    0
  9
$DIMDEC
 70
    4
  9
$DIMTDEC
 70
    2
  9
$DIMALTU
 70
    2
  9
$DIMALTTD
 70
    3
  9
$DIMTXSTY
  7
standard
  9
$DIMAUNIT
 70
    0
  9
$DIMADEC
 70
    2
  9
$DIMALTRND
 40
0
  9
$DIMAZIN
 70
    0
  9
$DIMDSEP
 70
    0
  9
$DIMATFIT
 70
    3
  9
$DIMFRAC
 70
    0
  9
$DIMLDRBLK
  1
STANDARD
  9
$DIMLUNIT
 70
    2
  9
$DIMLWD
 70
    0
  9
$DIMLWE
 70
    0
  9
$DIMTMOVE
 70
    0
  9
$DIMFXL
 40
1
  9
$DIMFXLON
 70
    0
  9
$DIMJOGANG
 40
0.7854
  9
$DIMTFILL
 70
    0
  9
$DIMTFILLCLR
 70
    0
  9
$DIMARCSYM
 70
    0
  9
$DIMLTYPE
  6

  9
$DIMLTEX1
  6

  9
$DIMLTEX2
  6

  9
$LUNITS
 70
    2
  9
$LUPREC
 70
    4
  9
$SKETCHINC
 40
1
  9
$FILLETRAD
 40
0
  9
$AUNITS
 70
    0
  9
$AUPREC
 70
    2
  9
$MENU
  1
.
  9
$ELEVATION
 40
0
  9
$PELEVATION
 40
0
  9
$THICKNESS
 40
0
  9
$LIMCHECK
 70
    0
  9
$CHAMFERA
 40
0
  9
$CHAMFERB
 40
0
  9
$CHAMFERC
 40
0
  9
$CHAMFERD
 40
0
  9
$SKPOLY
 70
    0
  9
$USRTIMER
 70
    1
  9
$ANGBASE
 50
0
  9
$ANGDIR
 70
    0
  9
$PDMODE
 70
   96
  9
$PDSIZE
 40
-2
  9
$PLINEWID
 40
0
  9
$SPLFRAME
 70
    0
  9
$SPLINETYPE
 70
    2
  9
$SPLINESEGS
 70
    8
  9
$HANDSEED
  5
20000
  9
$SURFTAB1
 70
    6
  9
$SURFTAB2
 70
    6
  9
$SURFTYPE
 70
    6
  9
$SURFU
 70
    6
  9
$SURFV
 70
    6
  9
$UCSBASE
  2

  9
$UCSNAME
  2

  9
$UCSORG
 10
0
 20
0
 30
0
  9
$UCSXDIR
 10
1
 20
0
 30
0
  9
$UCSYDIR
 10
0
 20
1
 30
0
  9
$UCSORTHOREF
  2

  9
$UCSORTHOVIEW
 70
    0
  9
$UCSORGTOP
 10
0
 20
0
 30
0
  9
$UCSORGBOTTOM
 10
0
 20
0
 30
0
  9
$UCSORGLEFT
 10
0
 20
0
 30
0
  9
$UCSORGRIGHT
 10
0
 20
0
 30
0
  9
$UCSORGFRONT
 10
0
 20
0
 30
0
  9
$UCSORGBACK
 10
0
 20
0
 30
0
  9
$PUCSBASE
  2

  9
$PUCSNAME
  2

  9
$PUCSORG
 10
0
 20
0
 30
0
  9
$PUCSXDIR
 10
1
 20
0
 30
0
  9
$PUCSYDIR
 10
0
 20
1
 30
0
  9
$PUCSORTHOREF
  2

  9
$PUCSORTHOVIEW
 70
    0
  9
$PUCSORGTOP
 10
0
 20
0
 30
0
  9
$PUCSORGBOTTOM
 10
0
 20
0
 30
0
  9
$PUCSORGLEFT
 10
0
 20
0
 30
0
  9
$PUCSORGRIGHT
 10
0
 20
0
 30
0
  9
$PUCSORGFRONT
 10
0
 20
0
 30
0
  9
$PUCSORGBACK
 10
0
 20
0
 30
0
  9
$USERI1
 70
    0
  9
$USERI2
 70
    0
  9
$USERI3
 70
    0
  9
$USERI4
 70
    0
  9
$USERI5
 70
    0
  9
$USERR1
 40
0
  9
$USERR2
 40
0
  9
$USERR3
 40
0
  9
$USERR4
 40
0
  9
$USERR5
 40
0
  9
$WORLDVIEW
 70
    1
  9
$SHADEDGE
 70
    3
  9
$SHADEDIF
 70
   70
  9
$TILEMODE
 70
    1
  9
$MAXACTVP
 70
   64
  9
$PINSBASE
 10
71.90515477614284
 20
130.4000000000001
 30
0
  9
$PLIMCHECK
 70
    0
  9
$PEXTMIN
 10
0
 20
0
 30
0
  9
$PEXTMAX
 10
0
 20
0
 30
0
  9
$GRIDMODE
 70
    1
  9
$SNAPSTYLE
 70
    1
  9
$GRIDUNIT
 10
0
 20
0
  9
$PLIMMIN
 10
0
 20
0
  9
$PLIMMAX
 10
297
 20
210
  9
$UNITMODE
 70
    0
  9
$VISRETAIN
 70
    1
  9
$PLINEGEN
 70
    0
  9
$PSLTSCALE
 70
    1
  9
$TREEDEPTH
 70
 3020
  9
$CMLSTYLE
  2
Standard
  9
$CMLJUST
 70
    0
  9
$CMLSCALE
 40
20
  9
$PROXYGRAPHICS
 70
    1
  9
$MEASUREMENT
 70
    1
  9
$CELWEIGHT
370
   -1
  9
$ENDCAPS
280
    0
  9
$JOINSTYLE
280
    0
  9
$LWDISPLAY
290
    0
  9
$INSUNITS
 70
    4
  9
$HYPERLINKBASE
  1

  9
$STYLESHEET
  1

  9
$XEDIT
290
    1
  9
$CEPSNTYPE
380
    0
  9
$PSTYLEMODE
290
    1
  9
$EXTNAMES
290
    1
  9
$PSVPSCALE
 40
0.04
  9
$OLESTARTUP
290
    0
  9
$SORTENTS
280
  127
  9
$INDEXCTL
280
    0
  9
$HIDETEXT
280
    1
  9
$XCLIPFRAME
290
    0
  9
$HALOGAP
280
    0
  9
$OBSCOLOR
 70
  257
  9
$OBSLTYPE
280
    0
  9
$INTERSECTIONDISPLAY
280
    0
  9
$INTERSECTIONCOLOR
 70
  257
  9
$DIMASSOC
280
    1
  9
$PROJECTNAME
  1

  9
$CAMERADISPLAY
290
    0
  9
$LENSLENGTH
 40
50
  9
$CAMERAHEIGHT
 40
0
  9
$STEPSPERSEC
 40
2
  9
$STEPSIZE
 40
50
  9
$3DDWFPREC
 40
2
  9
$PSOLWIDTH
 40
5
  9
$PSOLHEIGHT
 40
80
  9
$LOFTANG1
 40
1.570796326794897
  9
$LOFTANG2
 40
1.570796326794897
  9
$LOFTMAG1
 40
0
  9
$LOFTMAG2
 40
0
  9
$LOFTPARAM
 70
    7
  9
$LOFTNORMALS
280
    1
  9
$LATITUDE
 40
1
  9
$LONGITUDE
 40
1
  9
$NORTHDIRECTION
 40
0
  9
$TIMEZONE
 70
-8000
  9
$LIGHTGLYPHDISPLAY
280
    1
  9
$TILEMODELIGHTSYNCH
280
    1
  9
$SOLIDHIST
280
    1
  9
$SHOWHIST
280
    1
  9
$DWFFRAME
280
    2
  9
$DGNFRAME
280
    0
  9
$REALWORLDSCALE
290
    1
  9
$INTERFERECOLOR
 62
    1
  9
$CSHADOW
280
    0
  9
$SHADOWPLANELOCATION
 40
0
  0
ENDSEC
  0
SECTION
  2
CLASSES
  0
ENDSEC
  0
SECTION
  2
TABLES
  0
TABLE
  2
VPORT
  5
8
330
0
100
AcDbSymbolTable
 70
    1
  0
VPORT
  5
31
330
2
100
AcDbSymbolTableRecord
100
AcDbViewportTableRecord
  2
*ACTIVE
 70
    0
 10
0
 20
0
 11
1
 21
1
 12
4049.477351916369
 22
841.0452961672459
 13
0
 23
0
 14
10
 24
10
 15
10
 25
10
 16
0
 26
0
 36
1
 17
0
 27
0
 37
0
 40
4625.749128919852
 41
2.673400673400673
 42
50
 43
0
 44
0
 50
0
 51
0
 71
    0
 72
  100
 73
    1
 74
    3
 75
    0
 76
    1
 77
    1
 78
    0
281
    0
 65
    1
110
0
120
0
130
0
111
1
121
0
131
0
112
0
122
1
132
0
 79
    0
146
0
348
10020
 60
    7
 61
    5
292
1
282
    1
141
0
142
0
 63
  250
421
3358443
  0
ENDTAB
  0
TABLE
  2
LTYPE
  5
5
330
0
100
AcDbSymbolTable
 70
    4
  0
LTYPE
  5
14
330
5
100
AcDbSymbolTableRecord
100
AcDbLinetypeTableRecord
  2
ByBlock
 70
    0
  3

 72
   65
 73
    0
 40
0
  0
LTYPE
  5
15
330
5
100
AcDbSymbolTableRecord
100
AcDbLinetypeTableRecord
  2
ByLayer
 70
    0
  3

 72
   65
 73
    0
 40
0
  0
LTYPE
  5
16
330
5
100
AcDbSymbolTableRecord
100
AcDbLinetypeTableRecord
  2
Continuous
 70
    0
  3
Solid line
 72
   65
 73
    0
 40
0
  0
LTYPE
  5
32
330
5
100
AcDbSymbolTableRecord
100
AcDbLinetypeTableRecord
  2
DOT
 70
    0
  3
Dot . . . . . . . . . . . . . . . . . . . . . .
 72
   65
 73
    2
 40
6.35
 49
0
 74
    0
 49
-6.35
 74
    0
  0
LTYPE
  5
33
330
5
100
AcDbSymbolTableRecord
100
AcDbLinetypeTableRecord
  2
DOTTINY
 70
    0
  3
Dot (.15x) .....................................
 72
   65
 73
    2
 40
0.9525
 49
0
 74
    0
 49
-0.9525
 74
    0
  0
LTYPE
  5
34
330
5
100
AcDbSymbolTableRecord
100
AcDbLinetypeTableRecord
  2
DOT2
 70
    0
  3
Dot (.5x) .....................................
 72
   65
 73
    2
 40
3.175
 49
0
 74
    0
 49
-3.175
 74
    0
  0
LTYPE
  5
35
330
5
100
AcDbSymbolTableRecord
100
AcDbLinetypeTableRecord
  2
DOTX2
 70
    0
  3
Dot (2x) .  .  .  .  .  .  .  .  .  .  .  .  .
 72
   65
 73
    2
 40
12.7
 49
0
 74
    0
 49
-12.7
 74
    0
  0
LTYPE
  5
36
330
5
100
AcDbSymbolTableRecord
100
AcDbLinetypeTableRecord
  2
DASHED
 70
    0
  3
Dashed _ _ _ _ _ _ _ _ _ _ _ _ _ _ _ _ _
 72
   65
 73
    2
 40
19.05
 49
12.7
 74
    0
 49
-6.35
 74
    0
  0
LTYPE
  5
37
330
5
100
AcDbSymbolTableRecord
100
AcDbLinetypeTableRecord
  2
DASHEDTINY
 70
    0
  3
Dashed (.15x) _ _ _ _ _ _ _ _ _ _ _ _ _ _ _ _ _
 72
   65
 73
    2
 40
2.8575
 49
1.905
 74
    0
 49
-0.9525
 74
    0
  0
LTYPE
  5
38
330
5
100
AcDbSymbolTableRecord
100
AcDbLinetypeTableRecord
  2
DASHED2
 70
    0
  3
Dashed (.5x) _ _ _ _ _ _ _ _ _ _ _ _ _ _ _ _ _
 72
   65
 73
    2
 40
9.524999999999999
 49
6.35
 74
    0
 49
-3.175
 74
    0
  0
LTYPE
  5
39
330
5
100
AcDbSymbolTableRecord
100
AcDbLinetypeTableRecord
  2
DASHEDX2
 70
    0
  3
Dashed (2x) ____  ____  ____  ____  ____  ___
 72
   65
 73
    2
 40
38.09999999999999
 49
25.4
 74
    0
 49
-12.7
 74
    0
  0
LTYPE
  5
3A
330
5
100
AcDbSymbolTableRecord
100
AcDbLinetypeTableRecord
  2
DASHDOT
 70
    0
  3
Dash dot __ . __ . __ . __ . __ . __ . __ . __
 72
   65
 73
    4
 40
25.4
 49
12.7
 74
    0
 49
-6.35
 74
    0
 49
0
 74
    0
 49
-6.35
 74
    0
  0
LTYPE
  5
3B
330
5
100
AcDbSymbolTableRecord
100
AcDbLinetypeTableRecord
  2
DASHDOTTINY
 70
    0
  3
Dash dot (.15x) _._._._._._._._._._._._._._._.
 72
   65
 73
    4
 40
3.81
 49
1.905
 74
    0
 49
-0.9525
 74
    0
 49
0
 74
    0
 49
-0.9525
 74
    0
  0
LTYPE
  5
3C
330
5
100
AcDbSymbolTableRecord
100
AcDbLinetypeTableRecord
  2
DASHDOT2
 70
    0
  3
Dash dot (.5x) _._._._._._._._._._._._._._._.
 72
   65
 73
    4
 40
12.7
 49
6.35
 74
    0
 49
-3.175
 74
    0
 49
0
 74
    0
 49
-3.175
 74
    0
  0
LTYPE
  5
3D
330
5
100
AcDbSymbolTableRecord
100
AcDbLinetypeTableRecord
  2
DASHDOTX2
 70
    0
  3
Dash dot (2x) ____  .  ____  .  ____  .  ___
 72
   65
 73
    4
 40
50.8
 49
25.4
 74
    0
 49
-12.7
 74
    0
 49
0
 74
    0
 49
-12.7
 74
    0
  0
LTYPE
  5
3E
330
5
100
AcDbSymbolTableRecord
100
AcDbLinetypeTableRecord
  2
DIVIDE
 70
    0
  3
Divide ____ . . ____ . . ____ . . ____ . . ____
 72
   65
 73
    6
 40
31.75
 49
12.7
 74
    0
 49
-6.35
 74
    0
 49
0
 74
    0
 49
-6.35
 74
    0
 49
0
 74
    0
 49
-6.35
 74
    0
  0
LTYPE
  5
3F
330
5
100
AcDbSymbolTableRecord
100
AcDbLinetypeTableRecord
  2
DIVIDETINY
 70
    0
  3
Divide (.15x) __..__..__..__..__..__..__..__.._
 72
   65
 73
    6
 40
4.7625
 49
1.905
 74
    0
 49
-0.9525
 74
    0
 49
0
 74
    0
 49
-0.9525
 74
    0
 49
0
 74
    0
 49
-0.9525
 74
    0
  0
LTYPE
  5
40
330
5
100
AcDbSymbolTableRecord
100
AcDbLinetypeTableRecord
  2
DIVIDE2
 70
    0
  3
Divide (.5x) __..__..__..__..__..__..__..__.._
 72
   65
 73
    6
 40
15.875
 49
6.35
 74
    0
 49
-3.175
 74
    0
 49
0
 74
    0
 49
-3.175
 74
    0
 49
0
 74
    0
 49
-3.175
 74
    0
  0
LTYPE
  5
41
330
5
100
AcDbSymbolTableRecord
100
AcDbLinetypeTableRecord
  2
DIVIDEX2
 70
    0
  3
Divide (2x) ________  .  .  ________  .  .  _
 72
   65
 73
    6
 40
63.5
 49
25.4
 74
    0
 49
-12.7
 74
    0
 49
0
 74
    0
 49
-12.7
 74
    0
 49
0
 74
    0
 49
-12.7
 74
    0
  0
LTYPE
  5
42
330
5
100
AcDbSymbolTableRecord
100
AcDbLinetypeTableRecord
  2
BORDER
 70
    0
  3
Border __ __ . __ __ . __ __ . __ __ . __ __ .
 72
   65
 73
    6
 40
44.45
 49
12.7
 74
    0
 49
-6.35
 74
    0
 49
12.7
 74
    0
 49
-6.35
 74
    0
 49
0
 74
    0
 49
-6.35
 74
    0
  0
LTYPE
  5
43
330
5
100
AcDbSymbolTableRecord
100
AcDbLinetypeTableRecord
  2
BORDERTINY
 70
    0
  3
Border (.15x) __.__.__.__.__.__.__.__.__.__.__.
 72
   65
 73
    6
 40
6.6675
 49
1.905
 74
    0
 49
-0.9525
 74
    0
 49
1.905
 74
    0
 49
-0.9525
 74
    0
 49
0
 74
    0
 49
-0.9525
 74
    0
  0
LTYPE
  5
44
330
5
100
AcDbSymbolTableRecord
100
AcDbLinetypeTableRecord
  2
BORDER2
 70
    0
  3
Border (.5x) __.__.__.__.__.__.__.__.__.__.__.
 72
   65
 73
    6
 40
22.225
 49
6.35
 74
    0
 49
-3.175
 74
    0
 49
6.35
 74
    0
 49
-3.175
 74
    0
 49
0
 74
    0
 49
-3.175
 74
    0
  0
LTYPE
  5
45
330
5
100
AcDbSymbolTableRecord
100
AcDbLinetypeTableRecord
  2
BORDERX2
 70
    0
  3
Border (2x) ____  ____  .  ____  ____  .  ___
 72
   65
 73
    6
 40
88.89999999999999
 49
25.4
 74
    0
 49
-12.7
 74
    0
 49
25.4
 74
    0
 49
-12.7
 74
    0
 49
0
 74
    0
 49
-12.7
 74
    0
  0
LTYPE
  5
46
330
5
100
AcDbSymbolTableRecord
100
AcDbLinetypeTableRecord
  2
CENTER
 70
    0
  3
Center ____ _ ____ _ ____ _ ____ _ ____ _ ____
 72
   65
 73
    4
 40
50.8
 49
31.75
 74
    0
 49
-6.35
 74
    0
 49
6.35
 74
    0
 49
-6.35
 74
    0
  0
LTYPE
  5
47
330
5
100
AcDbSymbolTableRecord
100
AcDbLinetypeTableRecord
  2
CENTERTINY
 70
    0
  3
Center (.15x) ___ _ ___ _ ___ _ ___ _ ___ _ ___
 72
   65
 73
    4
 40
7.619999999999999
 49
4.7625
 74
    0
 49
-0.9525
 74
    0
 49
0.9525
 74
    0
 49
-0.9525
 74
    0
  0
LTYPE
  5
48
330
5
100
AcDbSymbolTableRecord
100
AcDbLinetypeTableRecord
  2
CENTER2
 70
    0
  3
Center (.5x) ___ _ ___ _ ___ _ ___ _ ___ _ ___
 72
   65
 73
    4
 40
28.575
 49
19.05
 74
    0
 49
-3.175
 74
    0
 49
3.175
 74
    0
 49
-3.175
 74
    0
  0
LTYPE
  5
49
330
5
100
AcDbSymbolTableRecord
100
AcDbLinetypeTableRecord
  2
CENTERX2
 70
    0
  3
Center (2x) ________  __  ________  __  _____
 72
   65
 73
    4
 40
101.6
 49
63.5
 74
    0
 49
-12.7
 74
    0
 49
12.7
 74
    0
 49
-12.7
 74
    0
  0
ENDTAB
  0
TABLE
  2
LAYER
  5
2
330
0
100
AcDbSymbolTable
 70
    1
  0
LAYER
  5
10
330
2
100
AcDbSymbolTableRecord
100
AcDbLayerTableRecord
  2
0
 70
    0
 62
    7
  6
CONTINUOUS
370
    0
390
F
  0
LAYER
  5
4A
330
2
100
AcDbSymbolTableRecord
100
AcDbLayerTableRecord
  2
Blade
 70
    0
 62
    8
420
8355711
  6
CONTINUOUS
370
    0
390
F
  0
LAYER
  5
4B
330
2
100
AcDbSymbolTableRecord
100
AcDbLayerTableRecord
  2
Handle_Outline
 70
    0
 62
   32
420
12607232
  6
CONTINUOUS
370
    0
390
F
  0
LAYER
  5
4C
330
2
100
AcDbSymbolTableRecord
100
AcDbLayerTableRecord
  2
Handle_hatch
 70
    0
 62
   36
  6
CONTINUOUS
370
    0
390
F
  0
LAYER
  5
4D
330
2
100
AcDbSymbolTableRecord
100
AcDbLayerTableRecord
  2
Text
 70
    0
 62
    7
  6
CONTINUOUS
370
    0
390
F
  0
LAYER
  5
4E
330
2
100
AcDbSymbolTableRecord
100
AcDbLayerTableRecord
  2
unsharpened
 70
    0
 62
  171
  6
CONTINUOUS
370
    0
390
F
  0
ENDTAB
  0
TABLE
  2
STYLE
  5
3
330
0
100
AcDbSymbolTable
 70
    3
  0
STYLE
  5
4F
330
2
100
AcDbSymbolTableRecord
100
AcDbTextStyleTableRecord
  2
standard
 70
    0
 40
0
 41
1
 50
0
 71
    0
 42
1
  3
standard
  4

  0
ENDTAB
  0
TABLE
  2
VIEW
  5
6
330
0
100
AcDbSymbolTable
 70
    0
  0
ENDTAB
  0
TABLE
  2
UCS
  5
7
330
0
100
AcDbSymbolTable
 70
    0
  0
ENDTAB
  0
TABLE
  2
APPID
  5
9
330
0
100
AcDbSymbolTable
 70
    1
  0
APPID
  5
12
330
9
100
AcDbSymbolTableRecord
100
AcDbRegAppTableRecord
  2
ACAD
 70
    0
  0
APPID
  5
50
330
9
100
AcDbSymbolTableRecord
100
AcDbRegAppTableRecord
  2
LibreCad
 70
    0
  0
ENDTAB
  0
TABLE
  2
DIMSTYLE
  5
A
330
0
100
AcDbSymbolTable
 70
    1
100
AcDbDimStyleTable
 71
    1
  0
DIMSTYLE
105
51
330
A
100
AcDbSymbolTableRecord
100
AcDbDimStyleTableRecord
  2
Standard
 70
    0
 40
1
 41
2.5
 42
0.625
 43
0.38
 44
1.25
 45
0
 46
0
 47
0
 48
0
 49
1
140
2.5
141
0.09
142
0
143
25.4
144
1
145
0
146
1
147
0.625
148
0
 71
    0
 72
    0
 73
    0
 74
    1
 75
    0
 76
    0
 77
    0
 78
    1
 79
    0
170
    0
171
    2
172
    0
173
    0
174
    0
175
    0
176
    0
177
    0
178
    0
179
    2
271
    4
272
    4
273
    2
274
    2
275
    0
276
    0
277
    2
278
    0
279
    0
280
    0
281
    0
282
    0
283
    1
284
    0
285
    0
286
    0
288
    0
289
    3
340
4F
  0
ENDTAB
  0
TABLE
  2
BLOCK_RECORD
  5
1
330
0
100
AcDbSymbolTable
 70
    2
  0
BLOCK_RECORD
  5
1F
330
1
100
AcDbSymbolTableRecord
100
AcDbBlockTableRecord
  2
*Model_Space
 70
    0
280
    1
281
    0
  0
BLOCK_RECORD
  5
1E
330
1
100
AcDbSymbolTableRecord
100
AcDbBlockTableRecord
  2
*Paper_Space
 70
    0
280
    1
281
    0
  0
ENDTAB
  0
ENDSEC
  0
SECTION
  2
BLOCKS
  0
BLOCK
  5
20
330
1F
100
AcDbEntity
  8
0
100
AcDbBlockBegin
  2
*Model_Space
 70
    0
 10
0
 20
0
 30
0
  3
*Model_Space
  1

  0
ENDBLK
  5
21
330
1F
100
AcDbEntity
  8
0
100
AcDbBlockEnd
  0
BLOCK
  5
1C
330
1B
100
AcDbEntity
  8
0
100
AcDbBlockBegin
  2
*Paper_Space
 70
    0
 10
0
 20
0
 30
0
  3
*Paper_Space
  1

  0
ENDBLK
  5
1D
330
1F
100
AcDbEntity
  8
0
100
AcDbBlockEnd
  0
ENDSEC
  0
SECTION
  2
ENTITIES
  0
HATCH
  5
52
100
AcDbEntity
  8
Blade
  6
ByLayer
 62
  256
370
   -1
100
AcDbHatch
 10
0
 20
0
 30
0
210
0
220
0
230
1
  2
SOLID
 70
    1
 71
    0
 91
    1
 92
    0
 93
   16
 72
    2
 10
3464.101615137755
 20
0
 40
760
 50
0
 51
360
 73
    1
 72
    1
 10
3464.101615137759
 20
1599.999999999993
 11
2078.460969082647
 21
-800.0000000000001
 72
    1
 10
2078.460969082647
 20
-800.0000000000001
 11
4849.742261192858
 21
-800.0000000000001
 72
    1
 10
4849.742261192858
 20
-800.0000000000001
 11
3464.101615137759
 21
1599.999999999993
 72
    2
 10
3419.101615137755
 20
815
 40
15
 50
89.99999999999997
 51
270
 73
    1
 72
    1
 10
3419.101615137755
 20
800
 11
3509.101615137755
 21
800
 72
    2
 10
3509.101615137755
 20
815
 40
15
 50
270
 51
89.99999999999997
 73
    1
 72
    1
 10
3509.101615137755
 20
830
 11
3419.101615137755
 21
830
 72
    2
 10
2780.790911053438
 20
-446.4711431702996
 40
15
 50
210
 51
29.99999999999996
 73
    1
 72
    1
 10
2793.781292110205
 20
-438.9711431702996
 11
2748.781292110205
 21
-361.0288568297001
 72
    2
 10
2735.790911053438
 20
-368.5288568297001
 40
15
 50
29.99999999999996
 51
210
 73
    1
 72
    1
 10
2722.800529996671
 20
-376.0288568297001
 11
2767.800529996671
 21
-453.9711431702996
 72
    2
 10
4192.412319222072
 20
-368.5288568297006
 40
15
 50
329.9999999999999
 51
150
 73
    1
 72
    1
 10
4179.421938165306
 20
-361.0288568297006
 11
4134.421938165306
 21
-438.9711431703001
 72
    2
 10
4147.412319222072
 20
-446.4711431703001
 40
15
 50
150
 51
329.9999999999999
 73
    1
 72
    1
 10
4160.402700278839
 20
-453.9711431703001
 11
4205.402700278839
 21
-376.0288568297006
 97
    0
 75
    0
 76
    1
 98
    0
  0
HATCH
  5
53
100
AcDbEntity
  8
Blade
  6
ByLayer
 62
  256
370
   -1
100
AcDbHatch
 10
0
 20
0
 30
0
210
0
220
0
230
1
  2
SOLID
 70
    1
 71
    0
 91
    1
 92
    0
 93
   26
 72
    2
 10
1732.050807568877
 20
-1999.999999999999
 40
0
 50
0
 51
360
 73
    1
 72
    2
 10
1732.050807568877
 20
-2000
 40
760
 50
0
 51
360
 73
    1
 72
    2
 10
1687.050807568877
 20
-1185
 40
15
 50
89.99999999999997
 51
270
 73
    1
 72
    1
 10
1687.050807568877
 20
-1200
 11
1777.050807568877
 21
-1200
 72
    2
 10
1777.050807568877
 20
-1185
 40
15
 50
270
 51
89.99999999999997
 73
    1
 72
    1
 10
1777.050807568877
 20
-1170
 11
1687.050807568877
 21
-1170
 72
    2
 10
1777.050807568877
 20
-2815
 40
15
 50
270.0000000000002
 51
90.00000000000006
 73
    1
 72
    1
 10
1777.050807568877
 20
-2800
 11
1687.050807568877
 21
-2800
 72
    2
 10
1687.050807568877
 20
-2815
 40
15
 50
90.00000000000028
 51
269.9999999999999
 73
    1
 72
    1
 10
1687.050807568877
 20
-2830
 11
1777.050807568877
 21
-2830
 72
    2
 10
917.0508075688767
 20
-2045
 40
15
 50
180
 51
0
 73
    1
 72
    1
 10
932.0508075688767
 20
-2045
 11
932.0508075688767
 21
-1955
 72
    2
 10
917.0508075688767
 20
-1955
 40
15
 50
0
 51
180
 73
    1
 72
    1
 10
902.0508075688767
 20
-1955
 11
902.0508075688767
 21
-2045
 72
    2
 10
2547.050807568877
 20
-1955
 40
15
 50
2.035554996136651e-13
 51
180.0000000000001
 73
    1
 72
    1
 10
2532.050807568877
 20
-1955
 11
2532.050807568877
 21
-2045
 72
    2
 10
2547.050807568877
 20
-2045
 40
15
 50
180.0000000000003
 51
359.9999999999999
 73
    1
 72
    1
 10
2562.050807568877
 20
-2045
 11
2562.050807568877
 21
-1955
 72
    2
 10
1732.050807568878
 20
-2238.994949366214
 40
631.0050506337852
 50
224.9999999999999
 51
314.9999999999999
 73
    1
 72
    1
 10
2178.238757834988
 20
-2685.182899632325
 11
2417.233707201125
 21
-2446.187950266344
 72
    2
 10
1971.045756934906
 20
-2000.00000000008
 40
631.0050506339708
 50
314.999999999997
 51
45.00000000000275
 73
    1
 72
    1
 10
2417.233707201126
 20
-1553.812049733817
 11
2178.238757834984
 21
-1314.817100367674
 72
    2
 10
1732.050807568877
 20
-1761.005050633781
 40
631.0050506337807
 50
44.99999999999992
 51
134.9999999999999
 73
    1
 72
    1
 10
1285.862857302771
 20
-1314.817100367673
 11
1046.867907936607
 21
-1553.812049733868
 72
    2
 10
1493.055858202769
 20
-2000.000000000077
 40
631.0050506338918
 50
134.999999999997
 51
225.0000000000028
 73
    1
 72
    1
 10
1046.867907936606
 20
-2446.187950266285
 11
1285.862857302767
 21
-2685.182899632323
 97
    0
 75
    0
 76
    1
 98
    0
  0
HATCH
  5
54
100
AcDbEntity
  8
Blade
  6
ByLayer
 62
  256
370
   -1
100
AcDbHatch
 10
0
 20
0
 30
0
210
0
220
0
230
1
  2
SOLID
 70
    1
 71
    0
 91
    1
 92
    0
 93
   31
 72
    2
 10
0
 20
5.968558980384842e-13
 40
0
 50
0
 51
360
 73
    1
 72
    2
 10
0
 20
0
 40
760
 50
0
 51
360
 73
    1
 72
    2
 10
-44.99999999999995
 20
815
 40
15
 50
89.99999999999997
 51
270
 73
    1
 72
    1
 10
-44.99999999999995
 20
800
 11
45.00000000000005
 21
800
 72
    2
 10
45.00000000000005
 20
815
 40
15
 50
270
 51
89.99999999999997
 73
    1
 72
    1
 10
45.00000000000005
 20
830
 11
-44.99999999999995
 21
830
 72
    2
 10
44.99999999999984
 20
-815
 40
15
 50
270.0000000000002
 51
90.00000000000006
 73
    1
 72
    1
 10
44.99999999999984
 20
-800
 11
-45.00000000000016
 21
-800
 72
    2
 10
-45.00000000000016
 20
-815
 40
15
 50
90.00000000000028
 51
269.9999999999999
 73
    1
 72
    1
 10
-45.00000000000016
 20
-830
 11
44.99999999999984
 21
-830
 72
    2
 10
-815
 20
-44.9999999999999
 40
15
 50
180
 51
0
 73
    1
 72
    1
 10
-800
 20
-44.9999999999999
 11
-800
 21
45.0000000000001
 72
    2
 10
-815
 20
45.0000000000001
 40
15
 50
0
 51
180
 73
    1
 72
    1
 10
-830
 20
45.0000000000001
 11
-830
 21
-44.9999999999999
 72
    2
 10
815
 20
44.99999999999979
 40
15
 50
2.035554996136651e-13
 51
180.0000000000001
 73
    1
 72
    1
 10
800
 20
44.99999999999979
 11
800
 21
-45.00000000000021
 72
    2
 10
815
 20
-45.00000000000021
 40
15
 50
180.0000000000003
 51
359.9999999999999
 73
    1
 72
    1
 10
830
 20
-45.00000000000021
 11
830
 21
44.99999999999979
 72
    2
 10
-1020
 20
-250.2500000000002
 40
250.2500000000003
 50
13.78484514786834
 51
89.99999999999997
 73
    1
 72
    2
 10
-1020
 20
250.2499999999997
 40
250.2499999999998
 50
270
 51
346.2151531216176
 73
    1
 72
    2
 10
0
 20
0
 40
800
 50
193.784846046831
 51
256.2151534748185
 73
    0
 72
    2
 10
-250.25
 20
1020
 40
250.25
 50
283.7848453491903
 51
0
 73
    1
 72
    2
 10
250.2499999999999
 20
1020
 40
250.2499999999999
 50
179.9999999999999
 51
256.2151524882055
 73
    1
 72
    2
 10
0
 20
0
 40
800
 50
283.7848458486918
 51
346.2151537550297
 73
    0
 72
    2
 10
1020
 20
250.2500000000006
 40
250.25
 50
193.7848462449703
 51
270
 73
    1
 72
    2
 10
1020
 20
-250.2499999999992
 40
250.2499999999998
 50
90
 51
166.2151531216176
 73
    1
 72
    2
 10
0
 20
0
 40
800
 50
13.78484604683098
 51
76.21515335875129
 73
    0
 72
    2
 10
250.2499999999997
 20
-1020
 40
250.2500000000001
 50
103.7848449781461
 51
180
 73
    1
 72
    2
 10
-250.2499999999997
 20
-1020
 40
250.2499999999998
 50
0
 51
76.21515375502972
 73
    1
 72
    2
 10
0
 20
0
 40
800
 50
103.7848462449703
 51
166.2151534118425
 73
    0
 72
    2
 10
0
 20
0
 40
1
 50
0
 51
0
 73
    1
 97
    0
 75
    0
 76
    1
 98
    0
  0
HATCH
  5
55
100
AcDbEntity
  8
Handle_hatch
  6
ByLayer
 62
  256
370
   -1
100
AcDbHatch
 10
0
 20
0
 30
0
210
0
220
0
230
1
  2
SOLID
 70
    1
 71
    0
 91
    1
 92
    0
 93
    4
 72
    1
 10
1687.050807568877
 20
-1200
 11
1777.050807568877
 21
-1200
 72
    1
 10
1777.050807568877
 20
-1200
 11
1777.050797187013
 21
-1241.333405945426
 72
    2
 10
1732.050807568877
 20
-2000
 40
760
 50
86.60550209514096
 51
93.39449947297072
 73
    1
 72
    1
 10
1687.050797187013
 20
-1241.333407177018
 11
1687.050797187013
 21
-1200
 97
    0
 75
    0
 76
    1
 98
    0
  0
HATCH
  5
56
100
AcDbEntity
  8
Handle_hatch
  6
ByLayer
 62
  256
370
   -1
100
AcDbHatch
 10
0
 20
0
 30
0
210
0
220
0
230
1
  2
SOLID
 70
    1
 71
    0
 91
    1
 92
    0
 93
    4
 72
    1
 10
932.0508075688767
 20
-2045
 11
932.0508075688767
 21
-1955
 72
    1
 10
932.0508075688767
 20
-1955
 11
973.3842135143028
 21
-1955.000010381864
 72
    2
 10
1732.050807568877
 20
-2000
 40
760
 50
176.605502095141
 51
183.3944994729707
 73
    1
 72
    1
 10
973.3842147458947
 20
-2045.000010381864
 11
932.0508075688767
 21
-2045.000010381864
 97
    0
 75
    0
 76
    1
 98
    0
  0
HATCH
  5
57
100
AcDbEntity
  8
Handle_hatch
  6
ByLayer
 62
  256
370
   -1
100
AcDbHatch
 10
0
 20
0
 30
0
210
0
220
0
230
1
  2
SOLID
 70
    1
 71
    0
 91
    1
 92
    0
 93
    4
 72
    1
 10
1777.050807568877
 20
-2800
 11
1687.050807568877
 21
-2800
 72
    1
 10
1687.050807568877
 20
-2800
 11
1687.05081795074
 21
-2758.666594054574
 72
    2
 10
1732.050807568877
 20
-2000
 40
760
 50
266.6055020951409
 51
273.3944994729707
 73
    1
 72
    1
 10
1777.05081795074
 20
-2758.666592822982
 11
1777.05081795074
 21
-2800
 97
    0
 75
    0
 76
    1
 98
    0
  0
HATCH
  5
58
100
AcDbEntity
  8
Handle_hatch
  6
ByLayer
 62
  256
370
   -1
100
AcDbHatch
 10
0
 20
0
 30
0
210
0
220
0
230
1
  2
SOLID
 70
    1
 71
    0
 91
    1
 92
    0
 93
    4
 72
    1
 10
2532.050807568877
 20
-1955
 11
2532.050807568877
 21
-2045
 72
    1
 10
2532.050807568877
 20
-2045
 11
2490.717401623451
 21
-2044.999989618136
 72
    2
 10
1732.050807568877
 20
-2000
 40
760
 50
356.6055020951409
 51
3.394499472970716
 73
    1
 72
    1
 10
2490.717400391859
 20
-1954.999989618136
 11
2532.050807568877
 21
-1954.999989618137
 97
    0
 75
    0
 76
    1
 98
    0
  0
HATCH
  5
59
100
AcDbEntity
  8
Handle_hatch
  6
ByLayer
 62
  256
370
   -1
100
AcDbHatch
 10
0
 20
0
 30
0
210
0
220
0
230
1
  2
SOLID
 70
    1
 71
    0
 91
    1
 92
    0
 93
    4
 72
    1
 10
4179.421938165306
 20
-361.0288568297006
 11
4134.421938165306
 21
-438.9711431703001
 72
    1
 10
4134.421938165306
 20
-438.9711431703001
 11
4098.626163782565
 21
-418.3044312066292
 72
    2
 10
3464.101615137755
 20
0
 40
760
 50
326.6055020951409
 51
333.3944994729707
 73
    1
 72
    1
 10
4143.626162715975
 20
-340.3621442502338
 11
4179.421943356238
 21
-361.0288478387428
 97
    0
 75
    0
 76
    1
 98
    0
  0
HATCH
  5
5A
100
AcDbEntity
  8
Handle_hatch
  6
ByLayer
 62
  256
370
   -1
100
AcDbHatch
 10
0
 20
0
 30
0
210
0
220
0
230
1
  2
SOLID
 70
    1
 71
    0
 91
    1
 92
    0
 93
    4
 72
    1
 10
2793.781292110204
 20
-438.9711431702996
 11
2748.781292110204
 21
-361.0288568297001
 72
    1
 10
2748.781292110204
 20
-361.0288568297001
 11
2784.57707687481
 21
-340.3621628479449
 72
    2
 10
3464.101615137755
 20
0
 40
760
 50
206.605502095141
 51
213.3944994729707
 73
    1
 72
    1
 10
2829.5770779414
 20
-418.3044485727484
 11
2793.781297301136
 21
-438.9711521612574
 97
    0
 75
    0
 76
    1
 98
    0
  0
HATCH
  5
5B
100
AcDbEntity
  8
Handle_hatch
  6
ByLayer
 62
  256
370
   -1
100
AcDbHatch
 10
0
 20
0
 30
0
210
0
220
0
230
1
  2
SOLID
 70
    1
 71
    0
 91
    1
 92
    0
 93
    4
 72
    1
 10
3419.101615137755
 20
800
 11
3509.101615137755
 21
800
 72
    1
 10
3509.101615137755
 20
800
 11
3509.101604755891
 21
758.6665940545739
 72
    2
 10
3464.101615137755
 20
0
 40
760
 50
86.60550209514096
 51
93.39449947297072
 73
    1
 72
    1
 10
3419.101604755891
 20
758.666592822982
 11
3419.101604755891
 21
800
 97
    0
 75
    0
 76
    1
 98
    0
  0
HATCH
  5
5C
100
AcDbEntity
  8
Handle_hatch
  6
ByLayer
 62
  256
370
   -1
100
AcDbHatch
 10
0
 20
0
 30
0
210
0
220
0
230
1
  2
SOLID
 70
    1
 71
    0
 91
    1
 92
    0
 93
    4
 72
    1
 10
800
 20
44.9999999999998
 11
800
 21
-45.0000000000002
 72
    1
 10
800
 20
-45.0000000000002
 11
758.6665940545739
 21
-44.99998961813647
 72
    2
 10
0
 20
0
 40
760
 50
356.6055020951409
 51
3.394499472970716
 73
    1
 72
    1
 10
758.666592822982
 20
45.00001038186352
 11
800
 21
45.00001038186345
 97
    0
 75
    0
 76
    1
 98
    0
  0
HATCH
  5
5D
100
AcDbEntity
  8
Handle_hatch
  6
ByLayer
 62
  256
370
   -1
100
AcDbHatch
 10
0
 20
0
 30
0
210
0
220
0
230
1
  2
SOLID
 70
    1
 71
    0
 91
    1
 92
    0
 93
    4
 72
    1
 10
44.99999999999985
 20
-800
 11
-45.00000000000015
 21
-800
 72
    1
 10
-45.00000000000015
 20
-800
 11
-44.99998961813642
 21
-758.6665940545739
 72
    2
 10
0
 20
0
 40
760
 50
266.6055020951409
 51
273.3944994729707
 73
    1
 72
    1
 10
45.00001038186357
 20
-758.666592822982
 11
45.0000103818635
 21
-800
 97
    0
 75
    0
 76
    1
 98
    0
  0
HATCH
  5
5E
100
AcDbEntity
  8
Handle_hatch
  6
ByLayer
 62
  256
370
   -1
100
AcDbHatch
 10
0
 20
0
 30
0
210
0
220
0
230
1
  2
SOLID
 70
    1
 71
    0
 91
    1
 92
    0
 93
    4
 72
    1
 10
-800
 20
-44.9999999999999
 11
-800
 21
45.0000000000001
 72
    1
 10
-800
 20
45.0000000000001
 11
-758.6665940545739
 21
44.99998961813638
 72
    2
 10
0
 20
0
 40
760
 50
176.605502095141
 51
183.3944994729707
 73
    1
 72
    1
 10
-758.666592822982
 20
-45.00001038186361
 11
-800
 21
-45.00001038186355
 97
    0
 75
    0
 76
    1
 98
    0
  0
HATCH
  5
5F
100
AcDbEntity
  8
Handle_hatch
  6
ByLayer
 62
  256
370
   -1
100
AcDbHatch
 10
0
 20
0
 30
0
210
0
220
0
230
1
  2
SOLID
 70
    1
 71
    0
 91
    1
 92
    0
 93
    4
 72
    1
 10
-44.99999999999995
 20
800
 11
45.00000000000005
 21
800
 72
    1
 10
45.00000000000005
 20
800
 11
44.99998961813633
 21
758.6665940545739
 72
    2
 10
0
 20
0
 40
760
 50
86.60550209514096
 51
93.39449947297072
 73
    1
 72
    1
 10
-45.00001038186366
 20
758.666592822982
 11
-45.0000103818636
 21
800
 97
    0
 75
    0
 76
    1
 98
    0
  0
ARC
  5
60
100
AcDbEntity
  8
unsharpened
  6
ByLayer
 62
  256
370
   -1
100
AcDbCircle
 10
-44.99999999999995
 20
815
 40
15
100
AcDbArc
 50
89.99999999999997
 51
270
  0
ARC
  5
61
100
AcDbEntity
  8
unsharpened
  6
ByLayer
 62
  256
370
   -1
100
AcDbCircle
 10
45.00000000000005
 20
815
 40
15
100
AcDbArc
 50
270
 51
89.99999999999997
  0
ARC
  5
62
100
AcDbEntity
  8
unsharpened
  6
ByLayer
 62
  256
370
   -1
100
AcDbCircle
 10
44.99999999999984
 20
-815
 40
15
100
AcDbArc
 50
270.0000000000002
 51
90.00000000000006
  0
ARC
  5
63
100
AcDbEntity
  8
unsharpened
  6
ByLayer
 62
  256
370
   -1
100
AcDbCircle
 10
-45.00000000000016
 20
-815
 40
15
100
AcDbArc
 50
90.00000000000028
 51
269.9999999999999
  0
LINE
  5
64
100
AcDbEntity
  8
unsharpened
  6
ByLayer
 62
  256
370
   -1
100
AcDbLine
 10
-45.00000000000016
 20
-830
 11
44.99999999999984
 21
-830
  0
LINE
  5
65
100
AcDbEntity
  8
unsharpened
  6
ByLayer
 62
  256
370
   -1
100
AcDbLine
 10
-45.00000000000016
 20
-800
 11
44.99999999999984
 21
-800
  0
LINE
  5
66
100
AcDbEntity
  8
unsharpened
  6
ByLayer
 62
  256
370
   -1
100
AcDbLine
 10
-44.99999999999995
 20
830
 11
45.00000000000005
 21
830
  0
LINE
  5
67
100
AcDbEntity
  8
unsharpened
  6
ByLayer
 62
  256
370
   -1
100
AcDbLine
 10
-44.99999999999995
 20
800
 11
45.00000000000005
 21
800
  0
ARC
  5
68
100
AcDbEntity
  8
unsharpened
  6
ByLayer
 62
  256
370
   -1
100
AcDbCircle
 10
-815
 20
-44.9999999999999
 40
15
100
AcDbArc
 50
180
 51
0
  0
ARC
  5
69
100
AcDbEntity
  8
unsharpened
  6
ByLayer
 62
  256
370
   -1
100
AcDbCircle
 10
-815
 20
45.0000000000001
 40
15
100
AcDbArc
 50
0
 51
180
  0
ARC
  5
6A
100
AcDbEntity
  8
unsharpened
  6
ByLayer
 62
  256
370
   -1
100
AcDbCircle
 10
815
 20
44.99999999999979
 40
15
100
AcDbArc
 50
2.035554996136651e-13
 51
180.0000000000001
  0
ARC
  5
6B
100
AcDbEntity
  8
unsharpened
  6
ByLayer
 62
  256
370
   -1
100
AcDbCircle
 10
815
 20
-45.00000000000021
 40
15
100
AcDbArc
 50
180.0000000000003
 51
359.9999999999999
  0
LINE
  5
6C
100
AcDbEntity
  8
unsharpened
  6
ByLayer
 62
  256
370
   -1
100
AcDbLine
 10
830
 20
-45.00000000000021
 11
830
 21
44.99999999999979
  0
LINE
  5
6D
100
AcDbEntity
  8
unsharpened
  6
ByLayer
 62
  256
370
   -1
100
AcDbLine
 10
800
 20
-45.00000000000021
 11
800
 21
44.99999999999979
  0
LINE
  5
6E
100
AcDbEntity
  8
unsharpened
  6
ByLayer
 62
  256
370
   -1
100
AcDbLine
 10
-830
 20
-44.9999999999999
 11
-830
 21
45.0000000000001
  0
LINE
  5
6F
100
AcDbEntity
  8
unsharpened
  6
ByLayer
 62
  256
370
   -1
100
AcDbLine
 10
-800
 20
-44.9999999999999
 11
-800
 21
45.0000000000001
  0
LINE
  5
70
100
AcDbEntity
  8
Handle_Outline
  6
ByLayer
 62
  256
370
   -1
100
AcDbLine
 10
45.00000000000005
 20
800
 11
44.99998961813633
 21
758.6665940545739
  0
LINE
  5
71
100
AcDbEntity
  8
Handle_Outline
  6
ByLayer
 62
  256
370
   -1
100
AcDbLine
 10
34.9999896181364
 20
800
 11
34.9999896181364
 21
759.1936516638757
  0
LINE
  5
72
100
AcDbEntity
  8
Handle_Outline
  6
ByLayer
 62
  256
370
   -1
100
AcDbLine
 10
24.9999896181364
 20
800
 11
24.99998961813634
 21
759.5887048390684
  0
LINE
  5
73
100
AcDbEntity
  8
Handle_Outline
  6
ByLayer
 62
  256
370
   -1
100
AcDbLine
 10
14.9999896181364
 20
800
 11
14.99998961813617
 21
759.8519594706956
  0
LINE
  5
74
100
AcDbEntity
  8
Handle_Outline
  6
ByLayer
 62
  256
370
   -1
100
AcDbLine
 10
4.999989618136397
 20
800
 11
4.999989618136397
 21
759.9835525219072
  0
LINE
  5
75
100
AcDbEntity
  8
Handle_Outline
  6
ByLayer
 62
  256
370
   -1
100
AcDbLine
 10
-5.000010381863603
 20
800
 11
-5.000010381863547
 21
759.9835523853008
  0
LINE
  5
76
100
AcDbEntity
  8
Handle_Outline
  6
ByLayer
 62
  256
370
   -1
100
AcDbLine
 10
-15.0000103818636
 20
800
 11
-15.0000103818636
 21
759.8519590608055
  0
LINE
  5
77
100
AcDbEntity
  8
Handle_Outline
  6
ByLayer
 62
  256
370
   -1
100
AcDbLine
 10
-25.0000103818636
 20
800
 11
-25.00001038186349
 21
759.5887041556811
  0
LINE
  5
78
100
AcDbEntity
  8
Handle_Outline
  6
ByLayer
 62
  256
370
   -1
100
AcDbLine
 10
-35.0000103818636
 20
800
 11
-35.00001038186377
 21
759.1936507066359
  0
LINE
  5
79
100
AcDbEntity
  8
Handle_Outline
  6
ByLayer
 62
  256
370
   -1
100
AcDbLine
 10
-45.0000103818636
 20
800
 11
-45.00001038186366
 21
758.666592822982
  0
ARC
  5
7A
100
AcDbEntity
  8
Handle_Outline
  6
ByLayer
 62
  256
370
   -1
100
AcDbCircle
 10
0
 20
0
 40
760
100
AcDbArc
 50
86.60550209514096
 51
93.39449947297072
  0
LINE
  5
7B
100
AcDbEntity
  8
Handle_Outline
  6
ByLayer
 62
  256
370
   -1
100
AcDbLine
 10
-800
 20
45.0000000000001
 11
-758.6665940545739
 21
44.99998961813638
  0
LINE
  5
7C
100
AcDbEntity
  8
Handle_Outline
  6
ByLayer
 62
  256
370
   -1
100
AcDbLine
 10
-800
 20
34.99998961813645
 11
-759.1936516638757
 21
34.99998961813645
  0
LINE
  5
7D
100
AcDbEntity
  8
Handle_Outline
  6
ByLayer
 62
  256
370
   -1
100
AcDbLine
 10
-800
 20
24.99998961813645
 11
-759.5887048390684
 21
24.99998961813639
  0
LINE
  5
7E
100
AcDbEntity
  8
Handle_Outline
  6
ByLayer
 62
  256
370
   -1
100
AcDbLine
 10
-800
 20
14.99998961813645
 11
-759.8519594706956
 21
14.99998961813622
  0
LINE
  5
7F
100
AcDbEntity
  8
Handle_Outline
  6
ByLayer
 62
  256
370
   -1
100
AcDbLine
 10
-800
 20
4.999989618136446
 11
-759.9835525219072
 21
4.999989618136443
  0
LINE
  5
80
100
AcDbEntity
  8
Handle_Outline
  6
ByLayer
 62
  256
370
   -1
100
AcDbLine
 10
-800
 20
-5.000010381863554
 11
-759.9835523853008
 21
-5.0000103818635
  0
LINE
  5
81
100
AcDbEntity
  8
Handle_Outline
  6
ByLayer
 62
  256
370
   -1
100
AcDbLine
 10
-800
 20
-15.00001038186355
 11
-759.8519590608055
 21
-15.00001038186356
  0
LINE
  5
82
100
AcDbEntity
  8
Handle_Outline
  6
ByLayer
 62
  256
370
   -1
100
AcDbLine
 10
-800
 20
-25.00001038186355
 11
-759.5887041556811
 21
-25.00001038186344
  0
LINE
  5
83
100
AcDbEntity
  8
Handle_Outline
  6
ByLayer
 62
  256
370
   -1
100
AcDbLine
 10
-800
 20
-35.00001038186355
 11
-759.1936507066359
 21
-35.00001038186372
  0
LINE
  5
84
100
AcDbEntity
  8
Handle_Outline
  6
ByLayer
 62
  256
370
   -1
100
AcDbLine
 10
-800
 20
-45.00001038186355
 11
-758.666592822982
 21
-45.00001038186361
  0
ARC
  5
85
100
AcDbEntity
  8
Handle_Outline
  6
ByLayer
 62
  256
370
   -1
100
AcDbCircle
 10
0
 20
0
 40
760
100
AcDbArc
 50
176.605502095141
 51
183.3944994729707
  0
LINE
  5
86
100
AcDbEntity
  8
Handle_Outline
  6
ByLayer
 62
  256
370
   -1
100
AcDbLine
 10
-45.00000000000015
 20
-800
 11
-44.99998961813642
 21
-758.6665940545739
  0
LINE
  5
87
100
AcDbEntity
  8
Handle_Outline
  6
ByLayer
 62
  256
370
   -1
100
AcDbLine
 10
-34.9999896181365
 20
-800
 11
-34.99998961813649
 21
-759.1936516638757
  0
LINE
  5
88
100
AcDbEntity
  8
Handle_Outline
  6
ByLayer
 62
  256
370
   -1
100
AcDbLine
 10
-24.9999896181365
 20
-800
 11
-24.99998961813643
 21
-759.5887048390684
  0
LINE
  5
89
100
AcDbEntity
  8
Handle_Outline
  6
ByLayer
 62
  256
370
   -1
100
AcDbLine
 10
-14.9999896181365
 20
-800
 11
-14.99998961813626
 21
-759.8519594706956
  0
LINE
  5
8A
100
AcDbEntity
  8
Handle_Outline
  6
ByLayer
 62
  256
370
   -1
100
AcDbLine
 10
-4.999989618136495
 20
-800
 11
-4.99998961813649
 21
-759.9835525219072
  0
LINE
  5
8B
100
AcDbEntity
  8
Handle_Outline
  6
ByLayer
 62
  256
370
   -1
100
AcDbLine
 10
5.000010381863505
 20
-800
 11
5.000010381863453
 21
-759.9835523853008
  0
LINE
  5
8C
100
AcDbEntity
  8
Handle_Outline
  6
ByLayer
 62
  256
370
   -1
100
AcDbLine
 10
15.0000103818635
 20
-800
 11
15.00001038186351
 21
-759.8519590608055
  0
LINE
  5
8D
100
AcDbEntity
  8
Handle_Outline
  6
ByLayer
 62
  256
370
   -1
100
AcDbLine
 10
25.0000103818635
 20
-800
 11
25.0000103818634
 21
-759.5887041556811
  0
LINE
  5
8E
100
AcDbEntity
  8
Handle_Outline
  6
ByLayer
 62
  256
370
   -1
100
AcDbLine
 10
35.0000103818635
 20
-800
 11
35.00001038186368
 21
-759.1936507066359
  0
LINE
  5
8F
100
AcDbEntity
  8
Handle_Outline
  6
ByLayer
 62
  256
370
   -1
100
AcDbLine
 10
45.0000103818635
 20
-800
 11
45.00001038186357
 21
-758.666592822982
  0
ARC
  5
90
100
AcDbEntity
  8
Handle_Outline
  6
ByLayer
 62
  256
370
   -1
100
AcDbCircle
 10
0
 20
0
 40
760
100
AcDbArc
 50
266.6055020951409
 51
273.3944994729707
  0
LINE
  5
91
100
AcDbEntity
  8
Handle_Outline
  6
ByLayer
 62
  256
370
   -1
100
AcDbLine
 10
800
 20
-45.0000000000002
 11
758.6665940545739
 21
-44.99998961813647
  0
LINE
  5
92
100
AcDbEntity
  8
Handle_Outline
  6
ByLayer
 62
  256
370
   -1
100
AcDbLine
 10
800
 20
-34.99998961813655
 11
759.1936516638757
 21
-34.99998961813654
  0
LINE
  5
93
100
AcDbEntity
  8
Handle_Outline
  6
ByLayer
 62
  256
370
   -1
100
AcDbLine
 10
800
 20
-24.99998961813655
 11
759.5887048390684
 21
-24.99998961813648
  0
LINE
  5
94
100
AcDbEntity
  8
Handle_Outline
  6
ByLayer
 62
  256
370
   -1
100
AcDbLine
 10
800
 20
-14.99998961813655
 11
759.8519594706956
 21
-14.99998961813631
  0
LINE
  5
95
100
AcDbEntity
  8
Handle_Outline
  6
ByLayer
 62
  256
370
   -1
100
AcDbLine
 10
800
 20
-4.999989618136544
 11
759.9835525219072
 21
-4.999989618136536
  0
LINE
  5
96
100
AcDbEntity
  8
Handle_Outline
  6
ByLayer
 62
  256
370
   -1
100
AcDbLine
 10
800
 20
5.000010381863456
 11
759.9835523853008
 21
5.000010381863407
  0
LINE
  5
97
100
AcDbEntity
  8
Handle_Outline
  6
ByLayer
 62
  256
370
   -1
100
AcDbLine
 10
800
 20
15.00001038186345
 11
759.8519590608055
 21
15.00001038186346
  0
LINE
  5
98
100
AcDbEntity
  8
Handle_Outline
  6
ByLayer
 62
  256
370
   -1
100
AcDbLine
 10
800
 20
25.00001038186345
 11
759.5887041556811
 21
25.00001038186335
  0
LINE
  5
99
100
AcDbEntity
  8
Handle_Outline
  6
ByLayer
 62
  256
370
   -1
100
AcDbLine
 10
800
 20
35.00001038186345
 11
759.1936507066359
 21
35.00001038186363
  0
LINE
  5
9A
100
AcDbEntity
  8
Handle_Outline
  6
ByLayer
 62
  256
370
   -1
100
AcDbLine
 10
800
 20
45.00001038186345
 11
758.666592822982
 21
45.00001038186352
  0
ARC
  5
9B
100
AcDbEntity
  8
Handle_Outline
  6
ByLayer
 62
  256
370
   -1
100
AcDbCircle
 10
0
 20
0
 40
760
100
AcDbArc
 50
356.6055020951409
 51
3.394499472970716
  0
ARC
  5
9C
100
AcDbEntity
  8
unsharpened
  6
ByLayer
 62
  256
370
   -1
100
AcDbCircle
 10
3419.101615137755
 20
815
 40
15
100
AcDbArc
 50
89.99999999999997
 51
270
  0
ARC
  5
9D
100
AcDbEntity
  8
unsharpened
  6
ByLayer
 62
  256
370
   -1
100
AcDbCircle
 10
3509.101615137755
 20
815
 40
15
100
AcDbArc
 50
270
 51
89.99999999999997
  0
LINE
  5
9E
100
AcDbEntity
  8
Handle_Outline
  6
ByLayer
 62
  256
370
   -1
100
AcDbLine
 10
3509.101615137755
 20
800
 11
3509.101604755891
 21
758.6665940545739
  0
LINE
  5
9F
100
AcDbEntity
  8
Handle_Outline
  6
ByLayer
 62
  256
370
   -1
100
AcDbLine
 10
3499.101604755891
 20
800
 11
3499.101604755891
 21
759.1936516638757
  0
LINE
  5
A0
100
AcDbEntity
  8
Handle_Outline
  6
ByLayer
 62
  256
370
   -1
100
AcDbLine
 10
3489.101604755892
 20
800
 11
3489.101604755891
 21
759.5887048390684
  0
LINE
  5
A1
100
AcDbEntity
  8
Handle_Outline
  6
ByLayer
 62
  256
370
   -1
100
AcDbLine
 10
3479.101604755892
 20
800
 11
3479.101604755891
 21
759.8519594706956
  0
LINE
  5
A2
100
AcDbEntity
  8
Handle_Outline
  6
ByLayer
 62
  256
370
   -1
100
AcDbLine
 10
3469.101604755892
 20
800
 11
3469.101604755891
 21
759.9835525219072
  0
LINE
  5
A3
100
AcDbEntity
  8
Handle_Outline
  6
ByLayer
 62
  256
370
   -1
100
AcDbLine
 10
3459.101604755892
 20
800
 11
3459.101604755892
 21
759.9835523853008
  0
LINE
  5
A4
100
AcDbEntity
  8
Handle_Outline
  6
ByLayer
 62
  256
370
   -1
100
AcDbLine
 10
3449.101604755892
 20
800
 11
3449.101604755891
 21
759.8519590608055
  0
LINE
  5
A5
100
AcDbEntity
  8
Handle_Outline
  6
ByLayer
 62
  256
370
   -1
100
AcDbLine
 10
3439.101604755892
 20
800
 11
3439.101604755892
 21
759.5887041556811
  0
LINE
  5
A6
100
AcDbEntity
  8
Handle_Outline
  6
ByLayer
 62
  256
370
   -1
100
AcDbLine
 10
3429.101604755891
 20
800
 11
3429.101604755891
 21
759.1936507066359
  0
LINE
  5
A7
100
AcDbEntity
  8
Handle_Outline
  6
ByLayer
 62
  256
370
   -1
100
AcDbLine
 10
3419.101604755891
 20
800
 11
3419.101604755891
 21
758.666592822982
  0
ARC
  5
A8
100
AcDbEntity
  8
Handle_Outline
  6
ByLayer
 62
  256
370
   -1
100
AcDbCircle
 10
3464.101615137755
 20
0
 40
760
100
AcDbArc
 50
86.60550209514096
 51
93.39449947297072
  0
ARC
  5
A9
100
AcDbEntity
  8
unsharpened
  6
ByLayer
 62
  256
370
   -1
100
AcDbCircle
 10
2780.790911053438
 20
-446.4711431702996
 40
15
100
AcDbArc
 50
210
 51
29.99999999999996
  0
ARC
  5
AA
100
AcDbEntity
  8
unsharpened
  6
ByLayer
 62
  256
370
   -1
100
AcDbCircle
 10
2735.790911053438
 20
-368.5288568297001
 40
15
100
AcDbArc
 50
29.99999999999996
 51
210
  0
LINE
  5
AB
100
AcDbEntity
  8
Handle_Outline
  6
ByLayer
 62
  256
370
   -1
100
AcDbLine
 10
2748.781292110204
 20
-361.0288568297001
 11
2784.57707687481
 21
-340.3621628479449
  0
LINE
  5
AC
100
AcDbEntity
  8
Handle_Outline
  6
ByLayer
 62
  256
370
   -1
100
AcDbLine
 10
2753.781297301136
 20
-369.6891198585023
 11
2789.120631595897
 21
-349.2859456904401
  0
LINE
  5
AD
100
AcDbEntity
  8
Handle_Outline
  6
ByLayer
 62
  256
370
   -1
100
AcDbLine
 10
2758.781297301136
 20
-378.3493738963463
 11
2793.778505510334
 21
-358.1437263158809
  0
LINE
  5
AE
100
AcDbEntity
  8
Handle_Outline
  6
ByLayer
 62
  256
370
   -1
100
AcDbLine
 10
2763.781297301136
 20
-387.0096279341907
 11
2798.550520311681
 21
-366.9356076695389
  0
LINE
  5
AF
100
AcDbEntity
  8
Handle_Outline
  6
ByLayer
 62
  256
370
   -1
100
AcDbLine
 10
2768.781297301136
 20
-395.6698819720351
 11
2803.436557386371
 21
-375.6616582329891
  0
LINE
  5
B0
100
AcDbEntity
  8
Handle_Outline
  6
ByLayer
 62
  256
370
   -1
100
AcDbLine
 10
2773.781297301136
 20
-404.3301360098794
 11
2808.436557504675
 21
-384.3219122025298
  0
LINE
  5
B1
100
AcDbEntity
  8
Handle_Outline
  6
ByLayer
 62
  256
370
   -1
100
AcDbLine
 10
2778.781297301136
 20
-412.9903900477238
 11
2813.550520666656
 21
-392.916369578127
  0
LINE
  5
B2
100
AcDbEntity
  8
Handle_Outline
  6
ByLayer
 62
  256
370
   -1
100
AcDbLine
 10
2783.781297301136
 20
-421.6506440855682
 11
2818.778506102165
 21
-401.4449961634087
  0
LINE
  5
B3
100
AcDbEntity
  8
Handle_Outline
  6
ByLayer
 62
  256
370
   -1
100
AcDbLine
 10
2788.781297301136
 20
-430.310898123413
 11
2824.120632424891
 21
-409.907723476731
  0
LINE
  5
B4
100
AcDbEntity
  8
Handle_Outline
  6
ByLayer
 62
  256
370
   -1
100
AcDbLine
 10
2793.781297301136
 20
-438.9711521612574
 11
2829.5770779414
 21
-418.3044485727484
  0
ARC
  5
B5
100
AcDbEntity
  8
Handle_Outline
  6
ByLayer
 62
  256
370
   -1
100
AcDbCircle
 10
3464.101615137755
 20
0
 40
760
100
AcDbArc
 50
206.605502095141
 51
213.3944994729707
  0
ARC
  5
B6
100
AcDbEntity
  8
unsharpened
  6
ByLayer
 62
  256
370
   -1
100
AcDbCircle
 10
4192.412319222072
 20
-368.5288568297006
 40
15
100
AcDbArc
 50
329.9999999999999
 51
150
  0
ARC
  5
B7
100
AcDbEntity
  8
unsharpened
  6
ByLayer
 62
  256
370
   -1
100
AcDbCircle
 10
4147.412319222072
 20
-446.4711431703001
 40
15
100
AcDbArc
 50
150
 51
329.9999999999999
  0
LINE
  5
B8
100
AcDbEntity
  8
Handle_Outline
  6
ByLayer
 62
  256
370
   -1
100
AcDbLine
 10
4134.421938165306
 20
-438.9711431703001
 11
4098.626163782565
 21
-418.3044312066292
  0
LINE
  5
B9
100
AcDbEntity
  8
Handle_Outline
  6
ByLayer
 62
  256
370
   -1
100
AcDbLine
 10
4139.421943356238
 20
-430.3108801414979
 11
4104.082609061477
 21
-409.9077059734357
  0
LINE
  5
BA
100
AcDbEntity
  8
Handle_Outline
  6
ByLayer
 62
  256
370
   -1
100
AcDbLine
 10
4144.421943356238
 20
-421.6506261036538
 11
4109.42473514704
 21
-401.4449785231877
  0
LINE
  5
BB
100
AcDbEntity
  8
Handle_Outline
  6
ByLayer
 62
  256
370
   -1
100
AcDbLine
 10
4149.421943356238
 20
-412.9903720658095
 11
4114.652720345694
 21
-392.9163518011569
  0
LINE
  5
BC
100
AcDbEntity
  8
Handle_Outline
  6
ByLayer
 62
  256
370
   -1
100
AcDbLine
 10
4154.421943356238
 20
-404.3301180279651
 11
4119.766683271004
 21
-384.3218942889183
  0
LINE
  5
BD
100
AcDbEntity
  8
Handle_Outline
  6
ByLayer
 62
  256
370
   -1
100
AcDbLine
 10
4159.421943356238
 20
-395.6698639901207
 11
4124.766683152699
 21
-375.6616401827711
  0
LINE
  5
BE
100
AcDbEntity
  8
Handle_Outline
  6
ByLayer
 62
  256
370
   -1
100
AcDbLine
 10
4164.421943356238
 20
-387.0096099522763
 11
4129.652719990718
 21
-366.9355894826787
  0
LINE
  5
BF
100
AcDbEntity
  8
Handle_Outline
  6
ByLayer
 62
  256
370
   -1
100
AcDbLine
 10
4169.421943356238
 20
-378.349355914432
 11
4134.424734555208
 21
-358.1437079922725
  0
LINE
  5
C0
100
AcDbEntity
  8
Handle_Outline
  6
ByLayer
 62
  256
370
   -1
100
AcDbLine
 10
4174.421943356238
 20
-369.6891018765872
 11
4139.082608232484
 21
-349.2859272299052
  0
LINE
  5
C1
100
AcDbEntity
  8
Handle_Outline
  6
ByLayer
 62
  256
370
   -1
100
AcDbLine
 10
4179.421943356238
 20
-361.0288478387428
 11
4143.626162715975
 21
-340.3621442502338
  0
ARC
  5
C2
100
AcDbEntity
  8
Handle_Outline
  6
ByLayer
 62
  256
370
   -1
100
AcDbCircle
 10
3464.101615137755
 20
0
 40
760
100
AcDbArc
 50
326.6055020951409
 51
333.3944994729707
  0
LINE
  5
C3
100
AcDbEntity
  8
unsharpened
  6
ByLayer
 62
  256
370
   -1
100
AcDbLine
 10
3419.101615137755
 20
800
 11
3509.101615137755
 21
800
  0
LINE
  5
C4
100
AcDbEntity
  8
unsharpened
  6
ByLayer
 62
  256
370
   -1
100
AcDbLine
 10
3419.101615137755
 20
830
 11
3509.101615137755
 21
830
  0
LINE
  5
C5
100
AcDbEntity
  8
unsharpened
  6
ByLayer
 62
  256
370
   -1
100
AcDbLine
 10
2722.800529996671
 20
-376.0288568297001
 11
2767.800529996671
 21
-453.9711431702996
  0
LINE
  5
C6
100
AcDbEntity
  8
unsharpened
  6
ByLayer
 62
  256
370
   -1
100
AcDbLine
 10
2748.781292110205
 20
-361.0288568297001
 11
2793.781292110205
 21
-438.9711431702996
  0
LINE
  5
C7
100
AcDbEntity
  8
unsharpened
  6
ByLayer
 62
  256
370
   -1
100
AcDbLine
 10
4205.402700278839
 20
-376.0288568297006
 11
4160.402700278839
 21
-453.9711431703001
  0
LINE
  5
C8
100
AcDbEntity
  8
unsharpened
  6
ByLayer
 62
  256
370
   -1
100
AcDbLine
 10
4179.421938165306
 20
-361.0288568297006
 11
4134.421938165306
 21
-438.9711431703001
  0
ARC
  5
C9
100
AcDbEntity
  8
unsharpened
  6
ByLayer
 62
  256
370
   -1
100
AcDbCircle
 10
1687.050807568877
 20
-1185
 40
15
100
AcDbArc
 50
89.99999999999997
 51
270
  0
ARC
  5
CA
100
AcDbEntity
  8
unsharpened
  6
ByLayer
 62
  256
370
   -1
100
AcDbCircle
 10
1777.050807568877
 20
-1185
 40
15
100
AcDbArc
 50
270
 51
89.99999999999997
  0
ARC
  5
CB
100
AcDbEntity
  8
unsharpened
  6
ByLayer
 62
  256
370
   -1
100
AcDbCircle
 10
1777.050807568877
 20
-2815
 40
15
100
AcDbArc
 50
270.0000000000002
 51
90.00000000000006
  0
ARC
  5
CC
100
AcDbEntity
  8
unsharpened
  6
ByLayer
 62
  256
370
   -1
100
AcDbCircle
 10
1687.050807568877
 20
-2815
 40
15
100
AcDbArc
 50
90.00000000000028
 51
269.9999999999999
  0
LINE
  5
CD
100
AcDbEntity
  8
unsharpened
  6
ByLayer
 62
  256
370
   -1
100
AcDbLine
 10
1687.050807568877
 20
-2830
 11
1777.050807568877
 21
-2830
  0
LINE
  5
CE
100
AcDbEntity
  8
unsharpened
  6
ByLayer
 62
  256
370
   -1
100
AcDbLine
 10
1687.050807568877
 20
-2800
 11
1777.050807568877
 21
-2800
  0
LINE
  5
CF
100
AcDbEntity
  8
unsharpened
  6
ByLayer
 62
  256
370
   -1
100
AcDbLine
 10
1687.050807568877
 20
-1170
 11
1777.050807568877
 21
-1170
  0
LINE
  5
D0
100
AcDbEntity
  8
unsharpened
  6
ByLayer
 62
  256
370
   -1
100
AcDbLine
 10
1687.050807568877
 20
-1200
 11
1777.050807568877
 21
-1200
  0
ARC
  5
D1
100
AcDbEntity
  8
unsharpened
  6
ByLayer
 62
  256
370
   -1
100
AcDbCircle
 10
917.0508075688767
 20
-2045
 40
15
100
AcDbArc
 50
180
 51
0
  0
ARC
  5
D2
100
AcDbEntity
  8
unsharpened
  6
ByLayer
 62
  256
370
   -1
100
AcDbCircle
 10
917.0508075688767
 20
-1955
 40
15
100
AcDbArc
 50
0
 51
180
  0
ARC
  5
D3
100
AcDbEntity
  8
unsharpened
  6
ByLayer
 62
  256
370
   -1
100
AcDbCircle
 10
2547.050807568877
 20
-1955
 40
15
100
AcDbArc
 50
2.035554996136651e-13
 51
180.0000000000001
  0
ARC
  5
D4
100
AcDbEntity
  8
unsharpened
  6
ByLayer
 62
  256
370
   -1
100
AcDbCircle
 10
2547.050807568877
 20
-2045
 40
15
100
AcDbArc
 50
180.0000000000003
 51
359.9999999999999
  0
LINE
  5
D5
100
AcDbEntity
  8
unsharpened
  6
ByLayer
 62
  256
370
   -1
100
AcDbLine
 10
2562.050807568877
 20
-2045
 11
2562.050807568877
 21
-1955
  0
LINE
  5
D6
100
AcDbEntity
  8
unsharpened
  6
ByLayer
 62
  256
370
   -1
100
AcDbLine
 10
2532.050807568877
 20
-2045
 11
2532.050807568877
 21
-1955
  0
LINE
  5
D7
100
AcDbEntity
  8
unsharpened
  6
ByLayer
 62
  256
370
   -1
100
AcDbLine
 10
902.0508075688767
 20
-2045
 11
902.0508075688767
 21
-1955
  0
LINE
  5
D8
100
AcDbEntity
  8
unsharpened
  6
ByLayer
 62
  256
370
   -1
100
AcDbLine
 10
932.0508075688767
 20
-2045
 11
932.0508075688767
 21
-1955
  0
LINE
  5
D9
100
AcDbEntity
  8
Handle_Outline
  6
ByLayer
 62
  256
370
   -1
100
AcDbLine
 10
1777.050807568877
 20
-1200
 11
1777.050797187013
 21
-1241.333405945426
  0
LINE
  5
DA
100
AcDbEntity
  8
Handle_Outline
  6
ByLayer
 62
  256
370
   -1
100
AcDbLine
 10
1767.050797187013
 20
-1200
 11
1767.050797187013
 21
-1240.806348336124
  0
LINE
  5
DB
100
AcDbEntity
  8
Handle_Outline
  6
ByLayer
 62
  256
370
   -1
100
AcDbLine
 10
1757.050797187013
 20
-1200
 11
1757.050797187013
 21
-1240.411295160932
  0
LINE
  5
DC
100
AcDbEntity
  8
Handle_Outline
  6
ByLayer
 62
  256
370
   -1
100
AcDbLine
 10
1747.050797187013
 20
-1200
 11
1747.050797187013
 21
-1240.148040529304
  0
LINE
  5
DD
100
AcDbEntity
  8
Handle_Outline
  6
ByLayer
 62
  256
370
   -1
100
AcDbLine
 10
1737.050797187013
 20
-1200
 11
1737.050797187013
 21
-1240.016447478093
  0
LINE
  5
DE
100
AcDbEntity
  8
Handle_Outline
  6
ByLayer
 62
  256
370
   -1
100
AcDbLine
 10
1727.050797187013
 20
-1200
 11
1727.050797187013
 21
-1240.016447614699
  0
LINE
  5
DF
100
AcDbEntity
  8
Handle_Outline
  6
ByLayer
 62
  256
370
   -1
100
AcDbLine
 10
1717.050797187013
 20
-1200
 11
1717.050797187013
 21
-1240.148040939195
  0
LINE
  5
E0
100
AcDbEntity
  8
Handle_Outline
  6
ByLayer
 62
  256
370
   -1
100
AcDbLine
 10
1707.050797187013
 20
-1200
 11
1707.050797187013
 21
-1240.411295844319
  0
LINE
  5
E1
100
AcDbEntity
  8
Handle_Outline
  6
ByLayer
 62
  256
370
   -1
100
AcDbLine
 10
1697.050797187013
 20
-1200
 11
1697.050797187013
 21
-1240.806349293364
  0
LINE
  5
E2
100
AcDbEntity
  8
Handle_Outline
  6
ByLayer
 62
  256
370
   -1
100
AcDbLine
 10
1687.050797187013
 20
-1200
 11
1687.050797187013
 21
-1241.333407177018
  0
ARC
  5
E3
100
AcDbEntity
  8
Handle_Outline
  6
ByLayer
 62
  256
370
   -1
100
AcDbCircle
 10
1732.050807568877
 20
-2000
 40
760
100
AcDbArc
 50
86.60550209514096
 51
93.39449947297072
  0
LINE
  5
E4
100
AcDbEntity
  8
Handle_Outline
  6
ByLayer
 62
  256
370
   -1
100
AcDbLine
 10
932.0508075688767
 20
-1955
 11
973.3842135143028
 21
-1955.000010381864
  0
LINE
  5
E5
100
AcDbEntity
  8
Handle_Outline
  6
ByLayer
 62
  256
370
   -1
100
AcDbLine
 10
932.0508075688767
 20
-1965.000010381864
 11
972.857155905001
 21
-1965.000010381864
  0
LINE
  5
E6
100
AcDbEntity
  8
Handle_Outline
  6
ByLayer
 62
  256
370
   -1
100
AcDbLine
 10
932.0508075688767
 20
-1975.000010381864
 11
972.4621027298083
 21
-1975.000010381864
  0
LINE
  5
E7
100
AcDbEntity
  8
Handle_Outline
  6
ByLayer
 62
  256
370
   -1
100
AcDbLine
 10
932.0508075688767
 20
-1985.000010381864
 11
972.1988480981811
 21
-1985.000010381864
  0
LINE
  5
E8
100
AcDbEntity
  8
Handle_Outline
  6
ByLayer
 62
  256
370
   -1
100
AcDbLine
 10
932.0508075688767
 20
-1995.000010381864
 11
972.0672550469695
 21
-1995.000010381864
  0
LINE
  5
E9
100
AcDbEntity
  8
Handle_Outline
  6
ByLayer
 62
  256
370
   -1
100
AcDbLine
 10
932.0508075688767
 20
-2005.000010381864
 11
972.067255183576
 21
-2005.000010381864
  0
LINE
  5
EA
100
AcDbEntity
  8
Handle_Outline
  6
ByLayer
 62
  256
370
   -1
100
AcDbLine
 10
932.0508075688767
 20
-2015.000010381864
 11
972.1988485080713
 21
-2015.000010381864
  0
LINE
  5
EB
100
AcDbEntity
  8
Handle_Outline
  6
ByLayer
 62
  256
370
   -1
100
AcDbLine
 10
932.0508075688767
 20
-2025.000010381864
 11
972.4621034131957
 21
-2025.000010381863
  0
LINE
  5
EC
100
AcDbEntity
  8
Handle_Outline
  6
ByLayer
 62
  256
370
   -1
100
AcDbLine
 10
932.0508075688767
 20
-2035.000010381864
 11
972.8571568622408
 21
-2035.000010381864
  0
LINE
  5
ED
100
AcDbEntity
  8
Handle_Outline
  6
ByLayer
 62
  256
370
   -1
100
AcDbLine
 10
932.0508075688767
 20
-2045.000010381864
 11
973.3842147458947
 21
-2045.000010381864
  0
ARC
  5
EE
100
AcDbEntity
  8
Handle_Outline
  6
ByLayer
 62
  256
370
   -1
100
AcDbCircle
 10
1732.050807568877
 20
-2000
 40
760
100
AcDbArc
 50
176.605502095141
 51
183.3944994729707
  0
LINE
  5
EF
100
AcDbEntity
  8
Handle_Outline
  6
ByLayer
 62
  256
370
   -1
100
AcDbLine
 10
1687.050807568877
 20
-2800
 11
1687.05081795074
 21
-2758.666594054574
  0
LINE
  5
F0
100
AcDbEntity
  8
Handle_Outline
  6
ByLayer
 62
  256
370
   -1
100
AcDbLine
 10
1697.05081795074
 20
-2800
 11
1697.05081795074
 21
-2759.193651663876
  0
LINE
  5
F1
100
AcDbEntity
  8
Handle_Outline
  6
ByLayer
 62
  256
370
   -1
100
AcDbLine
 10
1707.05081795074
 20
-2800
 11
1707.05081795074
 21
-2759.588704839069
  0
LINE
  5
F2
100
AcDbEntity
  8
Handle_Outline
  6
ByLayer
 62
  256
370
   -1
100
AcDbLine
 10
1717.05081795074
 20
-2800
 11
1717.050817950741
 21
-2759.851959470696
  0
LINE
  5
F3
100
AcDbEntity
  8
Handle_Outline
  6
ByLayer
 62
  256
370
   -1
100
AcDbLine
 10
1727.05081795074
 20
-2800
 11
1727.05081795074
 21
-2759.983552521907
  0
LINE
  5
F4
100
AcDbEntity
  8
Handle_Outline
  6
ByLayer
 62
  256
370
   -1
100
AcDbLine
 10
1737.05081795074
 20
-2800
 11
1737.05081795074
 21
-2759.983552385301
  0
LINE
  5
F5
100
AcDbEntity
  8
Handle_Outline
  6
ByLayer
 62
  256
370
   -1
100
AcDbLine
 10
1747.05081795074
 20
-2800
 11
1747.05081795074
 21
-2759.851959060806
  0
LINE
  5
F6
100
AcDbEntity
  8
Handle_Outline
  6
ByLayer
 62
  256
370
   -1
100
AcDbLine
 10
1757.05081795074
 20
-2800
 11
1757.05081795074
 21
-2759.588704155681
  0
LINE
  5
F7
100
AcDbEntity
  8
Handle_Outline
  6
ByLayer
 62
  256
370
   -1
100
AcDbLine
 10
1767.05081795074
 20
-2800
 11
1767.05081795074
 21
-2759.193650706636
  0
LINE
  5
F8
100
AcDbEntity
  8
Handle_Outline
  6
ByLayer
 62
  256
370
   -1
100
AcDbLine
 10
1777.05081795074
 20
-2800
 11
1777.05081795074
 21
-2758.666592822982
  0
ARC
  5
F9
100
AcDbEntity
  8
Handle_Outline
  6
ByLayer
 62
  256
370
   -1
100
AcDbCircle
 10
1732.050807568877
 20
-2000
 40
760
100
AcDbArc
 50
266.6055020951409
 51
273.3944994729707
  0
LINE
  5
FA
100
AcDbEntity
  8
Handle_Outline
  6
ByLayer
 62
  256
370
   -1
100
AcDbLine
 10
2532.050807568877
 20
-2045
 11
2490.717401623451
 21
-2044.999989618136
  0
LINE
  5
FB
100
AcDbEntity
  8
Handle_Outline
  6
ByLayer
 62
  256
370
   -1
100
AcDbLine
 10
2532.050807568877
 20
-2034.999989618137
 11
2491.244459232752
 21
-2034.999989618137
  0
LINE
  5
FC
100
AcDbEntity
  8
Handle_Outline
  6
ByLayer
 62
  256
370
   -1
100
AcDbLine
 10
2532.050807568877
 20
-2024.999989618137
 11
2491.639512407945
 21
-2024.999989618136
  0
LINE
  5
FD
100
AcDbEntity
  8
Handle_Outline
  6
ByLayer
 62
  256
370
   -1
100
AcDbLine
 10
2532.050807568877
 20
-2014.999989618137
 11
2491.902767039573
 21
-2014.999989618136
  0
LINE
  5
FE
100
AcDbEntity
  8
Handle_Outline
  6
ByLayer
 62
  256
370
   -1
100
AcDbLine
 10
2532.050807568877
 20
-2004.999989618137
 11
2492.034360090784
 21
-2004.999989618137
  0
LINE
  5
FF
100
AcDbEntity
  8
Handle_Outline
  6
ByLayer
 62
  256
370
   -1
100
AcDbLine
 10
2532.050807568877
 20
-1994.999989618137
 11
2492.034359954177
 21
-1994.999989618137
  0
LINE
  5
100
100
AcDbEntity
  8
Handle_Outline
  6
ByLayer
 62
  256
370
   -1
100
AcDbLine
 10
2532.050807568877
 20
-1984.999989618137
 11
2491.902766629682
 21
-1984.999989618137
  0
LINE
  5
101
100
AcDbEntity
  8
Handle_Outline
  6
ByLayer
 62
  256
370
   -1
100
AcDbLine
 10
2532.050807568877
 20
-1974.999989618137
 11
2491.639511724558
 21
-1974.999989618137
  0
LINE
  5
102
100
AcDbEntity
  8
Handle_Outline
  6
ByLayer
 62
  256
370
   -1
100
AcDbLine
 10
2532.050807568877
 20
-1964.999989618137
 11
2491.244458275512
 21
-1964.999989618136
  0
LINE
  5
103
100
AcDbEntity
  8
Handle_Outline
  6
ByLayer
 62
  256
370
   -1
100
AcDbLine
 10
2532.050807568877
 20
-1954.999989618137
 11
2490.717400391859
 21
-1954.999989618136
  0
ARC
  5
104
100
AcDbEntity
  8
Handle_Outline
  6
ByLayer
 62
  256
370
   -1
100
AcDbCircle
 10
1732.050807568877
 20
-2000
 40
760
100
AcDbArc
 50
356.6055020951409
 51
3.394499472970716
  0
MTEXT
  5
105
100
AcDbEntity
  8
Text
  6
ByLayer
 62
  256
370
   -1
100
AcDbMText
 10
1732.050807568878
 20
1000
 30
0
 40
100
 41
1258.371409335597
 71
    5
 72
    1
  1
Hula-Hoop Swords,\PBy Felipe Lohan\PPinheiro da Silva
  7
standard
210
0
220
0
230
1
 50
0
 73
    2
 44
1
  0
MTEXT
  5
106
100
AcDbEntity
  8
Text
  6
ByLayer
 62
  256
370
   -1
100
AcDbMText
 10
3464.101615137755
 20
0
 30
0
 40
100
 41
655.5555555555861
 71
    5
 72
    1
  1
Triangular\Pversion
  7
standard
210
0
220
0
230
1
 50
0
 73
    2
 44
1
  0
MTEXT
  5
107
100
AcDbEntity
  8
Text
  6
ByLayer
 62
  256
370
   -1
100
AcDbMText
 10
0
 20
0
 30
0
 40
100
 41
455.5936527580262
 71
    5
 72
    1
  1
Dagger\Pversion
  7
standard
210
0
220
0
230
1
 50
0
 73
    2
 44
1
  0
MTEXT
  5
108
100
AcDbEntity
  8
Text
  6
ByLayer
 62
  256
370
   -1
100
AcDbMText
 10
1732.050807568877
 20
-2000
 30
0
 40
100
 41
688.8888888889071
 71
    5
 72
    1
  1
Traditional\PVersion
  7
standard
210
0
220
0
230
1
 50
0
 73
    2
 44
1
  0
ARC
  5
109
100
AcDbEntity
  8
Blade
  6
ByLayer
 62
  256
370
   -1
100
AcDbCircle
 10
-1020
 20
-250.2500000000002
 40
250.2500000000003
100
AcDbArc
 50
13.78484514786834
 51
89.99999999999997
  0
ARC
  5
10A
100
AcDbEntity
  8
Blade
  6
ByLayer
 62
  256
370
   -1
100
AcDbCircle
 10
-250.25
 20
1020
 40
250.25
100
AcDbArc
 50
283.7848453491903
 51
0
  0
ARC
  5
10B
100
AcDbEntity
  8
Blade
  6
ByLayer
 62
  256
370
   -1
100
AcDbCircle
 10
250.2499999999999
 20
1020
 40
250.2499999999999
100
AcDbArc
 50
179.9999999999999
 51
256.2151524882055
  0
ARC
  5
10C
100
AcDbEntity
  8
Blade
  6
ByLayer
 62
  256
370
   -1
100
AcDbCircle
 10
-250.2499999999997
 20
-1020
 40
250.2499999999998
100
AcDbArc
 50
360
 51
76.21515375502972
  0
ARC
  5
10D
100
AcDbEntity
  8
Blade
  6
ByLayer
 62
  256
370
   -1
100
AcDbCircle
 10
250.2499999999997
 20
-1020
 40
250.2500000000001
100
AcDbArc
 50
103.7848449781461
 51
180
  0
ARC
  5
10E
100
AcDbEntity
  8
Blade
  6
ByLayer
 62
  256
370
   -1
100
AcDbCircle
 10
-1020
 20
250.2499999999997
 40
250.2499999999998
100
AcDbArc
 50
270
 51
346.2151531216176
  0
ARC
  5
10F
100
AcDbEntity
  8
Blade
  6
ByLayer
 62
  256
370
   -1
100
AcDbCircle
 10
1020
 20
-250.2499999999992
 40
250.2499999999998
100
AcDbArc
 50
90
 51
166.2151531216176
  0
ARC
  5
110
100
AcDbEntity
  8
Blade
  6
ByLayer
 62
  256
370
   -1
100
AcDbCircle
 10
0
 20
0
 40
800
100
AcDbArc
 50
103.7848465251815
 51
166.215153953169
  0
ARC
  5
111
100
AcDbEntity
  8
Blade
  6
ByLayer
 62
  256
370
   -1
100
AcDbCircle
 10
0
 20
0
 40
800
100
AcDbArc
 50
283.7848466412487
 51
346.215153953169
  0
ARC
  5
112
100
AcDbEntity
  8
Blade
  6
ByLayer
 62
  256
370
   -1
100
AcDbCircle
 10
0
 20
0
 40
800
100
AcDbArc
 50
193.7848465881575
 51
256.2151537550297
  0
ARC
  5
113
100
AcDbEntity
  8
Blade
  6
ByLayer
 62
  256
370
   -1
100
AcDbCircle
 10
1020
 20
250.2500000000006
 40
250.25
100
AcDbArc
 50
193.7848462449703
 51
270
  0
ARC
  5
114
100
AcDbEntity
  8
Blade
  6
ByLayer
 62
  256
370
   -1
100
AcDbCircle
 10
0
 20
0
 40
800
100
AcDbArc
 50
13.78484624497033
 51
76.21515415130818
  0
CIRCLE
  5
115
100
AcDbEntity
  8
Blade
  6
ByLayer
 62
  256
370
   -1
100
AcDbCircle
 10
0
 20
5.968558980384842e-13
 40
0
  0
CIRCLE
  5
116
100
AcDbEntity
  8
Blade
  6
ByLayer
 62
  256
370
   -1
100
AcDbCircle
 10
0
 20
0
 40
760
  0
CIRCLE
  5
117
100
AcDbEntity
  8
Blade
  6
ByLayer
 62
  256
370
   -1
100
AcDbCircle
 10
3464.101615137755
 20
0
 40
760
  0
LINE
  5
118
100
AcDbEntity
  8
Blade
  6
ByLayer
 62
  256
370
   -1
100
AcDbLine
 10
4122.280922013929
 20
379.9999999999999
 11
4122.280922013929
 21
379.9999999999999
  0
LINE
  5
119
100
AcDbEntity
  8
Blade
  6
ByLayer
 62
  256
370
   -1
100
AcDbLine
 10
3464.101615137759
 20
1599.999999999993
 11
2078.460969082647
 21
-800.0000000000001
  0
LINE
  5
11A
100
AcDbEntity
  8
Blade
  6
ByLayer
 62
  256
370
   -1
100
AcDbLine
 10
3464.101615137759
 20
1599.999999999993
 11
4849.742261192858
 21
-800.0000000000001
  0
LINE
  5
11B
100
AcDbEntity
  8
Blade
  6
ByLayer
 62
  256
370
   -1
100
AcDbLine
 10
4849.742261192858
 20
-800.0000000000001
 11
2078.460969082647
 21
-800.0000000000001
  0
CIRCLE
  5
11C
100
AcDbEntity
  8
Blade
  6
ByLayer
 62
  256
370
   -1
100
AcDbCircle
 10
1732.050807568877
 20
-1999.999999999999
 40
0
  0
CIRCLE
  5
11D
100
AcDbEntity
  8
Blade
  6
ByLayer
 62
  256
370
   -1
100
AcDbCircle
 10
1732.050807568877
 20
-2000
 40
760
  0
ARC
  5
11E
100
AcDbEntity
  8
Blade
  6
ByLayer
 62
  256
370
   -1
100
AcDbCircle
 10
1732.050807568878
 20
-2238.994949366214
 40
631.0050506337852
100
AcDbArc
 50
224.9999999999999
 51
314.9999999999999
  0
ARC
  5
11F
100
AcDbEntity
  8
Blade
  6
ByLayer
 62
  256
370
   -1
100
AcDbCircle
 10
1732.050807568877
 20
-1761.005050633781
 40
631.0050506337807
100
AcDbArc
 50
44.99999999999992
 51
134.9999999999999
  0
ARC
  5
120
100
AcDbEntity
  8
Blade
  6
ByLayer
 62
  256
370
   -1
100
AcDbCircle
 10
1493.055858202769
 20
-2000.000000000077
 40
631.0050506338918
100
AcDbArc
 50
134.999999999997
 51
225.0000000000028
  0
ARC
  5
121
100
AcDbEntity
  8
Blade
  6
ByLayer
 62
  256
370
   -1
100
AcDbCircle
 10
1971.045756934906
 20
-2000.00000000008
 40
631.0050506339708
100
AcDbArc
 50
314.999999999997
 51
45.00000000000275
  0
LINE
  5
122
100
AcDbEntity
  8
Blade
  6
ByLayer
 62
  256
370
   -1
100
AcDbLine
 10
1046.867907936607
 20
-1553.812049733868
 11
1285.862857302771
 21
-1314.817100367673
  0
LINE
  5
123
100
AcDbEntity
  8
Blade
  6
ByLayer
 62
  256
370
   -1
100
AcDbLine
 10
2178.238757834984
 20
-1314.817100367674
 11
2417.233707201126
 21
-1553.812049733817
  0
LINE
  5
124
100
AcDbEntity
  8
Blade
  6
ByLayer
 62
  256
370
   -1
100
AcDbLine
 10
2417.233707201125
 20
-2446.187950266344
 11
2178.238757834988
 21
-2685.182899632325
  0
LINE
  5
125
100
AcDbEntity
  8
Blade
  6
ByLayer
 62
  256
370
   -1
100
AcDbLine
 10
1285.862857302767
 20
-2685.182899632323
 11
1046.867907936606
 21
-2446.187950266285
  0
ENDSEC
  0
SECTION
  2
OBJECTS
  0
DICTIONARY
  5
C
330
0
100
AcDbDictionary
281
    1
  3
ACAD_GROUP
350
D
  0
DICTIONARY
  5
D
330
C
100
AcDbDictionary
281
    1
  0
PLOTSETTINGS
  5
126
100
AcDbPlotSettings
  6
1x1
 40
0
 41
0
 42
0
 43
0
  0
ENDSEC
  0
EOF
