999
dxfrw 0.6.3
  0
SECTION
  2
HEADER
  9
$ACADVER
  1
AC1021
  9
$DWGCODEPAGE
  3
ANSI_1252
  9
$INSBASE
 10
0
 20
0
 30
0
  9
$EXTMIN
 10
-4814.101615137754
 20
-1500
 30
0
  9
$EXTMAX
 10
866.0254037844397
 20
1300
 30
0
  9
$LIMMIN
 10
0
 20
0
  9
$LIMMAX
 10
420
 20
297
  9
$ORTHOMODE
 70
    0
  9
$REGENMODE
 70
    1
  9
$FILLMODE
 70
    1
  9
$QTEXTMODE
 70
    0
  9
$MIRRTEXT
 70
    0
  9
$LTSCALE
 40
1
  9
$ATTMODE
 70
    0
  9
$TEXTSIZE
 40
2.5
  9
$TRACEWID
 40
15.68
  9
$TEXTSTYLE
  7
STANDARD
  9
$CLAYER
  8
Shield_Boss-Spike
  9
$CELTYPE
  6
BYLAYER
  9
$CECOLOR
 62
  256
  9
$CELTSCALE
 40
1
  9
$DISPSILH
 70
    0
  9
$DIMSCALE
 40
2.5
  9
$DIMASZ
 40
2.5
  9
$DIMEXO
 40
0.625
  9
$DIMDLI
 40
3.75
  9
$DIMRND
 40
0
  9
$DIMDLE
 40
0
  9
$DIMEXE
 40
1.25
  9
$DIMTP
 40
0
  9
$DIMTM
 40
0
  9
$DIMTXT
 40
2.5
  9
$DIMCEN
 40
2.5
  9
$DIMTSZ
 40
0
  9
$DIMTOL
 70
    0
  9
$DIMLIM
 70
    0
  9
$DIMTIH
 70
    0
  9
$DIMTOH
 70
    0
  9
$DIMSE1
 70
    0
  9
$DIMSE2
 70
    0
  9
$DIMTAD
 70
    1
  9
$DIMZIN
 70
    8
  9
$DIMBLK
  1

  9
$DIMASO
 70
    1
  9
$DIMSHO
 70
    1
  9
$DIMPOST
  1

  9
$DIMAPOST
  1

  9
$DIMALT
 70
    0
  9
$DIMALTD
 70
    3
  9
$DIMALTF
 40
0.03937
  9
$DIMLFAC
 40
1
  9
$DIMTOFL
 70
    1
  9
$DIMTVP
 40
0
  9
$DIMTIX
 70
    0
  9
$DIMSOXD
 70
    0
  9
$DIMSAH
 70
    0
  9
$DIMBLK1
  1

  9
$DIMBLK2
  1

  9
$DIMSTYLE
  2
STANDARD
  9
$DIMCLRD
 70
    0
  9
$DIMCLRE
 70
    0
  9
$DIMCLRT
 70
    0
  9
$DIMTFAC
 40
1
  9
$DIMGAP
 40
0.625
  9
$DIMJUST
 70
    0
  9
$DIMSD1
 70
    0
  9
$DIMSD2
 70
    0
  9
$DIMTOLJ
 70
    0
  9
$DIMTZIN
 70
    8
  9
$DIMALTZ
 70
    0
  9
$DIMALTTZ
 70
    0
  9
$DIMUPT
 70
    0
  9
$DIMDEC
 70
    4
  9
$DIMTDEC
 70
    2
  9
$DIMALTU
 70
    2
  9
$DIMALTTD
 70
    3
  9
$DIMTXSTY
  7
STANDARD
  9
$DIMAUNIT
 70
    0
  9
$DIMADEC
 70
    2
  9
$DIMALTRND
 40
0
  9
$DIMAZIN
 70
    0
  9
$DIMDSEP
 70
   44
  9
$DIMATFIT
 70
    3
  9
$DIMFRAC
 70
    0
  9
$DIMLDRBLK
  1
STANDARD
  9
$DIMLUNIT
 70
    2
  9
$DIMLWD
 70
   -2
  9
$DIMLWE
 70
   -2
  9
$DIMTMOVE
 70
    0
  9
$DIMFXL
 40
1
  9
$DIMFXLON
 70
    0
  9
$DIMJOGANG
 40
0.7854
  9
$DIMTFILL
 70
    0
  9
$DIMTFILLCLR
 70
    0
  9
$DIMARCSYM
 70
    0
  9
$DIMLTYPE
  6

  9
$DIMLTEX1
  6

  9
$DIMLTEX2
  6

  9
$LUNITS
 70
    2
  9
$LUPREC
 70
    4
  9
$SKETCHINC
 40
1
  9
$FILLETRAD
 40
0
  9
$AUNITS
 70
    0
  9
$AUPREC
 70
    2
  9
$MENU
  1
.
  9
$ELEVATION
 40
0
  9
$PELEVATION
 40
0
  9
$THICKNESS
 40
0
  9
$LIMCHECK
 70
    0
  9
$CHAMFERA
 40
0
  9
$CHAMFERB
 40
0
  9
$CHAMFERC
 40
0
  9
$CHAMFERD
 40
0
  9
$SKPOLY
 70
    0
  9
$USRTIMER
 70
    1
  9
$ANGBASE
 50
0
  9
$ANGDIR
 70
    0
  9
$PDMODE
 70
   34
  9
$PDSIZE
 40
0
  9
$PLINEWID
 40
0
  9
$SPLFRAME
 70
    0
  9
$SPLINETYPE
 70
    2
  9
$SPLINESEGS
 70
    8
  9
$HANDSEED
  5
20000
  9
$SURFTAB1
 70
    6
  9
$SURFTAB2
 70
    6
  9
$SURFTYPE
 70
    6
  9
$SURFU
 70
    6
  9
$SURFV
 70
    6
  9
$UCSBASE
  2

  9
$UCSNAME
  2

  9
$UCSORG
 10
0
 20
0
 30
0
  9
$UCSXDIR
 10
1
 20
0
 30
0
  9
$UCSYDIR
 10
0
 20
1
 30
0
  9
$UCSORTHOREF
  2

  9
$UCSORTHOVIEW
 70
    0
  9
$UCSORGTOP
 10
0
 20
0
 30
0
  9
$UCSORGBOTTOM
 10
0
 20
0
 30
0
  9
$UCSORGLEFT
 10
0
 20
0
 30
0
  9
$UCSORGRIGHT
 10
0
 20
0
 30
0
  9
$UCSORGFRONT
 10
0
 20
0
 30
0
  9
$UCSORGBACK
 10
0
 20
0
 30
0
  9
$PUCSBASE
  2

  9
$PUCSNAME
  2

  9
$PUCSORG
 10
0
 20
0
 30
0
  9
$PUCSXDIR
 10
1
 20
0
 30
0
  9
$PUCSYDIR
 10
0
 20
1
 30
0
  9
$PUCSORTHOREF
  2

  9
$PUCSORTHOVIEW
 70
    0
  9
$PUCSORGTOP
 10
0
 20
0
 30
0
  9
$PUCSORGBOTTOM
 10
0
 20
0
 30
0
  9
$PUCSORGLEFT
 10
0
 20
0
 30
0
  9
$PUCSORGRIGHT
 10
0
 20
0
 30
0
  9
$PUCSORGFRONT
 10
0
 20
0
 30
0
  9
$PUCSORGBACK
 10
0
 20
0
 30
0
  9
$USERI1
 70
    0
  9
$USERI2
 70
    0
  9
$USERI3
 70
    0
  9
$USERI4
 70
    0
  9
$USERI5
 70
    0
  9
$USERR1
 40
0
  9
$USERR2
 40
0
  9
$USERR3
 40
0
  9
$USERR4
 40
0
  9
$USERR5
 40
0
  9
$WORLDVIEW
 70
    1
  9
$SHADEDGE
 70
    3
  9
$SHADEDIF
 70
   70
  9
$TILEMODE
 70
    1
  9
$MAXACTVP
 70
   64
  9
$PINSBASE
 10
0
 20
0
 30
0
  9
$PLIMCHECK
 70
    0
  9
$PEXTMIN
 10
0
 20
0
 30
0
  9
$PEXTMAX
 10
0
 20
0
 30
0
  9
$GRIDMODE
 70
    1
  9
$SNAPSTYLE
 70
    1
  9
$PLIMMIN
 10
0
 20
0
  9
$PLIMMAX
 10
297
 20
210
  9
$UNITMODE
 70
    0
  9
$VISRETAIN
 70
    1
  9
$PLINEGEN
 70
    0
  9
$PSLTSCALE
 70
    1
  9
$TREEDEPTH
 70
 3020
  9
$CMLSTYLE
  2
Standard
  9
$CMLJUST
 70
    0
  9
$CMLSCALE
 40
20
  9
$PROXYGRAPHICS
 70
    1
  9
$MEASUREMENT
 70
    1
  9
$CELWEIGHT
370
   -1
  9
$ENDCAPS
280
    0
  9
$JOINSTYLE
280
    0
  9
$LWDISPLAY
290
    0
  9
$INSUNITS
 70
    0
  9
$HYPERLINKBASE
  1

  9
$STYLESHEET
  1

  9
$XEDIT
290
    1
  9
$CEPSNTYPE
380
    0
  9
$PSTYLEMODE
290
    1
  9
$EXTNAMES
290
    1
  9
$PSVPSCALE
 40
0
  9
$OLESTARTUP
290
    0
  9
$SORTENTS
280
  127
  9
$INDEXCTL
280
    0
  9
$HIDETEXT
280
    1
  9
$XCLIPFRAME
290
    0
  9
$HALOGAP
280
    0
  9
$OBSCOLOR
 70
  257
  9
$OBSLTYPE
280
    0
  9
$INTERSECTIONDISPLAY
280
    0
  9
$INTERSECTIONCOLOR
 70
  257
  9
$DIMASSOC
280
    1
  9
$PROJECTNAME
  1

  9
$CAMERADISPLAY
290
    0
  9
$LENSLENGTH
 40
50
  9
$CAMERAHEIGHT
 40
0
  9
$STEPSPERSEC
 40
2
  9
$STEPSIZE
 40
50
  9
$3DDWFPREC
 40
2
  9
$PSOLWIDTH
 40
5
  9
$PSOLHEIGHT
 40
80
  9
$LOFTANG1
 40
1.570796326794897
  9
$LOFTANG2
 40
1.570796326794897
  9
$LOFTMAG1
 40
0
  9
$LOFTMAG2
 40
0
  9
$LOFTPARAM
 70
    7
  9
$LOFTNORMALS
280
    1
  9
$LATITUDE
 40
1
  9
$LONGITUDE
 40
1
  9
$NORTHDIRECTION
 40
0
  9
$TIMEZONE
 70
-8000
  9
$LIGHTGLYPHDISPLAY
280
    1
  9
$TILEMODELIGHTSYNCH
280
    1
  9
$SOLIDHIST
280
    1
  9
$SHOWHIST
280
    1
  9
$DWFFRAME
280
    2
  9
$DGNFRAME
280
    0
  9
$REALWORLDSCALE
290
    1
  9
$INTERFERECOLOR
 62
    1
  9
$CSHADOW
280
    0
  9
$SHADOWPLANELOCATION
 40
0
  0
ENDSEC
  0
SECTION
  2
CLASSES
  0
ENDSEC
  0
SECTION
  2
TABLES
  0
TABLE
  2
VPORT
  5
8
330
0
100
AcDbSymbolTable
 70
    1
  0
VPORT
  5
31
330
2
100
AcDbSymbolTableRecord
100
AcDbViewportTableRecord
  2
*ACTIVE
 70
    0
 10
0
 20
0
 11
1
 21
1
 12
951.219512195122
 22
675.609756097561
 13
0
 23
0
 14
10
 24
10
 15
10
 25
10
 16
0
 26
0
 36
1
 17
0
 27
0
 37
0
 40
2897.560975609756
 41
2.673400673400673
 42
50
 43
0
 44
0
 50
0
 51
0
 71
    0
 72
  100
 73
    1
 74
    3
 75
    0
 76
    1
 77
    1
 78
    0
281
    0
 65
    1
110
0
120
0
130
0
111
1
121
0
131
0
112
0
122
1
132
0
 79
    0
146
0
348
10020
 60
    7
 61
    5
292
1
282
    1
141
0
142
0
 63
  250
421
3358443
  0
ENDTAB
  0
TABLE
  2
LTYPE
  5
5
330
0
100
AcDbSymbolTable
 70
    4
  0
LTYPE
  5
14
330
5
100
AcDbSymbolTableRecord
100
AcDbLinetypeTableRecord
  2
ByBlock
 70
    0
  3

 72
   65
 73
    0
 40
0
  0
LTYPE
  5
15
330
5
100
AcDbSymbolTableRecord
100
AcDbLinetypeTableRecord
  2
ByLayer
 70
    0
  3

 72
   65
 73
    0
 40
0
  0
LTYPE
  5
16
330
5
100
AcDbSymbolTableRecord
100
AcDbLinetypeTableRecord
  2
Continuous
 70
    0
  3
Solid line
 72
   65
 73
    0
 40
0
  0
LTYPE
  5
32
330
5
100
AcDbSymbolTableRecord
100
AcDbLinetypeTableRecord
  2
DOT
 70
    0
  3
Dot . . . . . . . . . . . . . . . . . . . . . .
 72
   65
 73
    2
 40
6.35
 49
0
 74
    0
 49
-6.35
 74
    0
  0
LTYPE
  5
33
330
5
100
AcDbSymbolTableRecord
100
AcDbLinetypeTableRecord
  2
DOTTINY
 70
    0
  3
Dot (.15x) .....................................
 72
   65
 73
    2
 40
0.9525
 49
0
 74
    0
 49
-0.9525
 74
    0
  0
LTYPE
  5
34
330
5
100
AcDbSymbolTableRecord
100
AcDbLinetypeTableRecord
  2
DOT2
 70
    0
  3
Dot (.5x) .....................................
 72
   65
 73
    2
 40
3.175
 49
0
 74
    0
 49
-3.175
 74
    0
  0
LTYPE
  5
35
330
5
100
AcDbSymbolTableRecord
100
AcDbLinetypeTableRecord
  2
DOTX2
 70
    0
  3
Dot (2x) .  .  .  .  .  .  .  .  .  .  .  .  .
 72
   65
 73
    2
 40
12.7
 49
0
 74
    0
 49
-12.7
 74
    0
  0
LTYPE
  5
36
330
5
100
AcDbSymbolTableRecord
100
AcDbLinetypeTableRecord
  2
DASHED
 70
    0
  3
Dashed _ _ _ _ _ _ _ _ _ _ _ _ _ _ _ _ _
 72
   65
 73
    2
 40
19.05
 49
12.7
 74
    0
 49
-6.35
 74
    0
  0
LTYPE
  5
37
330
5
100
AcDbSymbolTableRecord
100
AcDbLinetypeTableRecord
  2
DASHEDTINY
 70
    0
  3
Dashed (.15x) _ _ _ _ _ _ _ _ _ _ _ _ _ _ _ _ _
 72
   65
 73
    2
 40
2.8575
 49
1.905
 74
    0
 49
-0.9525
 74
    0
  0
LTYPE
  5
38
330
5
100
AcDbSymbolTableRecord
100
AcDbLinetypeTableRecord
  2
DASHED2
 70
    0
  3
Dashed (.5x) _ _ _ _ _ _ _ _ _ _ _ _ _ _ _ _ _
 72
   65
 73
    2
 40
9.524999999999999
 49
6.35
 74
    0
 49
-3.175
 74
    0
  0
LTYPE
  5
39
330
5
100
AcDbSymbolTableRecord
100
AcDbLinetypeTableRecord
  2
DASHEDX2
 70
    0
  3
Dashed (2x) ____  ____  ____  ____  ____  ___
 72
   65
 73
    2
 40
38.09999999999999
 49
25.4
 74
    0
 49
-12.7
 74
    0
  0
LTYPE
  5
3A
330
5
100
AcDbSymbolTableRecord
100
AcDbLinetypeTableRecord
  2
DASHDOT
 70
    0
  3
Dash dot __ . __ . __ . __ . __ . __ . __ . __
 72
   65
 73
    4
 40
25.4
 49
12.7
 74
    0
 49
-6.35
 74
    0
 49
0
 74
    0
 49
-6.35
 74
    0
  0
LTYPE
  5
3B
330
5
100
AcDbSymbolTableRecord
100
AcDbLinetypeTableRecord
  2
DASHDOTTINY
 70
    0
  3
Dash dot (.15x) _._._._._._._._._._._._._._._.
 72
   65
 73
    4
 40
3.81
 49
1.905
 74
    0
 49
-0.9525
 74
    0
 49
0
 74
    0
 49
-0.9525
 74
    0
  0
LTYPE
  5
3C
330
5
100
AcDbSymbolTableRecord
100
AcDbLinetypeTableRecord
  2
DASHDOT2
 70
    0
  3
Dash dot (.5x) _._._._._._._._._._._._._._._.
 72
   65
 73
    4
 40
12.7
 49
6.35
 74
    0
 49
-3.175
 74
    0
 49
0
 74
    0
 49
-3.175
 74
    0
  0
LTYPE
  5
3D
330
5
100
AcDbSymbolTableRecord
100
AcDbLinetypeTableRecord
  2
DASHDOTX2
 70
    0
  3
Dash dot (2x) ____  .  ____  .  ____  .  ___
 72
   65
 73
    4
 40
50.8
 49
25.4
 74
    0
 49
-12.7
 74
    0
 49
0
 74
    0
 49
-12.7
 74
    0
  0
LTYPE
  5
3E
330
5
100
AcDbSymbolTableRecord
100
AcDbLinetypeTableRecord
  2
DIVIDE
 70
    0
  3
Divide ____ . . ____ . . ____ . . ____ . . ____
 72
   65
 73
    6
 40
31.75
 49
12.7
 74
    0
 49
-6.35
 74
    0
 49
0
 74
    0
 49
-6.35
 74
    0
 49
0
 74
    0
 49
-6.35
 74
    0
  0
LTYPE
  5
3F
330
5
100
AcDbSymbolTableRecord
100
AcDbLinetypeTableRecord
  2
DIVIDETINY
 70
    0
  3
Divide (.15x) __..__..__..__..__..__..__..__.._
 72
   65
 73
    6
 40
4.7625
 49
1.905
 74
    0
 49
-0.9525
 74
    0
 49
0
 74
    0
 49
-0.9525
 74
    0
 49
0
 74
    0
 49
-0.9525
 74
    0
  0
LTYPE
  5
40
330
5
100
AcDbSymbolTableRecord
100
AcDbLinetypeTableRecord
  2
DIVIDE2
 70
    0
  3
Divide (.5x) __..__..__..__..__..__..__..__.._
 72
   65
 73
    6
 40
15.875
 49
6.35
 74
    0
 49
-3.175
 74
    0
 49
0
 74
    0
 49
-3.175
 74
    0
 49
0
 74
    0
 49
-3.175
 74
    0
  0
LTYPE
  5
41
330
5
100
AcDbSymbolTableRecord
100
AcDbLinetypeTableRecord
  2
DIVIDEX2
 70
    0
  3
Divide (2x) ________  .  .  ________  .  .  _
 72
   65
 73
    6
 40
63.5
 49
25.4
 74
    0
 49
-12.7
 74
    0
 49
0
 74
    0
 49
-12.7
 74
    0
 49
0
 74
    0
 49
-12.7
 74
    0
  0
LTYPE
  5
42
330
5
100
AcDbSymbolTableRecord
100
AcDbLinetypeTableRecord
  2
BORDER
 70
    0
  3
Border __ __ . __ __ . __ __ . __ __ . __ __ .
 72
   65
 73
    6
 40
44.45
 49
12.7
 74
    0
 49
-6.35
 74
    0
 49
12.7
 74
    0
 49
-6.35
 74
    0
 49
0
 74
    0
 49
-6.35
 74
    0
  0
LTYPE
  5
43
330
5
100
AcDbSymbolTableRecord
100
AcDbLinetypeTableRecord
  2
BORDERTINY
 70
    0
  3
Border (.15x) __.__.__.__.__.__.__.__.__.__.__.
 72
   65
 73
    6
 40
6.6675
 49
1.905
 74
    0
 49
-0.9525
 74
    0
 49
1.905
 74
    0
 49
-0.9525
 74
    0
 49
0
 74
    0
 49
-0.9525
 74
    0
  0
LTYPE
  5
44
330
5
100
AcDbSymbolTableRecord
100
AcDbLinetypeTableRecord
  2
BORDER2
 70
    0
  3
Border (.5x) __.__.__.__.__.__.__.__.__.__.__.
 72
   65
 73
    6
 40
22.225
 49
6.35
 74
    0
 49
-3.175
 74
    0
 49
6.35
 74
    0
 49
-3.175
 74
    0
 49
0
 74
    0
 49
-3.175
 74
    0
  0
LTYPE
  5
45
330
5
100
AcDbSymbolTableRecord
100
AcDbLinetypeTableRecord
  2
BORDERX2
 70
    0
  3
Border (2x) ____  ____  .  ____  ____  .  ___
 72
   65
 73
    6
 40
88.89999999999999
 49
25.4
 74
    0
 49
-12.7
 74
    0
 49
25.4
 74
    0
 49
-12.7
 74
    0
 49
0
 74
    0
 49
-12.7
 74
    0
  0
LTYPE
  5
46
330
5
100
AcDbSymbolTableRecord
100
AcDbLinetypeTableRecord
  2
CENTER
 70
    0
  3
Center ____ _ ____ _ ____ _ ____ _ ____ _ ____
 72
   65
 73
    4
 40
50.8
 49
31.75
 74
    0
 49
-6.35
 74
    0
 49
6.35
 74
    0
 49
-6.35
 74
    0
  0
LTYPE
  5
47
330
5
100
AcDbSymbolTableRecord
100
AcDbLinetypeTableRecord
  2
CENTERTINY
 70
    0
  3
Center (.15x) ___ _ ___ _ ___ _ ___ _ ___ _ ___
 72
   65
 73
    4
 40
7.619999999999999
 49
4.7625
 74
    0
 49
-0.9525
 74
    0
 49
0.9525
 74
    0
 49
-0.9525
 74
    0
  0
LTYPE
  5
48
330
5
100
AcDbSymbolTableRecord
100
AcDbLinetypeTableRecord
  2
CENTER2
 70
    0
  3
Center (.5x) ___ _ ___ _ ___ _ ___ _ ___ _ ___
 72
   65
 73
    4
 40
28.575
 49
19.05
 74
    0
 49
-3.175
 74
    0
 49
3.175
 74
    0
 49
-3.175
 74
    0
  0
LTYPE
  5
49
330
5
100
AcDbSymbolTableRecord
100
AcDbLinetypeTableRecord
  2
CENTERX2
 70
    0
  3
Center (2x) ________  __  ________  __  _____
 72
   65
 73
    4
 40
101.6
 49
63.5
 74
    0
 49
-12.7
 74
    0
 49
12.7
 74
    0
 49
-12.7
 74
    0
  0
ENDTAB
  0
TABLE
  2
LAYER
  5
2
330
0
100
AcDbSymbolTable
 70
    1
  0
LAYER
  5
10
330
2
100
AcDbSymbolTableRecord
100
AcDbLayerTableRecord
  2
0
 70
    0
 62
    7
  6
CONTINUOUS
370
    0
390
F
  0
LAYER
  5
4A
330
2
100
AcDbSymbolTableRecord
100
AcDbLayerTableRecord
  2
Blade
 70
    0
 62
    3
  6
CONTINUOUS
370
    0
390
F
  0
LAYER
  5
4B
330
2
100
AcDbSymbolTableRecord
100
AcDbLayerTableRecord
  2
Leather_Straps_And_Dull_Blades
 70
    0
 62
   56
420
8421376
  6
CONTINUOUS
370
    0
390
F
  0
LAYER
  5
4C
330
2
100
AcDbSymbolTableRecord
100
AcDbLayerTableRecord
  2
Shield_Boss-Spike
 70
    0
 62
    6
  6
CONTINUOUS
370
    0
390
F
  0
LAYER
  5
4D
330
2
100
AcDbSymbolTableRecord
100
AcDbLayerTableRecord
  2
Spikes
 70
    0
 62
    4
  6
CONTINUOUS
370
    0
390
F
  0
LAYER
  5
4E
330
2
100
AcDbSymbolTableRecord
100
AcDbLayerTableRecord
  2
Text
 70
    0
 62
    7
  6
CONTINUOUS
370
    0
390
F
  0
ENDTAB
  0
TABLE
  2
STYLE
  5
3
330
0
100
AcDbSymbolTable
 70
    3
  0
STYLE
  5
4F
330
2
100
AcDbSymbolTableRecord
100
AcDbTextStyleTableRecord
  2
romanc
 70
    0
 40
0
 41
1
 50
0
 71
    0
 42
1
  3
romanc
  4

  0
STYLE
  5
50
330
2
100
AcDbSymbolTableRecord
100
AcDbTextStyleTableRecord
  2
Standard
 70
    0
 40
0
 41
1
 50
0
 71
    0
 42
1
  3
txt
  4

  0
ENDTAB
  0
TABLE
  2
VIEW
  5
6
330
0
100
AcDbSymbolTable
 70
    0
  0
ENDTAB
  0
TABLE
  2
UCS
  5
7
330
0
100
AcDbSymbolTable
 70
    0
  0
ENDTAB
  0
TABLE
  2
APPID
  5
9
330
0
100
AcDbSymbolTable
 70
    1
  0
APPID
  5
12
330
9
100
AcDbSymbolTableRecord
100
AcDbRegAppTableRecord
  2
ACAD
 70
    0
  0
APPID
  5
51
330
9
100
AcDbSymbolTableRecord
100
AcDbRegAppTableRecord
  2
LibreCad
 70
    0
  0
ENDTAB
  0
TABLE
  2
DIMSTYLE
  5
A
330
0
100
AcDbSymbolTable
 70
    1
100
AcDbDimStyleTable
 71
    1
  0
DIMSTYLE
105
52
330
A
100
AcDbSymbolTableRecord
100
AcDbDimStyleTableRecord
  2
Standard
 70
    0
 40
2.5
 41
2.5
 42
0.625
 43
0.38
 44
1.25
 45
0
 46
0
 47
0
 48
0
 49
1
140
2.5
141
0.09
142
0
143
25.4
144
1
145
0
146
1
147
0.625
148
0
 71
    0
 72
    0
 73
    0
 74
    1
 75
    0
 76
    0
 77
    0
 78
    8
 79
    0
170
    0
171
    2
172
    0
173
    0
174
    0
175
    0
176
    0
177
    0
178
    0
179
    2
271
    4
272
    4
273
    2
274
    2
275
    0
276
    0
277
    2
278
   44
279
    0
280
    0
281
    0
282
    0
283
    1
284
    0
285
    0
286
    0
288
    0
289
    3
340
50
  0
ENDTAB
  0
TABLE
  2
BLOCK_RECORD
  5
1
330
0
100
AcDbSymbolTable
 70
    2
  0
BLOCK_RECORD
  5
1F
330
1
100
AcDbSymbolTableRecord
100
AcDbBlockTableRecord
  2
*Model_Space
 70
    0
280
    1
281
    0
  0
BLOCK_RECORD
  5
1E
330
1
100
AcDbSymbolTableRecord
100
AcDbBlockTableRecord
  2
*Paper_Space
 70
    0
280
    1
281
    0
  0
ENDTAB
  0
ENDSEC
  0
SECTION
  2
BLOCKS
  0
BLOCK
  5
20
330
1F
100
AcDbEntity
  8
0
100
AcDbBlockBegin
  2
*Model_Space
 70
    0
 10
0
 20
0
 30
0
  3
*Model_Space
  1

  0
ENDBLK
  5
21
330
1F
100
AcDbEntity
  8
0
100
AcDbBlockEnd
  0
BLOCK
  5
1C
330
1B
100
AcDbEntity
  8
0
100
AcDbBlockBegin
  2
*Paper_Space
 70
    0
 10
0
 20
0
 30
0
  3
*Paper_Space
  1

  0
ENDBLK
  5
1D
330
1F
100
AcDbEntity
  8
0
100
AcDbBlockEnd
  0
ENDSEC
  0
SECTION
  2
ENTITIES
  0
LINE
  5
53
100
AcDbEntity
  8
Text
  6
ByLayer
 62
  256
370
   -1
100
AcDbLine
 10
866.0254037844397
 20
-1500
 11
866.0254037844397
 21
-500
  0
LINE
  5
54
100
AcDbEntity
  8
Text
  6
ByLayer
 62
  256
370
   -1
100
AcDbLine
 10
-4814.101615137754
 20
-1500
 11
866.0254037844397
 21
-1500
  0
LINE
  5
55
100
AcDbEntity
  8
Text
  6
ByLayer
 62
  256
370
   -1
100
AcDbLine
 10
866.0254037844397
 20
-500
 11
-4814.101615137754
 21
-500
  0
LINE
  5
56
100
AcDbEntity
  8
Text
  6
ByLayer
 62
  256
370
   -1
100
AcDbLine
 10
-4814.101615137754
 20
-500
 11
-4814.101615137754
 21
-1500
  0
CIRCLE
  5
57
100
AcDbEntity
  8
Shield_Boss-Spike
  6
ByLayer
 62
  256
370
   -1
100
AcDbCircle
 10
-4364.101615137754
 20
650
 40
150
  0
CIRCLE
  5
58
100
AcDbEntity
  8
Shield_Boss-Spike
  6
ByLayer
 62
  256
370
   -1
100
AcDbCircle
 10
-4364.101615137754
 20
650
 40
75
  0
CIRCLE
  5
59
100
AcDbEntity
  8
Spikes
  6
ByLayer
 62
  256
370
   -1
100
AcDbCircle
 10
-4364.101615137754
 20
650
 40
25
  0
MTEXT
  5
5A
100
AcDbEntity
  8
Text
  6
ByLayer
 62
  256
370
   -1
100
AcDbMText
 10
-4347.114317029974
 20
-150
 30
0
 40
50
 41
810.119
 71
    5
 72
    1
  1
Frontal\P(stripped-down)
  7
romanc
210
0
220
0
230
1
 50
0
 73
    2
 44
1
  0
LINE
  5
5B
100
AcDbEntity
  8
0
  6
ByLayer
 62
  256
370
   -1
100
AcDbLine
 10
120.5771365940045
 20
0
 11
120.5771365940046
 21
1300
  0
LINE
  5
5C
100
AcDbEntity
  8
0
  6
ByLayer
 62
  256
370
   -1
100
AcDbLine
 10
-779.4228634059955
 20
1300
 11
-779.4228634059957
 21
0
  0
LINE
  5
5D
100
AcDbEntity
  8
0
  6
ByLayer
 62
  256
370
   -1
100
AcDbLine
 10
-779.4228634059955
 20
1300
 11
-479.4228634059954
 21
1300
  0
LINE
  5
5E
100
AcDbEntity
  8
0
  6
ByLayer
 62
  256
370
   -1
100
AcDbLine
 10
-179.4228634059954
 20
1300
 11
120.5771365940046
 21
1300
  0
LINE
  5
5F
100
AcDbEntity
  8
0
  6
ByLayer
 62
  256
370
   -1
100
AcDbLine
 10
120.5771365940045
 20
0
 11
-179.4228634059955
 21
3.673940397442059e-14
  0
LINE
  5
60
100
AcDbEntity
  8
0
  6
ByLayer
 62
  256
370
   -1
100
AcDbLine
 10
-479.4228634059957
 20
-7.347880794884119e-14
 11
-779.4228634059957
 21
0
  0
LINE
  5
61
100
AcDbEntity
  8
0
  6
ByLayer
 62
  256
370
   -1
100
AcDbLine
 10
536.602540378443
 20
1300
 11
536.6025403784432
 21
0
  0
LINE
  5
62
100
AcDbEntity
  8
0
  6
ByLayer
 62
  256
370
   -1
100
AcDbLine
 10
536.602540378443
 20
1300
 11
549.102540378443
 21
1300
  0
LINE
  5
63
100
AcDbEntity
  8
0
  6
ByLayer
 62
  256
370
   -1
100
AcDbLine
 10
536.6025403784432
 20
0
 11
549.1025403784432
 21
-3.061616997868383e-15
  0
LINE
  5
64
100
AcDbEntity
  8
0
  6
ByLayer
 62
  256
370
   -1
100
AcDbLine
 10
549.1025403784432
 20
500
 11
549.1025403784432
 21
-3.061616997868383e-15
  0
LINE
  5
65
100
AcDbEntity
  8
0
  6
ByLayer
 62
  256
370
   -1
100
AcDbLine
 10
549.102540378443
 20
1300
 11
549.1025403784432
 21
800
  0
LINE
  5
66
100
AcDbEntity
  8
Shield_Boss-Spike
  6
ByLayer
 62
  256
370
   -1
100
AcDbLine
 10
549.1025403784432
 20
800
 11
549.1025403784432
 21
500
  0
LINE
  5
67
100
AcDbEntity
  8
Spikes
  6
ByLayer
 62
  256
370
   -1
100
AcDbLine
 10
624.1025403784433
 20
625
 11
624.1025403784431
 21
675
  0
ARC
  5
68
100
AcDbEntity
  8
Shield_Boss-Spike
  6
ByLayer
 62
  256
370
   -1
100
AcDbCircle
 10
549.1025403784432
 20
650
 40
75
100
AcDbArc
 50
36.86989764584379
 51
89.9999999999999
  0
ARC
  5
69
100
AcDbEntity
  8
Shield_Boss-Spike
  6
ByLayer
 62
  256
370
   -1
100
AcDbCircle
 10
549.1025403784432
 20
650
 40
75
100
AcDbArc
 50
270.0000000000001
 51
323.1301023541557
  0
LINE
  5
6A
100
AcDbEntity
  8
Shield_Boss-Spike
  6
ByLayer
 62
  256
370
   -1
100
AcDbLine
 10
609.1025403784435
 20
694.9999999999998
 11
624.1025403784431
 21
675
  0
LINE
  5
6B
100
AcDbEntity
  8
Shield_Boss-Spike
  6
ByLayer
 62
  256
370
   -1
100
AcDbLine
 10
609.102540378443
 20
604.9999999999998
 11
624.1025403784433
 21
625
  0
LINE
  5
6C
100
AcDbEntity
  8
Spikes
  6
ByLayer
 62
  256
370
   -1
100
AcDbLine
 10
624.1025403784431
 20
675
 11
774.1025403784436
 21
650
  0
LINE
  5
6D
100
AcDbEntity
  8
Spikes
  6
ByLayer
 62
  256
370
   -1
100
AcDbLine
 10
774.1025403784436
 20
650
 11
624.1025403784431
 21
625
  0
LINE
  5
6E
100
AcDbEntity
  8
Leather_Straps_And_Dull_Blades
  6
ByLayer
 62
  256
370
   -1
100
AcDbLine
 10
-116.9228634059955
 20
500
 11
-116.9228634059955
 21
800
  0
LINE
  5
6F
100
AcDbEntity
  8
Leather_Straps_And_Dull_Blades
  6
ByLayer
 62
  256
370
   -1
100
AcDbLine
 10
-91.92286340599549
 20
500
 11
-91.92286340599549
 21
800
  0
LINE
  5
70
100
AcDbEntity
  8
Leather_Straps_And_Dull_Blades
  6
ByLayer
 62
  256
370
   -1
100
AcDbLine
 10
-566.9228634059955
 20
800
 11
-566.9228634059955
 21
500
  0
LINE
  5
71
100
AcDbEntity
  8
Leather_Straps_And_Dull_Blades
  6
ByLayer
 62
  256
370
   -1
100
AcDbLine
 10
-541.9228634059955
 20
800
 11
-541.9228634059955
 21
500
  0
LINE
  5
72
100
AcDbEntity
  8
Leather_Straps_And_Dull_Blades
  6
ByLayer
 62
  256
370
   -1
100
AcDbLine
 10
-566.9228634059955
 20
800
 11
-541.9228634059955
 21
800
  0
LINE
  5
73
100
AcDbEntity
  8
Leather_Straps_And_Dull_Blades
  6
ByLayer
 62
  256
370
   -1
100
AcDbLine
 10
-566.9228634059955
 20
500
 11
-541.9228634059955
 21
500
  0
LINE
  5
74
100
AcDbEntity
  8
Leather_Straps_And_Dull_Blades
  6
ByLayer
 62
  256
370
   -1
100
AcDbLine
 10
-116.9228634059955
 20
500
 11
-91.92286340599549
 21
500
  0
LINE
  5
75
100
AcDbEntity
  8
Leather_Straps_And_Dull_Blades
  6
ByLayer
 62
  256
370
   -1
100
AcDbLine
 10
-116.9228634059955
 20
800
 11
-91.92286340599549
 21
800
  0
ARC
  5
76
100
AcDbEntity
  8
Leather_Straps_And_Dull_Blades
  6
ByLayer
 62
  256
370
   -1
100
AcDbCircle
 10
599.102540378443
 20
650
 40
159.9999999999999
100
AcDbArc
 50
112.9933943142976
 51
247.0066056857023
  0
ARC
  5
77
100
AcDbEntity
  8
Leather_Straps_And_Dull_Blades
  6
ByLayer
 62
  256
370
   -1
100
AcDbCircle
 10
599.102540378443
 20
650
 40
164.9999999999999
100
AcDbArc
 50
112.2586212738333
 51
247.7413787261667
  0
LINE
  5
78
100
AcDbEntity
  8
0
  6
ByLayer
 62
  256
370
   -1
100
AcDbLine
 10
-1195.448267190434
 20
0
 11
-1195.448267190434
 21
1300
  0
LINE
  5
79
100
AcDbEntity
  8
0
  6
ByLayer
 62
  256
370
   -1
100
AcDbLine
 10
-2095.448267190435
 20
1300
 11
-2095.448267190435
 21
0
  0
LINE
  5
7A
100
AcDbEntity
  8
0
  6
ByLayer
 62
  256
370
   -1
100
AcDbLine
 10
-2095.448267190435
 20
1300
 11
-1795.448267190435
 21
1300
  0
LINE
  5
7B
100
AcDbEntity
  8
0
  6
ByLayer
 62
  256
370
   -1
100
AcDbLine
 10
-1495.448267190435
 20
1300
 11
-1195.448267190434
 21
1300
  0
LINE
  5
7C
100
AcDbEntity
  8
0
  6
ByLayer
 62
  256
370
   -1
100
AcDbLine
 10
-1195.448267190434
 20
0
 11
-1495.448267190435
 21
3.673940397442059e-14
  0
LINE
  5
7D
100
AcDbEntity
  8
0
  6
ByLayer
 62
  256
370
   -1
100
AcDbLine
 10
-1795.448267190435
 20
-7.347880794884119e-14
 11
-2095.448267190435
 21
0
  0
CIRCLE
  5
7E
100
AcDbEntity
  8
Shield_Boss-Spike
  6
ByLayer
 62
  256
370
   -1
100
AcDbCircle
 10
-1645.448267190435
 20
650
 40
150
  0
CIRCLE
  5
7F
100
AcDbEntity
  8
Shield_Boss-Spike
  6
ByLayer
 62
  256
370
   -1
100
AcDbCircle
 10
-1645.448267190435
 20
650
 40
75
  0
CIRCLE
  5
80
100
AcDbEntity
  8
Spikes
  6
ByLayer
 62
  256
370
   -1
100
AcDbCircle
 10
-1945.448267190435
 20
150
 40
25
  0
CIRCLE
  5
81
100
AcDbEntity
  8
Spikes
  6
ByLayer
 62
  256
370
   -1
100
AcDbCircle
 10
-1345.448267190435
 20
150
 40
25
  0
CIRCLE
  5
82
100
AcDbEntity
  8
Spikes
  6
ByLayer
 62
  256
370
   -1
100
AcDbCircle
 10
-1945.448267190435
 20
1150
 40
25
  0
CIRCLE
  5
83
100
AcDbEntity
  8
Spikes
  6
ByLayer
 62
  256
370
   -1
100
AcDbCircle
 10
-1345.448267190435
 20
1150
 40
25
  0
CIRCLE
  5
84
100
AcDbEntity
  8
Spikes
  6
ByLayer
 62
  256
370
   -1
100
AcDbCircle
 10
-1645.448267190435
 20
650
 40
25
  0
MTEXT
  5
85
100
AcDbEntity
  8
Text
  6
ByLayer
 62
  256
370
   -1
100
AcDbMText
 10
-416.0254037844392
 20
-150
 30
0
 40
100
 41
422.6193333333333
 71
    5
 72
    1
  1
Back
  7
romanc
210
0
220
0
230
1
 50
0
 73
    2
 44
1
  0
MTEXT
  5
86
100
AcDbEntity
  8
Text
  6
ByLayer
 62
  256
370
   -1
100
AcDbMText
 10
449.9999999999991
 20
-150
 30
0
 40
100
 41
370.2382222222221
 71
    5
 72
    1
  1
Side
  7
romanc
210
0
220
0
230
1
 50
0
 73
    2
 44
1
  0
MTEXT
  5
87
100
AcDbEntity
  8
Text
  6
ByLayer
 62
  256
370
   -1
100
AcDbMText
 10
-1628.460969082653
 20
-150
 30
0
 40
100
 41
702.3810000000003
 71
    5
 72
    1
  1
Frontal
  7
romanc
210
0
220
0
230
1
 50
0
 73
    2
 44
1
  0
LINE
  5
88
100
AcDbEntity
  8
Shield_Boss-Spike
  6
ByLayer
 62
  256
370
   -1
100
AcDbLine
 10
-2498.973670974872
 20
800
 11
-2498.973670974872
 21
500
  0
LINE
  5
89
100
AcDbEntity
  8
Spikes
  6
ByLayer
 62
  256
370
   -1
100
AcDbLine
 10
-2423.973670974872
 20
625
 11
-2423.973670974872
 21
675
  0
ARC
  5
8A
100
AcDbEntity
  8
Shield_Boss-Spike
  6
ByLayer
 62
  256
370
   -1
100
AcDbCircle
 10
-2498.973670974872
 20
650
 40
75
100
AcDbArc
 50
36.86989764584379
 51
89.9999999999999
  0
ARC
  5
8B
100
AcDbEntity
  8
Shield_Boss-Spike
  6
ByLayer
 62
  256
370
   -1
100
AcDbCircle
 10
-2498.973670974872
 20
650
 40
75
100
AcDbArc
 50
270.0000000000001
 51
323.1301023541557
  0
LINE
  5
8C
100
AcDbEntity
  8
Shield_Boss-Spike
  6
ByLayer
 62
  256
370
   -1
100
AcDbLine
 10
-2438.973670974872
 20
694.9999999999998
 11
-2423.973670974872
 21
675
  0
LINE
  5
8D
100
AcDbEntity
  8
Shield_Boss-Spike
  6
ByLayer
 62
  256
370
   -1
100
AcDbLine
 10
-2438.973670974873
 20
604.9999999999998
 11
-2423.973670974872
 21
625
  0
LINE
  5
8E
100
AcDbEntity
  8
Spikes
  6
ByLayer
 62
  256
370
   -1
100
AcDbLine
 10
-2423.973670974872
 20
675
 11
-2273.973670974872
 21
650
  0
LINE
  5
8F
100
AcDbEntity
  8
Spikes
  6
ByLayer
 62
  256
370
   -1
100
AcDbLine
 10
-2273.973670974872
 20
650
 11
-2423.973670974872
 21
625
  0
MTEXT
  5
90
100
AcDbEntity
  8
Text
  6
ByLayer
 62
  256
370
   -1
100
AcDbMText
 10
-2494.486372867093
 20
-150
 30
0
 40
45
 41
729.1071000000001
 71
    5
 72
    1
  1
Side\P(stripped-down)
  7
romanc
210
0
220
0
230
1
 50
0
 73
    2
 44
1
  0
MTEXT
  5
91
100
AcDbEntity
  8
Text
  6
ByLayer
 62
  256
370
   -1
100
AcDbMText
 10
-3360.51177665153
 20
-150
 30
0
 40
50
 41
810.119
 71
    5
 72
    1
  1
Back\P(stripped-down)
  7
romanc
210
0
220
0
230
1
 50
0
 73
    2
 44
1
  0
LINE
  5
92
100
AcDbEntity
  8
Blade
  6
ByLayer
 62
  256
370
   -1
100
AcDbLine
 10
-2498.973670974873
 20
1274.999999999999
 11
-2498.973670974872
 21
800
  0
LINE
  5
93
100
AcDbEntity
  8
Blade
  6
ByLayer
 62
  256
370
   -1
100
AcDbLine
 10
-2498.973670974872
 20
500
 11
-2498.973670974872
 21
25.00000000000003
  0
LINE
  5
94
100
AcDbEntity
  8
Blade
  6
ByLayer
 62
  256
370
   -1
100
AcDbLine
 10
-2511.473670974872
 20
25.00000000000011
 11
-2498.973670974872
 21
25.00000000000004
  0
LINE
  5
95
100
AcDbEntity
  8
Blade
  6
ByLayer
 62
  256
370
   -1
100
AcDbLine
 10
-2511.473670974873
 20
1274.999999999999
 11
-2498.973670974873
 21
1274.999999999999
  0
LINE
  5
96
100
AcDbEntity
  8
Blade
  6
ByLayer
 62
  256
370
   -1
100
AcDbLine
 10
-2511.473670974872
 20
575
 11
-2511.473670974872
 21
25.00000000000011
  0
LINE
  5
97
100
AcDbEntity
  8
Blade
  6
ByLayer
 62
  256
370
   -1
100
AcDbLine
 10
-2511.473670974873
 20
1274.999999999999
 11
-2511.473670974873
 21
725
  0
LINE
  5
98
100
AcDbEntity
  8
Leather_Straps_And_Dull_Blades
  6
ByLayer
 62
  256
370
   -1
100
AcDbLine
 10
-2511.473670974873
 20
725
 11
-2511.473670974872
 21
575
  0
ARC
  5
99
100
AcDbEntity
  8
0
  6
ByLayer
 62
  256
370
   -1
100
AcDbCircle
 10
-1645.448267190435
 20
1300
 40
150.0000000000001
100
AcDbArc
 50
180
 51
0
  0
ARC
  5
9A
100
AcDbEntity
  8
0
  6
ByLayer
 62
  256
370
   -1
100
AcDbCircle
 10
-1645.448267190435
 20
-1.83697019872103e-14
 40
150.0000000000001
100
AcDbArc
 50
0
 51
180
  0
CIRCLE
  5
9B
100
AcDbEntity
  8
Shield_Boss-Spike
  6
ByLayer
 62
  256
370
   -1
100
AcDbCircle
 10
-1645.448267190434
 20
325.000000000002
 40
150
  0
CIRCLE
  5
9C
100
AcDbEntity
  8
Shield_Boss-Spike
  6
ByLayer
 62
  256
370
   -1
100
AcDbCircle
 10
-1645.448267190434
 20
325.000000000002
 40
75
  0
CIRCLE
  5
9D
100
AcDbEntity
  8
Spikes
  6
ByLayer
 62
  256
370
   -1
100
AcDbCircle
 10
-1645.448267190434
 20
325.000000000002
 40
25
  0
CIRCLE
  5
9E
100
AcDbEntity
  8
Shield_Boss-Spike
  6
ByLayer
 62
  256
370
   -1
100
AcDbCircle
 10
-1645.448267190434
 20
974.999999999998
 40
150
  0
CIRCLE
  5
9F
100
AcDbEntity
  8
Shield_Boss-Spike
  6
ByLayer
 62
  256
370
   -1
100
AcDbCircle
 10
-1645.448267190434
 20
974.999999999998
 40
75
  0
CIRCLE
  5
A0
100
AcDbEntity
  8
Spikes
  6
ByLayer
 62
  256
370
   -1
100
AcDbCircle
 10
-1645.448267190434
 20
974.999999999998
 40
25
  0
CIRCLE
  5
A1
100
AcDbEntity
  8
Shield_Boss-Spike
  6
ByLayer
 62
  256
370
   -1
100
AcDbCircle
 10
-329.4228634059968
 20
325.0000000000023
 40
75
  0
CIRCLE
  5
A2
100
AcDbEntity
  8
Shield_Boss-Spike
  6
ByLayer
 62
  256
370
   -1
100
AcDbCircle
 10
-329.4228634059968
 20
974.9999999999982
 40
75
  0
CIRCLE
  5
A3
100
AcDbEntity
  8
Shield_Boss-Spike
  6
ByLayer
 62
  256
370
   -1
100
AcDbCircle
 10
-329.4228634059971
 20
650.0000000000002
 40
75
  0
ARC
  5
A4
100
AcDbEntity
  8
Blade
  6
ByLayer
 62
  256
370
   -1
100
AcDbCircle
 10
-1304.65697612203
 20
1053.824898790635
 40
1000
100
AcDbArc
 50
5.596057235927251
 51
12.77806171095632
  0
ARC
  5
A5
100
AcDbEntity
  8
Blade
  6
ByLayer
 62
  256
370
   -1
100
AcDbCircle
 10
645.8112493100534
 20
1053.824898790716
 40
1000
100
AcDbArc
 50
167.2219382890485
 51
174.4039427640774
  0
ARC
  5
A6
100
AcDbEntity
  8
Blade
  6
ByLayer
 62
  256
370
   -1
100
AcDbCircle
 10
645.8112493100542
 20
246.1751012092841
 40
1000
100
AcDbArc
 50
185.5960572359226
 51
192.7780617109515
  0
ARC
  5
A7
100
AcDbEntity
  8
Blade
  6
ByLayer
 62
  256
370
   -1
100
AcDbCircle
 10
-1304.656976122047
 20
246.1751012092837
 40
1000
100
AcDbArc
 50
347.2219382890485
 51
354.4039427640774
  0
LINE
  5
A8
100
AcDbEntity
  8
Leather_Straps_And_Dull_Blades
  6
ByLayer
 62
  256
370
   -1
100
AcDbLine
 10
-349.4228634059968
 20
662.5000000000001
 11
-309.4228634059968
 21
662.5000000000001
  0
LINE
  5
A9
100
AcDbEntity
  8
Leather_Straps_And_Dull_Blades
  6
ByLayer
 62
  256
370
   -1
100
AcDbLine
 10
-349.4228634059968
 20
637.5000000000001
 11
-309.4228634059968
 21
637.5000000000001
  0
LINE
  5
AA
100
AcDbEntity
  8
Leather_Straps_And_Dull_Blades
  6
ByLayer
 62
  256
370
   -1
100
AcDbLine
 10
-349.4228634059968
 20
687.5000000000001
 11
-309.4228634059968
 21
687.5000000000001
  0
LINE
  5
AB
100
AcDbEntity
  8
Leather_Straps_And_Dull_Blades
  6
ByLayer
 62
  256
370
   -1
100
AcDbLine
 10
-349.4228634059968
 20
712.5000000000001
 11
-309.4228634059968
 21
712.5000000000001
  0
LINE
  5
AC
100
AcDbEntity
  8
Leather_Straps_And_Dull_Blades
  6
ByLayer
 62
  256
370
   -1
100
AcDbLine
 10
-349.4228634059968
 20
612.5000000000001
 11
-309.4228634059968
 21
612.5000000000001
  0
LINE
  5
AD
100
AcDbEntity
  8
Leather_Straps_And_Dull_Blades
  6
ByLayer
 62
  256
370
   -1
100
AcDbLine
 10
-349.4228634059968
 20
587.5000000000001
 11
-309.4228634059968
 21
587.5000000000001
  0
LINE
  5
AE
100
AcDbEntity
  8
Leather_Straps_And_Dull_Blades
  6
ByLayer
 62
  256
370
   -1
100
AcDbLine
 10
-349.422863405997
 20
722.2841614740062
 11
-309.4228634059969
 21
722.2841614740064
  0
LINE
  5
AF
100
AcDbEntity
  8
Leather_Straps_And_Dull_Blades
  6
ByLayer
 62
  256
370
   -1
100
AcDbLine
 10
-349.4228634059967
 20
577.7158385259945
 11
-309.4228634059968
 21
577.7158385259943
  0
LINE
  5
B0
100
AcDbEntity
  8
Leather_Straps_And_Dull_Blades
  6
ByLayer
 62
  256
370
   -1
100
AcDbLine
 10
-349.422863405997
 20
722.2841614740062
 11
-349.4228634059968
 21
577.7158385259945
  0
LINE
  5
B1
100
AcDbEntity
  8
Leather_Straps_And_Dull_Blades
  6
ByLayer
 62
  256
370
   -1
100
AcDbLine
 10
-309.422863405997
 20
722.2841614740071
 11
-309.4228634059968
 21
577.7158385259943
  0
LINE
  5
B2
100
AcDbEntity
  8
Blade
  6
ByLayer
 62
  256
370
   -1
100
AcDbLine
 10
-349.4228634059971
 20
902.7158385259934
 11
-349.422863405997
 21
722.2841614740062
  0
LINE
  5
B3
100
AcDbEntity
  8
Blade
  6
ByLayer
 62
  256
370
   -1
100
AcDbLine
 10
-349.4228634059972
 20
1151.339312526816
 11
-349.422863405997
 21
1047.284161474003
  0
LINE
  5
B4
100
AcDbEntity
  8
Blade
  6
ByLayer
 62
  256
370
   -1
100
AcDbLine
 10
-309.4228634059972
 20
1151.339312526816
 11
-309.4228634059973
 21
1047.284161474003
  0
LINE
  5
B5
100
AcDbEntity
  8
Blade
  6
ByLayer
 62
  256
370
   -1
100
AcDbLine
 10
-309.4228634059971
 20
902.7158385259929
 11
-309.422863405997
 21
722.2841614740071
  0
LINE
  5
B6
100
AcDbEntity
  8
Blade
  6
ByLayer
 62
  256
370
   -1
100
AcDbLine
 10
-349.4228634059968
 20
577.7158385259945
 11
-349.4228634059968
 21
397.2841614740067
  0
LINE
  5
B7
100
AcDbEntity
  8
Blade
  6
ByLayer
 62
  256
370
   -1
100
AcDbLine
 10
-349.4228634059967
 20
252.715838525998
 11
-349.4228634059966
 21
148.6606874731854
  0
LINE
  5
B8
100
AcDbEntity
  8
Blade
  6
ByLayer
 62
  256
370
   -1
100
AcDbLine
 10
-309.4228634059967
 20
252.7158385259975
 11
-309.4228634059966
 21
148.6606874731852
  0
LINE
  5
B9
100
AcDbEntity
  8
Blade
  6
ByLayer
 62
  256
370
   -1
100
AcDbLine
 10
-309.4228634059968
 20
577.7158385259943
 11
-309.4228634059967
 21
397.2841614740069
  0
LINE
  5
BA
100
AcDbEntity
  8
Leather_Straps_And_Dull_Blades
  6
ByLayer
 62
  256
370
   -1
100
AcDbLine
 10
-349.4228634059967
 20
987.499999999997
 11
-309.4228634059967
 21
987.499999999997
  0
LINE
  5
BB
100
AcDbEntity
  8
Leather_Straps_And_Dull_Blades
  6
ByLayer
 62
  256
370
   -1
100
AcDbLine
 10
-349.4228634059967
 20
962.499999999997
 11
-309.4228634059967
 21
962.499999999997
  0
LINE
  5
BC
100
AcDbEntity
  8
Leather_Straps_And_Dull_Blades
  6
ByLayer
 62
  256
370
   -1
100
AcDbLine
 10
-349.4228634059967
 20
1012.499999999997
 11
-309.4228634059967
 21
1012.499999999997
  0
LINE
  5
BD
100
AcDbEntity
  8
Leather_Straps_And_Dull_Blades
  6
ByLayer
 62
  256
370
   -1
100
AcDbLine
 10
-349.4228634059967
 20
1037.499999999997
 11
-309.4228634059967
 21
1037.499999999997
  0
LINE
  5
BE
100
AcDbEntity
  8
Leather_Straps_And_Dull_Blades
  6
ByLayer
 62
  256
370
   -1
100
AcDbLine
 10
-349.4228634059967
 20
937.499999999997
 11
-309.4228634059967
 21
937.499999999997
  0
LINE
  5
BF
100
AcDbEntity
  8
Leather_Straps_And_Dull_Blades
  6
ByLayer
 62
  256
370
   -1
100
AcDbLine
 10
-349.4228634059967
 20
912.499999999997
 11
-309.4228634059967
 21
912.499999999997
  0
LINE
  5
C0
100
AcDbEntity
  8
Leather_Straps_And_Dull_Blades
  6
ByLayer
 62
  256
370
   -1
100
AcDbLine
 10
-349.4228634059968
 20
1047.284161474003
 11
-309.4228634059967
 21
1047.284161474003
  0
LINE
  5
C1
100
AcDbEntity
  8
Leather_Straps_And_Dull_Blades
  6
ByLayer
 62
  256
370
   -1
100
AcDbLine
 10
-349.4228634059966
 20
902.7158385259914
 11
-309.4228634059967
 21
902.7158385259912
  0
LINE
  5
C2
100
AcDbEntity
  8
Leather_Straps_And_Dull_Blades
  6
ByLayer
 62
  256
370
   -1
100
AcDbLine
 10
-349.4228634059968
 20
1047.284161474003
 11
-349.4228634059967
 21
902.7158385259914
  0
LINE
  5
C3
100
AcDbEntity
  8
Leather_Straps_And_Dull_Blades
  6
ByLayer
 62
  256
370
   -1
100
AcDbLine
 10
-309.4228634059968
 20
1047.284161474004
 11
-309.4228634059967
 21
902.7158385259912
  0
LINE
  5
C4
100
AcDbEntity
  8
Leather_Straps_And_Dull_Blades
  6
ByLayer
 62
  256
370
   -1
100
AcDbLine
 10
-349.4228634059965
 20
337.5000000000001
 11
-309.4228634059965
 21
337.5000000000001
  0
LINE
  5
C5
100
AcDbEntity
  8
Leather_Straps_And_Dull_Blades
  6
ByLayer
 62
  256
370
   -1
100
AcDbLine
 10
-349.4228634059965
 20
312.5000000000001
 11
-309.4228634059965
 21
312.5000000000001
  0
LINE
  5
C6
100
AcDbEntity
  8
Leather_Straps_And_Dull_Blades
  6
ByLayer
 62
  256
370
   -1
100
AcDbLine
 10
-349.4228634059965
 20
362.5000000000001
 11
-309.4228634059965
 21
362.5000000000001
  0
LINE
  5
C7
100
AcDbEntity
  8
Leather_Straps_And_Dull_Blades
  6
ByLayer
 62
  256
370
   -1
100
AcDbLine
 10
-349.4228634059965
 20
387.5000000000001
 11
-309.4228634059965
 21
387.5000000000001
  0
LINE
  5
C8
100
AcDbEntity
  8
Leather_Straps_And_Dull_Blades
  6
ByLayer
 62
  256
370
   -1
100
AcDbLine
 10
-349.4228634059965
 20
287.5000000000001
 11
-309.4228634059965
 21
287.5000000000001
  0
LINE
  5
C9
100
AcDbEntity
  8
Leather_Straps_And_Dull_Blades
  6
ByLayer
 62
  256
370
   -1
100
AcDbLine
 10
-349.4228634059965
 20
262.5000000000001
 11
-309.4228634059965
 21
262.5000000000001
  0
LINE
  5
CA
100
AcDbEntity
  8
Leather_Straps_And_Dull_Blades
  6
ByLayer
 62
  256
370
   -1
100
AcDbLine
 10
-349.4228634059966
 20
397.2841614740063
 11
-309.4228634059966
 21
397.2841614740063
  0
LINE
  5
CB
100
AcDbEntity
  8
Leather_Straps_And_Dull_Blades
  6
ByLayer
 62
  256
370
   -1
100
AcDbLine
 10
-349.4228634059964
 20
252.7158385259945
 11
-309.4228634059965
 21
252.7158385259943
  0
LINE
  5
CC
100
AcDbEntity
  8
Leather_Straps_And_Dull_Blades
  6
ByLayer
 62
  256
370
   -1
100
AcDbLine
 10
-349.4228634059966
 20
397.2841614740063
 11
-349.4228634059965
 21
252.7158385259945
  0
LINE
  5
CD
100
AcDbEntity
  8
Leather_Straps_And_Dull_Blades
  6
ByLayer
 62
  256
370
   -1
100
AcDbLine
 10
-309.4228634059966
 20
397.2841614740072
 11
-309.4228634059965
 21
252.7158385259943
  0
ARC
  5
CE
100
AcDbEntity
  8
0
  6
ByLayer
 62
  256
370
   -1
100
AcDbCircle
 10
-329.4228634059973
 20
2.090039734560218e-13
 40
150.0000000000001
100
AcDbArc
 50
97.66225566076577
 51
180
  0
ARC
  5
CF
100
AcDbEntity
  8
0
  6
ByLayer
 62
  256
370
   -1
100
AcDbCircle
 10
-329.4228634059973
 20
2.090039734560218e-13
 40
150.0000000000001
100
AcDbArc
 50
0
 51
82.33774433923365
  0
ARC
  5
D0
100
AcDbEntity
  8
0
  6
ByLayer
 62
  256
370
   -1
100
AcDbCircle
 10
-329.4228634059973
 20
1300
 40
150.0000000000001
100
AcDbArc
 50
277.66225566077
 51
0
  0
ARC
  5
D1
100
AcDbEntity
  8
0
  6
ByLayer
 62
  256
370
   -1
100
AcDbCircle
 10
-329.4228634059973
 20
1300
 40
150.0000000000001
100
AcDbArc
 50
180
 51
262.3377443392339
  0
ARC
  5
D2
100
AcDbEntity
  8
Blade
  6
ByLayer
 62
  256
370
   -1
100
AcDbCircle
 10
-4352.733187475344
 20
1053.824898790635
 40
1000
100
AcDbArc
 50
5.596057235927251
 51
12.77806171095632
  0
ARC
  5
D3
100
AcDbEntity
  8
Blade
  6
ByLayer
 62
  256
370
   -1
100
AcDbCircle
 10
-2402.26496204326
 20
1053.824898790716
 40
1000
100
AcDbArc
 50
167.2219382890485
 51
174.4039427640774
  0
ARC
  5
D4
100
AcDbEntity
  8
Blade
  6
ByLayer
 62
  256
370
   -1
100
AcDbCircle
 10
-2402.264962043259
 20
246.1751012092839
 40
1000
100
AcDbArc
 50
185.5960572359226
 51
192.7780617109515
  0
ARC
  5
D5
100
AcDbEntity
  8
Blade
  6
ByLayer
 62
  256
370
   -1
100
AcDbCircle
 10
-4352.733187475361
 20
246.1751012092835
 40
1000
100
AcDbArc
 50
347.2219382890485
 51
354.4039427640774
  0
LINE
  5
D6
100
AcDbEntity
  8
Leather_Straps_And_Dull_Blades
  6
ByLayer
 62
  256
370
   -1
100
AcDbLine
 10
-3397.499074759311
 20
662.4999999999999
 11
-3357.499074759311
 21
662.4999999999999
  0
LINE
  5
D7
100
AcDbEntity
  8
Leather_Straps_And_Dull_Blades
  6
ByLayer
 62
  256
370
   -1
100
AcDbLine
 10
-3397.499074759311
 20
637.4999999999999
 11
-3357.499074759311
 21
637.4999999999999
  0
LINE
  5
D8
100
AcDbEntity
  8
Leather_Straps_And_Dull_Blades
  6
ByLayer
 62
  256
370
   -1
100
AcDbLine
 10
-3397.499074759311
 20
687.4999999999999
 11
-3357.499074759311
 21
687.4999999999999
  0
LINE
  5
D9
100
AcDbEntity
  8
Leather_Straps_And_Dull_Blades
  6
ByLayer
 62
  256
370
   -1
100
AcDbLine
 10
-3397.499074759311
 20
712.4999999999999
 11
-3357.499074759311
 21
712.4999999999999
  0
LINE
  5
DA
100
AcDbEntity
  8
Leather_Straps_And_Dull_Blades
  6
ByLayer
 62
  256
370
   -1
100
AcDbLine
 10
-3397.499074759311
 20
612.4999999999999
 11
-3357.499074759311
 21
612.4999999999999
  0
LINE
  5
DB
100
AcDbEntity
  8
Leather_Straps_And_Dull_Blades
  6
ByLayer
 62
  256
370
   -1
100
AcDbLine
 10
-3397.499074759311
 20
587.4999999999999
 11
-3357.499074759311
 21
587.4999999999999
  0
LINE
  5
DC
100
AcDbEntity
  8
Leather_Straps_And_Dull_Blades
  6
ByLayer
 62
  256
370
   -1
100
AcDbLine
 10
-3397.499074759311
 20
722.2841614740059
 11
-3357.499074759311
 21
722.2841614740062
  0
LINE
  5
DD
100
AcDbEntity
  8
Leather_Straps_And_Dull_Blades
  6
ByLayer
 62
  256
370
   -1
100
AcDbLine
 10
-3397.499074759311
 20
577.7158385259943
 11
-3357.499074759311
 21
577.7158385259941
  0
LINE
  5
DE
100
AcDbEntity
  8
Leather_Straps_And_Dull_Blades
  6
ByLayer
 62
  256
370
   -1
100
AcDbLine
 10
-3397.499074759311
 20
722.2841614740059
 11
-3397.499074759311
 21
577.7158385259943
  0
LINE
  5
DF
100
AcDbEntity
  8
Leather_Straps_And_Dull_Blades
  6
ByLayer
 62
  256
370
   -1
100
AcDbLine
 10
-3357.499074759311
 20
722.2841614740069
 11
-3357.499074759311
 21
577.7158385259941
  0
LINE
  5
E0
100
AcDbEntity
  8
Blade
  6
ByLayer
 62
  256
370
   -1
100
AcDbLine
 10
-3397.499074759311
 20
902.7158385259931
 11
-3397.499074759311
 21
722.2841614740059
  0
LINE
  5
E1
100
AcDbEntity
  8
Blade
  6
ByLayer
 62
  256
370
   -1
100
AcDbLine
 10
-3397.499074759311
 20
1151.339312526815
 11
-3397.499074759311
 21
1047.284161474003
  0
LINE
  5
E2
100
AcDbEntity
  8
Blade
  6
ByLayer
 62
  256
370
   -1
100
AcDbLine
 10
-3357.499074759311
 20
1151.339312526815
 11
-3357.499074759311
 21
1047.284161474003
  0
LINE
  5
E3
100
AcDbEntity
  8
Blade
  6
ByLayer
 62
  256
370
   -1
100
AcDbLine
 10
-3357.499074759311
 20
902.7158385259927
 11
-3357.499074759311
 21
722.2841614740069
  0
LINE
  5
E4
100
AcDbEntity
  8
Blade
  6
ByLayer
 62
  256
370
   -1
100
AcDbLine
 10
-3397.499074759311
 20
577.7158385259943
 11
-3397.499074759311
 21
397.2841614740065
  0
LINE
  5
E5
100
AcDbEntity
  8
Blade
  6
ByLayer
 62
  256
370
   -1
100
AcDbLine
 10
-3397.499074759311
 20
252.7158385259977
 11
-3397.49907475931
 21
148.6606874731851
  0
LINE
  5
E6
100
AcDbEntity
  8
Blade
  6
ByLayer
 62
  256
370
   -1
100
AcDbLine
 10
-3357.499074759311
 20
252.7158385259973
 11
-3357.49907475931
 21
148.660687473185
  0
LINE
  5
E7
100
AcDbEntity
  8
Blade
  6
ByLayer
 62
  256
370
   -1
100
AcDbLine
 10
-3357.499074759311
 20
577.7158385259941
 11
-3357.499074759311
 21
397.2841614740067
  0
LINE
  5
E8
100
AcDbEntity
  8
Leather_Straps_And_Dull_Blades
  6
ByLayer
 62
  256
370
   -1
100
AcDbLine
 10
-3397.499074759311
 20
987.4999999999968
 11
-3357.499074759311
 21
987.4999999999968
  0
LINE
  5
E9
100
AcDbEntity
  8
Leather_Straps_And_Dull_Blades
  6
ByLayer
 62
  256
370
   -1
100
AcDbLine
 10
-3397.499074759311
 20
962.4999999999968
 11
-3357.499074759311
 21
962.4999999999968
  0
LINE
  5
EA
100
AcDbEntity
  8
Leather_Straps_And_Dull_Blades
  6
ByLayer
 62
  256
370
   -1
100
AcDbLine
 10
-3397.499074759311
 20
1012.499999999997
 11
-3357.499074759311
 21
1012.499999999997
  0
LINE
  5
EB
100
AcDbEntity
  8
Leather_Straps_And_Dull_Blades
  6
ByLayer
 62
  256
370
   -1
100
AcDbLine
 10
-3397.499074759311
 20
1037.499999999997
 11
-3357.499074759311
 21
1037.499999999997
  0
LINE
  5
EC
100
AcDbEntity
  8
Leather_Straps_And_Dull_Blades
  6
ByLayer
 62
  256
370
   -1
100
AcDbLine
 10
-3397.499074759311
 20
937.4999999999968
 11
-3357.499074759311
 21
937.4999999999968
  0
LINE
  5
ED
100
AcDbEntity
  8
Leather_Straps_And_Dull_Blades
  6
ByLayer
 62
  256
370
   -1
100
AcDbLine
 10
-3397.499074759311
 20
912.4999999999968
 11
-3357.499074759311
 21
912.4999999999968
  0
LINE
  5
EE
100
AcDbEntity
  8
Leather_Straps_And_Dull_Blades
  6
ByLayer
 62
  256
370
   -1
100
AcDbLine
 10
-3397.499074759311
 20
1047.284161474003
 11
-3357.499074759311
 21
1047.284161474003
  0
LINE
  5
EF
100
AcDbEntity
  8
Leather_Straps_And_Dull_Blades
  6
ByLayer
 62
  256
370
   -1
100
AcDbLine
 10
-3397.49907475931
 20
902.7158385259912
 11
-3357.499074759311
 21
902.715838525991
  0
LINE
  5
F0
100
AcDbEntity
  8
Leather_Straps_And_Dull_Blades
  6
ByLayer
 62
  256
370
   -1
100
AcDbLine
 10
-3397.499074759311
 20
1047.284161474003
 11
-3397.499074759311
 21
902.7158385259912
  0
LINE
  5
F1
100
AcDbEntity
  8
Leather_Straps_And_Dull_Blades
  6
ByLayer
 62
  256
370
   -1
100
AcDbLine
 10
-3357.499074759311
 20
1047.284161474004
 11
-3357.499074759311
 21
902.715838525991
  0
LINE
  5
F2
100
AcDbEntity
  8
Leather_Straps_And_Dull_Blades
  6
ByLayer
 62
  256
370
   -1
100
AcDbLine
 10
-3397.49907475931
 20
337.4999999999999
 11
-3357.49907475931
 21
337.4999999999999
  0
LINE
  5
F3
100
AcDbEntity
  8
Leather_Straps_And_Dull_Blades
  6
ByLayer
 62
  256
370
   -1
100
AcDbLine
 10
-3397.49907475931
 20
312.4999999999999
 11
-3357.49907475931
 21
312.4999999999999
  0
LINE
  5
F4
100
AcDbEntity
  8
Leather_Straps_And_Dull_Blades
  6
ByLayer
 62
  256
370
   -1
100
AcDbLine
 10
-3397.49907475931
 20
362.4999999999999
 11
-3357.49907475931
 21
362.4999999999999
  0
LINE
  5
F5
100
AcDbEntity
  8
Leather_Straps_And_Dull_Blades
  6
ByLayer
 62
  256
370
   -1
100
AcDbLine
 10
-3397.49907475931
 20
387.4999999999999
 11
-3357.49907475931
 21
387.4999999999999
  0
LINE
  5
F6
100
AcDbEntity
  8
Leather_Straps_And_Dull_Blades
  6
ByLayer
 62
  256
370
   -1
100
AcDbLine
 10
-3397.49907475931
 20
287.4999999999999
 11
-3357.49907475931
 21
287.4999999999999
  0
LINE
  5
F7
100
AcDbEntity
  8
Leather_Straps_And_Dull_Blades
  6
ByLayer
 62
  256
370
   -1
100
AcDbLine
 10
-3397.49907475931
 20
262.4999999999999
 11
-3357.49907475931
 21
262.4999999999999
  0
LINE
  5
F8
100
AcDbEntity
  8
Leather_Straps_And_Dull_Blades
  6
ByLayer
 62
  256
370
   -1
100
AcDbLine
 10
-3397.49907475931
 20
397.2841614740061
 11
-3357.49907475931
 21
397.2841614740061
  0
LINE
  5
F9
100
AcDbEntity
  8
Leather_Straps_And_Dull_Blades
  6
ByLayer
 62
  256
370
   -1
100
AcDbLine
 10
-3397.49907475931
 20
252.7158385259943
 11
-3357.49907475931
 21
252.7158385259941
  0
LINE
  5
FA
100
AcDbEntity
  8
Leather_Straps_And_Dull_Blades
  6
ByLayer
 62
  256
370
   -1
100
AcDbLine
 10
-3397.49907475931
 20
397.2841614740061
 11
-3397.49907475931
 21
252.7158385259943
  0
LINE
  5
FB
100
AcDbEntity
  8
Leather_Straps_And_Dull_Blades
  6
ByLayer
 62
  256
370
   -1
100
AcDbLine
 10
-3357.49907475931
 20
397.284161474007
 11
-3357.49907475931
 21
252.7158385259941
  0
ARC
  5
FC
100
AcDbEntity
  8
Blade
  6
ByLayer
 62
  256
370
   -1
100
AcDbCircle
 10
-5339.335727853787
 20
1053.824898790635
 40
1000
100
AcDbArc
 50
5.596057235927251
 51
12.77806171095632
  0
ARC
  5
FD
100
AcDbEntity
  8
Blade
  6
ByLayer
 62
  256
370
   -1
100
AcDbCircle
 10
-3388.867502421704
 20
1053.824898790716
 40
1000
100
AcDbArc
 50
167.2219382890485
 51
174.4039427640774
  0
ARC
  5
FE
100
AcDbEntity
  8
Blade
  6
ByLayer
 62
  256
370
   -1
100
AcDbCircle
 10
-3388.867502421703
 20
246.1751012092839
 40
1000
100
AcDbArc
 50
185.5960572359226
 51
192.7780617109515
  0
ARC
  5
FF
100
AcDbEntity
  8
Blade
  6
ByLayer
 62
  256
370
   -1
100
AcDbCircle
 10
-5339.335727853804
 20
246.1751012092835
 40
1000
100
AcDbArc
 50
347.2219382890485
 51
354.4039427640774
  0
LINE
  5
100
100
AcDbEntity
  8
Blade
  6
ByLayer
 62
  256
370
   -1
100
AcDbLine
 10
-4384.101615137754
 20
1151.339312526815
 11
-4384.101615137753
 21
1047.284161474003
  0
LINE
  5
101
100
AcDbEntity
  8
Blade
  6
ByLayer
 62
  256
370
   -1
100
AcDbLine
 10
-4344.101615137754
 20
1151.339312526815
 11
-4344.101615137754
 21
1047.284161474003
  0
LINE
  5
102
100
AcDbEntity
  8
Blade
  6
ByLayer
 62
  256
370
   -1
100
AcDbLine
 10
-4384.101615137753
 20
252.7158385259977
 11
-4384.101615137753
 21
148.6606874731851
  0
LINE
  5
103
100
AcDbEntity
  8
Blade
  6
ByLayer
 62
  256
370
   -1
100
AcDbLine
 10
-4344.101615137753
 20
252.7158385259973
 11
-4344.101615137753
 21
148.660687473185
  0
LINE
  5
104
100
AcDbEntity
  8
Leather_Straps_And_Dull_Blades
  6
ByLayer
 62
  256
370
   -1
100
AcDbLine
 10
-4384.101615137753
 20
987.4999999999968
 11
-4344.101615137753
 21
987.4999999999968
  0
LINE
  5
105
100
AcDbEntity
  8
Leather_Straps_And_Dull_Blades
  6
ByLayer
 62
  256
370
   -1
100
AcDbLine
 10
-4384.101615137753
 20
962.4999999999968
 11
-4344.101615137753
 21
962.4999999999968
  0
LINE
  5
106
100
AcDbEntity
  8
Leather_Straps_And_Dull_Blades
  6
ByLayer
 62
  256
370
   -1
100
AcDbLine
 10
-4384.101615137753
 20
1012.499999999997
 11
-4344.101615137753
 21
1012.499999999997
  0
LINE
  5
107
100
AcDbEntity
  8
Leather_Straps_And_Dull_Blades
  6
ByLayer
 62
  256
370
   -1
100
AcDbLine
 10
-4384.101615137753
 20
1037.499999999997
 11
-4344.101615137753
 21
1037.499999999997
  0
LINE
  5
108
100
AcDbEntity
  8
Leather_Straps_And_Dull_Blades
  6
ByLayer
 62
  256
370
   -1
100
AcDbLine
 10
-4384.101615137753
 20
937.4999999999968
 11
-4344.101615137753
 21
937.4999999999968
  0
LINE
  5
109
100
AcDbEntity
  8
Leather_Straps_And_Dull_Blades
  6
ByLayer
 62
  256
370
   -1
100
AcDbLine
 10
-4384.101615137753
 20
912.4999999999968
 11
-4344.101615137753
 21
912.4999999999968
  0
LINE
  5
10A
100
AcDbEntity
  8
Leather_Straps_And_Dull_Blades
  6
ByLayer
 62
  256
370
   -1
100
AcDbLine
 10
-4384.101615137753
 20
1047.284161474003
 11
-4344.101615137753
 21
1047.284161474003
  0
LINE
  5
10B
100
AcDbEntity
  8
Leather_Straps_And_Dull_Blades
  6
ByLayer
 62
  256
370
   -1
100
AcDbLine
 10
-4384.101615137753
 20
902.7158385259912
 11
-4344.101615137753
 21
902.715838525991
  0
LINE
  5
10C
100
AcDbEntity
  8
Leather_Straps_And_Dull_Blades
  6
ByLayer
 62
  256
370
   -1
100
AcDbLine
 10
-4384.101615137753
 20
1047.284161474003
 11
-4384.101615137753
 21
902.7158385259912
  0
LINE
  5
10D
100
AcDbEntity
  8
Leather_Straps_And_Dull_Blades
  6
ByLayer
 62
  256
370
   -1
100
AcDbLine
 10
-4344.101615137753
 20
1047.284161474004
 11
-4344.101615137753
 21
902.715838525991
  0
LINE
  5
10E
100
AcDbEntity
  8
Leather_Straps_And_Dull_Blades
  6
ByLayer
 62
  256
370
   -1
100
AcDbLine
 10
-4384.101615137753
 20
337.4999999999999
 11
-4344.101615137753
 21
337.4999999999999
  0
LINE
  5
10F
100
AcDbEntity
  8
Leather_Straps_And_Dull_Blades
  6
ByLayer
 62
  256
370
   -1
100
AcDbLine
 10
-4384.101615137753
 20
312.4999999999999
 11
-4344.101615137753
 21
312.4999999999999
  0
LINE
  5
110
100
AcDbEntity
  8
Leather_Straps_And_Dull_Blades
  6
ByLayer
 62
  256
370
   -1
100
AcDbLine
 10
-4384.101615137753
 20
362.4999999999999
 11
-4344.101615137753
 21
362.4999999999999
  0
LINE
  5
111
100
AcDbEntity
  8
Leather_Straps_And_Dull_Blades
  6
ByLayer
 62
  256
370
   -1
100
AcDbLine
 10
-4384.101615137753
 20
387.4999999999999
 11
-4344.101615137753
 21
387.4999999999999
  0
LINE
  5
112
100
AcDbEntity
  8
Leather_Straps_And_Dull_Blades
  6
ByLayer
 62
  256
370
   -1
100
AcDbLine
 10
-4384.101615137753
 20
287.4999999999999
 11
-4344.101615137753
 21
287.4999999999999
  0
LINE
  5
113
100
AcDbEntity
  8
Leather_Straps_And_Dull_Blades
  6
ByLayer
 62
  256
370
   -1
100
AcDbLine
 10
-4384.101615137753
 20
262.4999999999999
 11
-4344.101615137753
 21
262.4999999999999
  0
LINE
  5
114
100
AcDbEntity
  8
Leather_Straps_And_Dull_Blades
  6
ByLayer
 62
  256
370
   -1
100
AcDbLine
 10
-4384.101615137753
 20
397.2841614740061
 11
-4344.101615137753
 21
397.2841614740061
  0
LINE
  5
115
100
AcDbEntity
  8
Leather_Straps_And_Dull_Blades
  6
ByLayer
 62
  256
370
   -1
100
AcDbLine
 10
-4384.101615137753
 20
252.7158385259943
 11
-4344.101615137753
 21
252.7158385259941
  0
LINE
  5
116
100
AcDbEntity
  8
Leather_Straps_And_Dull_Blades
  6
ByLayer
 62
  256
370
   -1
100
AcDbLine
 10
-4384.101615137753
 20
397.2841614740061
 11
-4384.101615137753
 21
252.7158385259943
  0
LINE
  5
117
100
AcDbEntity
  8
Leather_Straps_And_Dull_Blades
  6
ByLayer
 62
  256
370
   -1
100
AcDbLine
 10
-4344.101615137753
 20
397.284161474007
 11
-4344.101615137753
 21
252.7158385259941
  0
LINE
  5
118
100
AcDbEntity
  8
Blade
  6
ByLayer
 62
  256
370
   -1
100
AcDbLine
 10
-4384.101615137753
 20
501.3393125268567
 11
-4384.101615137753
 21
397.2841614740065
  0
LINE
  5
119
100
AcDbEntity
  8
Blade
  6
ByLayer
 62
  256
370
   -1
100
AcDbLine
 10
-4344.101615137753
 20
501.3393125268067
 11
-4344.101615137753
 21
397.2841614740067
  0
LINE
  5
11A
100
AcDbEntity
  8
Blade
  6
ByLayer
 62
  256
370
   -1
100
AcDbLine
 10
-4384.101615137754
 20
902.7158385259931
 11
-4384.101615137753
 21
798.6606874732063
  0
LINE
  5
11B
100
AcDbEntity
  8
Blade
  6
ByLayer
 62
  256
370
   -1
100
AcDbLine
 10
-4344.101615137754
 20
902.7158385259927
 11
-4344.101615137753
 21
798.6606874731469
  0
ARC
  5
11C
100
AcDbEntity
  8
Shield_Boss-Spike
  6
ByLayer
 62
  256
370
   -1
100
AcDbCircle
 10
-3377.499074759311
 20
650
 40
150
100
AcDbArc
 50
277.6622556607657
 51
82.33774433923435
  0
ARC
  5
11D
100
AcDbEntity
  8
Shield_Boss-Spike
  6
ByLayer
 62
  256
370
   -1
100
AcDbCircle
 10
-3377.499074759311
 20
650
 40
150
100
AcDbArc
 50
97.66225566076595
 51
262.337744339235
  0
ARC
  5
11E
100
AcDbEntity
  8
Shield_Boss-Spike
  6
ByLayer
 62
  256
370
   -1
100
AcDbCircle
 10
-3377.499074759311
 20
650
 40
75
100
AcDbArc
 50
285.4660099534244
 51
74.53399004657574
  0
ARC
  5
11F
100
AcDbEntity
  8
Shield_Boss-Spike
  6
ByLayer
 62
  256
370
   -1
100
AcDbCircle
 10
-3377.499074759311
 20
650
 40
75
100
AcDbArc
 50
105.4660099534204
 51
254.5339900465825
  0
LINE
  5
120
100
AcDbEntity
  8
Spikes
  6
ByLayer
 62
  256
370
   -1
100
AcDbLine
 10
624.1025403784432
 20
949.999999999998
 11
624.102540378443
 21
999.999999999998
  0
ARC
  5
121
100
AcDbEntity
  8
Shield_Boss-Spike
  6
ByLayer
 62
  256
370
   -1
100
AcDbCircle
 10
549.1025403784431
 20
974.999999999998
 40
75
100
AcDbArc
 50
36.86989764584379
 51
89.9999999999999
  0
ARC
  5
122
100
AcDbEntity
  8
Shield_Boss-Spike
  6
ByLayer
 62
  256
370
   -1
100
AcDbCircle
 10
549.1025403784431
 20
974.999999999998
 40
75
100
AcDbArc
 50
270.0000000000001
 51
323.1301023541557
  0
LINE
  5
123
100
AcDbEntity
  8
Shield_Boss-Spike
  6
ByLayer
 62
  256
370
   -1
100
AcDbLine
 10
609.1025403784433
 20
1019.999999999998
 11
624.102540378443
 21
999.999999999998
  0
LINE
  5
124
100
AcDbEntity
  8
Shield_Boss-Spike
  6
ByLayer
 62
  256
370
   -1
100
AcDbLine
 10
609.1025403784429
 20
929.9999999999977
 11
624.1025403784432
 21
949.999999999998
  0
LINE
  5
125
100
AcDbEntity
  8
Spikes
  6
ByLayer
 62
  256
370
   -1
100
AcDbLine
 10
624.102540378443
 20
999.999999999998
 11
774.1025403784435
 21
974.999999999998
  0
LINE
  5
126
100
AcDbEntity
  8
Spikes
  6
ByLayer
 62
  256
370
   -1
100
AcDbLine
 10
774.1025403784435
 20
974.999999999998
 11
624.102540378443
 21
949.999999999998
  0
LINE
  5
127
100
AcDbEntity
  8
Spikes
  6
ByLayer
 62
  256
370
   -1
100
AcDbLine
 10
624.1025403784433
 20
300.000000000002
 11
624.1025403784431
 21
350.000000000002
  0
ARC
  5
128
100
AcDbEntity
  8
Shield_Boss-Spike
  6
ByLayer
 62
  256
370
   -1
100
AcDbCircle
 10
549.1025403784432
 20
325.000000000002
 40
75
100
AcDbArc
 50
36.86989764584379
 51
89.9999999999999
  0
ARC
  5
129
100
AcDbEntity
  8
Shield_Boss-Spike
  6
ByLayer
 62
  256
370
   -1
100
AcDbCircle
 10
549.1025403784432
 20
325.000000000002
 40
75
100
AcDbArc
 50
270.0000000000001
 51
323.1301023541557
  0
LINE
  5
12A
100
AcDbEntity
  8
Shield_Boss-Spike
  6
ByLayer
 62
  256
370
   -1
100
AcDbLine
 10
609.1025403784435
 20
370.0000000000018
 11
624.1025403784431
 21
350.000000000002
  0
LINE
  5
12B
100
AcDbEntity
  8
Shield_Boss-Spike
  6
ByLayer
 62
  256
370
   -1
100
AcDbLine
 10
609.102540378443
 20
280.0000000000018
 11
624.1025403784433
 21
300.000000000002
  0
LINE
  5
12C
100
AcDbEntity
  8
Spikes
  6
ByLayer
 62
  256
370
   -1
100
AcDbLine
 10
624.1025403784431
 20
350.000000000002
 11
774.1025403784436
 21
325.000000000002
  0
LINE
  5
12D
100
AcDbEntity
  8
Spikes
  6
ByLayer
 62
  256
370
   -1
100
AcDbLine
 10
774.1025403784436
 20
325.000000000002
 11
624.1025403784431
 21
300.000000000002
  0
ARC
  5
12E
100
AcDbEntity
  8
Leather_Straps_And_Dull_Blades
  6
ByLayer
 62
  256
370
   -1
100
AcDbCircle
 10
536.6025403784431
 20
650
 40
322.499999999998
100
AcDbArc
 50
90
 51
270
  0
ARC
  5
12F
100
AcDbEntity
  8
Leather_Straps_And_Dull_Blades
  6
ByLayer
 62
  256
370
   -1
100
AcDbCircle
 10
536.6025403784431
 20
650
 40
327.499999999998
100
AcDbArc
 50
90
 51
270
  0
MTEXT
  5
130
100
AcDbEntity
  8
0
  6
ByLayer
 62
  256
370
   -1
100
AcDbMText
 10
294.4486372867091
 20
1050
 30
0
 40
50
 41
255.9524444444444
 71
    5
 72
    1
  1
Guige\PStrap
  7
romanc
210
0
220
0
230
1
 50
0
 73
    2
 44
1
  0
MTEXT
  5
131
100
AcDbEntity
  8
0
  6
ByLayer
 62
  256
370
   -1
100
AcDbMText
 10
424.3524478543749
 20
805
 30
0
 40
20
 41
92.38097777777776
 71
    5
 72
    1
  1
Arm\PStrap
  7
romanc
210
0
220
0
230
1
 50
0
 73
    2
 44
1
  0
MTEXT
  5
132
100
AcDbEntity
  8
Text
  6
ByLayer
 62
  256
370
   -1
100
AcDbMText
 10
-1974.038105676657
 20
-999.9999999999998
 30
0
 40
225
 41
5509.822325000003
 71
    5
 72
    1
  1
Offense Shield, by Felipe\PLohan Pinheiro da Silva
  7
romanc
210
0
220
0
230
1
 50
0
 73
    2
 44
1
  0
ARC
  5
133
100
AcDbEntity
  8
Blade
  6
ByLayer
 62
  256
370
   -1
100
AcDbCircle
 10
-670.214154474384
 20
1053.824898790716
 40
1000
100
AcDbArc
 50
167.2219382890485
 51
174.4039427640774
  0
ARC
  5
134
100
AcDbEntity
  8
Blade
  6
ByLayer
 62
  256
370
   -1
100
AcDbCircle
 10
-2620.682379906468
 20
1053.824898790635
 40
1000
100
AcDbArc
 50
5.596057235927302
 51
12.77806171095632
  0
ARC
  5
135
100
AcDbEntity
  8
Blade
  6
ByLayer
 62
  256
370
   -1
100
AcDbCircle
 10
-2620.682379906484
 20
246.1751012092834
 40
1000
100
AcDbArc
 50
347.2219382890485
 51
354.4039427640774
  0
ARC
  5
136
100
AcDbEntity
  8
Blade
  6
ByLayer
 62
  256
370
   -1
100
AcDbCircle
 10
-670.2141544743832
 20
246.1751012092838
 40
1000
100
AcDbArc
 50
185.5960572359225
 51
192.7780617109515
  0
ENDSEC
  0
SECTION
  2
OBJECTS
  0
DICTIONARY
  5
C
330
0
100
AcDbDictionary
281
    1
  3
ACAD_GROUP
350
D
  0
DICTIONARY
  5
D
330
C
100
AcDbDictionary
281
    1
  0
PLOTSETTINGS
  5
137
100
AcDbPlotSettings
  6
1x1
 40
0
 41
0
 42
0
 43
0
  0
ENDSEC
  0
EOF
