999
dxfrw 0.6.3
  0
SECTION
  2
HEADER
  9
$ACADVER
  1
AC1021
  9
$DWGCODEPAGE
  3
ANSI_1252
  9
$INSBASE
 10
0
 20
0
 30
0
  9
$EXTMIN
 10
-866.0254037844387
 20
-50
 30
0
  9
$EXTMAX
 10
866.0254037844384
 20
400
 30
0
  9
$LIMMIN
 10
0
 20
0
  9
$LIMMAX
 10
420
 20
297
  9
$ORTHOMODE
 70
    0
  9
$REGENMODE
 70
    1
  9
$FILLMODE
 70
    1
  9
$QTEXTMODE
 70
    0
  9
$MIRRTEXT
 70
    0
  9
$LTSCALE
 40
1
  9
$ATTMODE
 70
    0
  9
$TEXTSIZE
 40
2.5
  9
$TRACEWID
 40
15.68
  9
$TEXTSTYLE
  7
STANDARD
  9
$CLAYER
  8
0
  9
$CELTYPE
  6
BYLAYER
  9
$CECOLOR
 62
  256
  9
$CELTSCALE
 40
1
  9
$DISPSILH
 70
    0
  9
$DIMSCALE
 40
2.5
  9
$DIMASZ
 40
2.5
  9
$DIMEXO
 40
0.625
  9
$DIMDLI
 40
3.75
  9
$DIMRND
 40
0
  9
$DIMDLE
 40
0
  9
$DIMEXE
 40
1.25
  9
$DIMTP
 40
0
  9
$DIMTM
 40
0
  9
$DIMTXT
 40
2.5
  9
$DIMCEN
 40
2.5
  9
$DIMTSZ
 40
0
  9
$DIMTOL
 70
    0
  9
$DIMLIM
 70
    0
  9
$DIMTIH
 70
    0
  9
$DIMTOH
 70
    0
  9
$DIMSE1
 70
    0
  9
$DIMSE2
 70
    0
  9
$DIMTAD
 70
    1
  9
$DIMZIN
 70
    8
  9
$DIMBLK
  1

  9
$DIMASO
 70
    1
  9
$DIMSHO
 70
    1
  9
$DIMPOST
  1

  9
$DIMAPOST
  1

  9
$DIMALT
 70
    0
  9
$DIMALTD
 70
    3
  9
$DIMALTF
 40
0.03937
  9
$DIMLFAC
 40
1
  9
$DIMTOFL
 70
    1
  9
$DIMTVP
 40
0
  9
$DIMTIX
 70
    0
  9
$DIMSOXD
 70
    0
  9
$DIMSAH
 70
    0
  9
$DIMBLK1
  1

  9
$DIMBLK2
  1

  9
$DIMSTYLE
  2
STANDARD
  9
$DIMCLRD
 70
    0
  9
$DIMCLRE
 70
    0
  9
$DIMCLRT
 70
    0
  9
$DIMTFAC
 40
1
  9
$DIMGAP
 40
0.625
  9
$DIMJUST
 70
    0
  9
$DIMSD1
 70
    0
  9
$DIMSD2
 70
    0
  9
$DIMTOLJ
 70
    0
  9
$DIMTZIN
 70
    8
  9
$DIMALTZ
 70
    0
  9
$DIMALTTZ
 70
    0
  9
$DIMUPT
 70
    0
  9
$DIMDEC
 70
    2
  9
$DIMTDEC
 70
    2
  9
$DIMALTU
 70
    2
  9
$DIMALTTD
 70
    3
  9
$DIMTXSTY
  7
standard
  9
$DIMAUNIT
 70
    0
  9
$DIMADEC
 70
    0
  9
$DIMALTRND
 40
0
  9
$DIMAZIN
 70
    0
  9
$DIMDSEP
 70
   44
  9
$DIMATFIT
 70
    3
  9
$DIMFRAC
 70
    0
  9
$DIMLDRBLK
  1
STANDARD
  9
$DIMLUNIT
 70
    2
  9
$DIMLWD
 70
   -2
  9
$DIMLWE
 70
   -2
  9
$DIMTMOVE
 70
    0
  9
$DIMFXL
 40
1
  9
$DIMFXLON
 70
    0
  9
$DIMJOGANG
 40
0.7854
  9
$DIMTFILL
 70
    0
  9
$DIMTFILLCLR
 70
    0
  9
$DIMARCSYM
 70
    0
  9
$DIMLTYPE
  6

  9
$DIMLTEX1
  6

  9
$DIMLTEX2
  6

  9
$LUNITS
 70
    2
  9
$LUPREC
 70
    4
  9
$SKETCHINC
 40
1
  9
$FILLETRAD
 40
0
  9
$AUNITS
 70
    0
  9
$AUPREC
 70
    2
  9
$MENU
  1
.
  9
$ELEVATION
 40
0
  9
$PELEVATION
 40
0
  9
$THICKNESS
 40
0
  9
$LIMCHECK
 70
    0
  9
$CHAMFERA
 40
0
  9
$CHAMFERB
 40
0
  9
$CHAMFERC
 40
0
  9
$CHAMFERD
 40
0
  9
$SKPOLY
 70
    0
  9
$USRTIMER
 70
    1
  9
$ANGBASE
 50
0
  9
$ANGDIR
 70
    0
  9
$PDMODE
 70
   34
  9
$PDSIZE
 40
0
  9
$PLINEWID
 40
0
  9
$SPLFRAME
 70
    0
  9
$SPLINETYPE
 70
    2
  9
$SPLINESEGS
 70
    8
  9
$HANDSEED
  5
20000
  9
$SURFTAB1
 70
    6
  9
$SURFTAB2
 70
    6
  9
$SURFTYPE
 70
    6
  9
$SURFU
 70
    6
  9
$SURFV
 70
    6
  9
$UCSBASE
  2

  9
$UCSNAME
  2

  9
$UCSORG
 10
0
 20
0
 30
0
  9
$UCSXDIR
 10
1
 20
0
 30
0
  9
$UCSYDIR
 10
0
 20
1
 30
0
  9
$UCSORTHOREF
  2

  9
$UCSORTHOVIEW
 70
    0
  9
$UCSORGTOP
 10
0
 20
0
 30
0
  9
$UCSORGBOTTOM
 10
0
 20
0
 30
0
  9
$UCSORGLEFT
 10
0
 20
0
 30
0
  9
$UCSORGRIGHT
 10
0
 20
0
 30
0
  9
$UCSORGFRONT
 10
0
 20
0
 30
0
  9
$UCSORGBACK
 10
0
 20
0
 30
0
  9
$PUCSBASE
  2

  9
$PUCSNAME
  2

  9
$PUCSORG
 10
0
 20
0
 30
0
  9
$PUCSXDIR
 10
1
 20
0
 30
0
  9
$PUCSYDIR
 10
0
 20
1
 30
0
  9
$PUCSORTHOREF
  2

  9
$PUCSORTHOVIEW
 70
    0
  9
$PUCSORGTOP
 10
0
 20
0
 30
0
  9
$PUCSORGBOTTOM
 10
0
 20
0
 30
0
  9
$PUCSORGLEFT
 10
0
 20
0
 30
0
  9
$PUCSORGRIGHT
 10
0
 20
0
 30
0
  9
$PUCSORGFRONT
 10
0
 20
0
 30
0
  9
$PUCSORGBACK
 10
0
 20
0
 30
0
  9
$USERI1
 70
    0
  9
$USERI2
 70
    0
  9
$USERI3
 70
    0
  9
$USERI4
 70
    0
  9
$USERI5
 70
    0
  9
$USERR1
 40
0
  9
$USERR2
 40
0
  9
$USERR3
 40
0
  9
$USERR4
 40
0
  9
$USERR5
 40
0
  9
$WORLDVIEW
 70
    1
  9
$SHADEDGE
 70
    3
  9
$SHADEDIF
 70
   70
  9
$TILEMODE
 70
    1
  9
$MAXACTVP
 70
   64
  9
$PINSBASE
 10
105
 20
127.2823776072812
 30
0
  9
$PLIMCHECK
 70
    0
  9
$PEXTMIN
 10
0
 20
0
 30
0
  9
$PEXTMAX
 10
0
 20
0
 30
0
  9
$GRIDMODE
 70
    1
  9
$SNAPSTYLE
 70
    1
  9
$GRIDUNIT
 10
0
 20
0
  9
$PLIMMIN
 10
0
 20
0
  9
$PLIMMAX
 10
210
 20
297
  9
$UNITMODE
 70
    0
  9
$VISRETAIN
 70
    1
  9
$PLINEGEN
 70
    0
  9
$PSLTSCALE
 70
    1
  9
$TREEDEPTH
 70
 3020
  9
$CMLSTYLE
  2
Standard
  9
$CMLJUST
 70
    0
  9
$CMLSCALE
 40
20
  9
$PROXYGRAPHICS
 70
    1
  9
$MEASUREMENT
 70
    1
  9
$CELWEIGHT
370
   -1
  9
$ENDCAPS
280
    0
  9
$JOINSTYLE
280
    0
  9
$LWDISPLAY
290
    0
  9
$INSUNITS
 70
    4
  9
$HYPERLINKBASE
  1

  9
$STYLESHEET
  1

  9
$XEDIT
290
    1
  9
$CEPSNTYPE
380
    0
  9
$PSTYLEMODE
290
    1
  9
$EXTNAMES
290
    1
  9
$PSVPSCALE
 40
0.1212435710596446
  9
$OLESTARTUP
290
    0
  9
$SORTENTS
280
  127
  9
$INDEXCTL
280
    0
  9
$HIDETEXT
280
    1
  9
$XCLIPFRAME
290
    0
  9
$HALOGAP
280
    0
  9
$OBSCOLOR
 70
  257
  9
$OBSLTYPE
280
    0
  9
$INTERSECTIONDISPLAY
280
    0
  9
$INTERSECTIONCOLOR
 70
  257
  9
$DIMASSOC
280
    1
  9
$PROJECTNAME
  1

  9
$CAMERADISPLAY
290
    0
  9
$LENSLENGTH
 40
50
  9
$CAMERAHEIGHT
 40
0
  9
$STEPSPERSEC
 40
2
  9
$STEPSIZE
 40
50
  9
$3DDWFPREC
 40
2
  9
$PSOLWIDTH
 40
5
  9
$PSOLHEIGHT
 40
80
  9
$LOFTANG1
 40
1.570796326794897
  9
$LOFTANG2
 40
1.570796326794897
  9
$LOFTMAG1
 40
0
  9
$LOFTMAG2
 40
0
  9
$LOFTPARAM
 70
    7
  9
$LOFTNORMALS
280
    1
  9
$LATITUDE
 40
1
  9
$LONGITUDE
 40
1
  9
$NORTHDIRECTION
 40
0
  9
$TIMEZONE
 70
-8000
  9
$LIGHTGLYPHDISPLAY
280
    1
  9
$TILEMODELIGHTSYNCH
280
    1
  9
$SOLIDHIST
280
    1
  9
$SHOWHIST
280
    1
  9
$DWFFRAME
280
    2
  9
$DGNFRAME
280
    0
  9
$REALWORLDSCALE
290
    1
  9
$INTERFERECOLOR
 62
    1
  9
$CSHADOW
280
    0
  9
$SHADOWPLANELOCATION
 40
0
  0
ENDSEC
  0
SECTION
  2
CLASSES
  0
ENDSEC
  0
SECTION
  2
TABLES
  0
TABLE
  2
VPORT
  5
8
330
0
100
AcDbSymbolTable
 70
    1
  0
VPORT
  5
31
330
2
100
AcDbSymbolTableRecord
100
AcDbViewportTableRecord
  2
*ACTIVE
 70
    0
 10
0
 20
0
 11
1
 21
1
 12
438.5358230898242
 22
251.8543266107806
 13
0
 23
0
 14
10
 24
10
 15
10
 25
10
 16
0
 26
0
 36
1
 17
0
 27
0
 37
0
 40
656.1467982754548
 41
2.673400673400673
 42
50
 43
0
 44
0
 50
0
 51
0
 71
    0
 72
  100
 73
    1
 74
    3
 75
    0
 76
    1
 77
    1
 78
    0
281
    0
 65
    1
110
0
120
0
130
0
111
1
121
0
131
0
112
0
122
1
132
0
 79
    0
146
0
348
10020
 60
    7
 61
    5
292
1
282
    1
141
0
142
0
 63
  250
421
3358443
  0
ENDTAB
  0
TABLE
  2
LTYPE
  5
5
330
0
100
AcDbSymbolTable
 70
    4
  0
LTYPE
  5
14
330
5
100
AcDbSymbolTableRecord
100
AcDbLinetypeTableRecord
  2
ByBlock
 70
    0
  3

 72
   65
 73
    0
 40
0
  0
LTYPE
  5
15
330
5
100
AcDbSymbolTableRecord
100
AcDbLinetypeTableRecord
  2
ByLayer
 70
    0
  3

 72
   65
 73
    0
 40
0
  0
LTYPE
  5
16
330
5
100
AcDbSymbolTableRecord
100
AcDbLinetypeTableRecord
  2
Continuous
 70
    0
  3
Solid line
 72
   65
 73
    0
 40
0
  0
LTYPE
  5
32
330
5
100
AcDbSymbolTableRecord
100
AcDbLinetypeTableRecord
  2
DOT
 70
    0
  3
Dot . . . . . . . . . . . . . . . . . . . . . .
 72
   65
 73
    2
 40
6.35
 49
0
 74
    0
 49
-6.35
 74
    0
  0
LTYPE
  5
33
330
5
100
AcDbSymbolTableRecord
100
AcDbLinetypeTableRecord
  2
DOTTINY
 70
    0
  3
Dot (.15x) .....................................
 72
   65
 73
    2
 40
0.9525
 49
0
 74
    0
 49
-0.9525
 74
    0
  0
LTYPE
  5
34
330
5
100
AcDbSymbolTableRecord
100
AcDbLinetypeTableRecord
  2
DOT2
 70
    0
  3
Dot (.5x) .....................................
 72
   65
 73
    2
 40
3.175
 49
0
 74
    0
 49
-3.175
 74
    0
  0
LTYPE
  5
35
330
5
100
AcDbSymbolTableRecord
100
AcDbLinetypeTableRecord
  2
DOTX2
 70
    0
  3
Dot (2x) .  .  .  .  .  .  .  .  .  .  .  .  .
 72
   65
 73
    2
 40
12.7
 49
0
 74
    0
 49
-12.7
 74
    0
  0
LTYPE
  5
36
330
5
100
AcDbSymbolTableRecord
100
AcDbLinetypeTableRecord
  2
DASHED
 70
    0
  3
Dashed _ _ _ _ _ _ _ _ _ _ _ _ _ _ _ _ _
 72
   65
 73
    2
 40
19.05
 49
12.7
 74
    0
 49
-6.35
 74
    0
  0
LTYPE
  5
37
330
5
100
AcDbSymbolTableRecord
100
AcDbLinetypeTableRecord
  2
DASHEDTINY
 70
    0
  3
Dashed (.15x) _ _ _ _ _ _ _ _ _ _ _ _ _ _ _ _ _
 72
   65
 73
    2
 40
2.8575
 49
1.905
 74
    0
 49
-0.9525
 74
    0
  0
LTYPE
  5
38
330
5
100
AcDbSymbolTableRecord
100
AcDbLinetypeTableRecord
  2
DASHED2
 70
    0
  3
Dashed (.5x) _ _ _ _ _ _ _ _ _ _ _ _ _ _ _ _ _
 72
   65
 73
    2
 40
9.524999999999999
 49
6.35
 74
    0
 49
-3.175
 74
    0
  0
LTYPE
  5
39
330
5
100
AcDbSymbolTableRecord
100
AcDbLinetypeTableRecord
  2
DASHEDX2
 70
    0
  3
Dashed (2x) ____  ____  ____  ____  ____  ___
 72
   65
 73
    2
 40
38.09999999999999
 49
25.4
 74
    0
 49
-12.7
 74
    0
  0
LTYPE
  5
3A
330
5
100
AcDbSymbolTableRecord
100
AcDbLinetypeTableRecord
  2
DASHDOT
 70
    0
  3
Dash dot __ . __ . __ . __ . __ . __ . __ . __
 72
   65
 73
    4
 40
25.4
 49
12.7
 74
    0
 49
-6.35
 74
    0
 49
0
 74
    0
 49
-6.35
 74
    0
  0
LTYPE
  5
3B
330
5
100
AcDbSymbolTableRecord
100
AcDbLinetypeTableRecord
  2
DASHDOTTINY
 70
    0
  3
Dash dot (.15x) _._._._._._._._._._._._._._._.
 72
   65
 73
    4
 40
3.81
 49
1.905
 74
    0
 49
-0.9525
 74
    0
 49
0
 74
    0
 49
-0.9525
 74
    0
  0
LTYPE
  5
3C
330
5
100
AcDbSymbolTableRecord
100
AcDbLinetypeTableRecord
  2
DASHDOT2
 70
    0
  3
Dash dot (.5x) _._._._._._._._._._._._._._._.
 72
   65
 73
    4
 40
12.7
 49
6.35
 74
    0
 49
-3.175
 74
    0
 49
0
 74
    0
 49
-3.175
 74
    0
  0
LTYPE
  5
3D
330
5
100
AcDbSymbolTableRecord
100
AcDbLinetypeTableRecord
  2
DASHDOTX2
 70
    0
  3
Dash dot (2x) ____  .  ____  .  ____  .  ___
 72
   65
 73
    4
 40
50.8
 49
25.4
 74
    0
 49
-12.7
 74
    0
 49
0
 74
    0
 49
-12.7
 74
    0
  0
LTYPE
  5
3E
330
5
100
AcDbSymbolTableRecord
100
AcDbLinetypeTableRecord
  2
DIVIDE
 70
    0
  3
Divide ____ . . ____ . . ____ . . ____ . . ____
 72
   65
 73
    6
 40
31.75
 49
12.7
 74
    0
 49
-6.35
 74
    0
 49
0
 74
    0
 49
-6.35
 74
    0
 49
0
 74
    0
 49
-6.35
 74
    0
  0
LTYPE
  5
3F
330
5
100
AcDbSymbolTableRecord
100
AcDbLinetypeTableRecord
  2
DIVIDETINY
 70
    0
  3
Divide (.15x) __..__..__..__..__..__..__..__.._
 72
   65
 73
    6
 40
4.7625
 49
1.905
 74
    0
 49
-0.9525
 74
    0
 49
0
 74
    0
 49
-0.9525
 74
    0
 49
0
 74
    0
 49
-0.9525
 74
    0
  0
LTYPE
  5
40
330
5
100
AcDbSymbolTableRecord
100
AcDbLinetypeTableRecord
  2
DIVIDE2
 70
    0
  3
Divide (.5x) __..__..__..__..__..__..__..__.._
 72
   65
 73
    6
 40
15.875
 49
6.35
 74
    0
 49
-3.175
 74
    0
 49
0
 74
    0
 49
-3.175
 74
    0
 49
0
 74
    0
 49
-3.175
 74
    0
  0
LTYPE
  5
41
330
5
100
AcDbSymbolTableRecord
100
AcDbLinetypeTableRecord
  2
DIVIDEX2
 70
    0
  3
Divide (2x) ________  .  .  ________  .  .  _
 72
   65
 73
    6
 40
63.5
 49
25.4
 74
    0
 49
-12.7
 74
    0
 49
0
 74
    0
 49
-12.7
 74
    0
 49
0
 74
    0
 49
-12.7
 74
    0
  0
LTYPE
  5
42
330
5
100
AcDbSymbolTableRecord
100
AcDbLinetypeTableRecord
  2
BORDER
 70
    0
  3
Border __ __ . __ __ . __ __ . __ __ . __ __ .
 72
   65
 73
    6
 40
44.45
 49
12.7
 74
    0
 49
-6.35
 74
    0
 49
12.7
 74
    0
 49
-6.35
 74
    0
 49
0
 74
    0
 49
-6.35
 74
    0
  0
LTYPE
  5
43
330
5
100
AcDbSymbolTableRecord
100
AcDbLinetypeTableRecord
  2
BORDERTINY
 70
    0
  3
Border (.15x) __.__.__.__.__.__.__.__.__.__.__.
 72
   65
 73
    6
 40
6.6675
 49
1.905
 74
    0
 49
-0.9525
 74
    0
 49
1.905
 74
    0
 49
-0.9525
 74
    0
 49
0
 74
    0
 49
-0.9525
 74
    0
  0
LTYPE
  5
44
330
5
100
AcDbSymbolTableRecord
100
AcDbLinetypeTableRecord
  2
BORDER2
 70
    0
  3
Border (.5x) __.__.__.__.__.__.__.__.__.__.__.
 72
   65
 73
    6
 40
22.225
 49
6.35
 74
    0
 49
-3.175
 74
    0
 49
6.35
 74
    0
 49
-3.175
 74
    0
 49
0
 74
    0
 49
-3.175
 74
    0
  0
LTYPE
  5
45
330
5
100
AcDbSymbolTableRecord
100
AcDbLinetypeTableRecord
  2
BORDERX2
 70
    0
  3
Border (2x) ____  ____  .  ____  ____  .  ___
 72
   65
 73
    6
 40
88.89999999999999
 49
25.4
 74
    0
 49
-12.7
 74
    0
 49
25.4
 74
    0
 49
-12.7
 74
    0
 49
0
 74
    0
 49
-12.7
 74
    0
  0
LTYPE
  5
46
330
5
100
AcDbSymbolTableRecord
100
AcDbLinetypeTableRecord
  2
CENTER
 70
    0
  3
Center ____ _ ____ _ ____ _ ____ _ ____ _ ____
 72
   65
 73
    4
 40
50.8
 49
31.75
 74
    0
 49
-6.35
 74
    0
 49
6.35
 74
    0
 49
-6.35
 74
    0
  0
LTYPE
  5
47
330
5
100
AcDbSymbolTableRecord
100
AcDbLinetypeTableRecord
  2
CENTERTINY
 70
    0
  3
Center (.15x) ___ _ ___ _ ___ _ ___ _ ___ _ ___
 72
   65
 73
    4
 40
7.619999999999999
 49
4.7625
 74
    0
 49
-0.9525
 74
    0
 49
0.9525
 74
    0
 49
-0.9525
 74
    0
  0
LTYPE
  5
48
330
5
100
AcDbSymbolTableRecord
100
AcDbLinetypeTableRecord
  2
CENTER2
 70
    0
  3
Center (.5x) ___ _ ___ _ ___ _ ___ _ ___ _ ___
 72
   65
 73
    4
 40
28.575
 49
19.05
 74
    0
 49
-3.175
 74
    0
 49
3.175
 74
    0
 49
-3.175
 74
    0
  0
LTYPE
  5
49
330
5
100
AcDbSymbolTableRecord
100
AcDbLinetypeTableRecord
  2
CENTERX2
 70
    0
  3
Center (2x) ________  __  ________  __  _____
 72
   65
 73
    4
 40
101.6
 49
63.5
 74
    0
 49
-12.7
 74
    0
 49
12.7
 74
    0
 49
-12.7
 74
    0
  0
ENDTAB
  0
TABLE
  2
LAYER
  5
2
330
0
100
AcDbSymbolTable
 70
    1
  0
LAYER
  5
10
330
2
100
AcDbSymbolTableRecord
100
AcDbLayerTableRecord
  2
0
 70
    0
 62
    7
  6
CONTINUOUS
370
    0
390
F
  0
LAYER
  5
4A
330
2
100
AcDbSymbolTableRecord
100
AcDbLayerTableRecord
  2
Dark_steel
 70
    0
 62
  251
420
6710886
  6
CONTINUOUS
370
    0
390
F
  0
LAYER
  5
4B
330
2
100
AcDbSymbolTableRecord
100
AcDbLayerTableRecord
  2
Light_steel
 70
    0
 62
  253
420
10066329
  6
CONTINUOUS
370
    0
390
F
  0
LAYER
  5
4C
330
2
100
AcDbSymbolTableRecord
100
AcDbLayerTableRecord
  2
handle
 70
    0
 62
   16
  6
CONTINUOUS
370
    0
390
F
  0
LAYER
  5
4D
330
2
100
AcDbSymbolTableRecord
100
AcDbLayerTableRecord
  2
unsharpened_ricasso
 70
    0
 62
  171
  6
CONTINUOUS
370
   -3
390
F
  0
ENDTAB
  0
TABLE
  2
STYLE
  5
3
330
0
100
AcDbSymbolTable
 70
    3
  0
STYLE
  5
4E
330
2
100
AcDbSymbolTableRecord
100
AcDbTextStyleTableRecord
  2
romanc
 70
    0
 40
0
 41
1
 50
0
 71
    0
 42
1
  3
romanc
  4

  0
STYLE
  5
4F
330
2
100
AcDbSymbolTableRecord
100
AcDbTextStyleTableRecord
  2
Standard
 70
    0
 40
0
 41
1
 50
0
 71
    0
 42
1
  3
txt
  4

  0
ENDTAB
  0
TABLE
  2
VIEW
  5
6
330
0
100
AcDbSymbolTable
 70
    0
  0
ENDTAB
  0
TABLE
  2
UCS
  5
7
330
0
100
AcDbSymbolTable
 70
    0
  0
ENDTAB
  0
TABLE
  2
APPID
  5
9
330
0
100
AcDbSymbolTable
 70
    1
  0
APPID
  5
12
330
9
100
AcDbSymbolTableRecord
100
AcDbRegAppTableRecord
  2
ACAD
 70
    0
  0
APPID
  5
50
330
9
100
AcDbSymbolTableRecord
100
AcDbRegAppTableRecord
  2
LibreCad
 70
    0
  0
ENDTAB
  0
TABLE
  2
DIMSTYLE
  5
A
330
0
100
AcDbSymbolTable
 70
    1
100
AcDbDimStyleTable
 71
    1
  0
DIMSTYLE
105
51
330
A
100
AcDbSymbolTableRecord
100
AcDbDimStyleTableRecord
  2
Standard
 70
    0
 40
2.5
 41
2.5
 42
0.625
 43
0.38
 44
1.25
 45
0
 46
0
 47
0
 48
0
 49
1
140
2.5
141
0.09
142
0
143
25.4
144
1
145
0
146
1
147
0.625
148
0
 71
    0
 72
    0
 73
    0
 74
    1
 75
    0
 76
    0
 77
    0
 78
    8
 79
    0
170
    0
171
    2
172
    0
173
    0
174
    0
175
    0
176
    0
177
    0
178
    0
179
    0
271
    2
272
    4
273
    2
274
    2
275
    0
276
    0
277
    2
278
   44
279
    0
280
    0
281
    0
282
    0
283
    1
284
    0
285
    0
286
    0
288
    0
289
    3
340
4F
  0
ENDTAB
  0
TABLE
  2
BLOCK_RECORD
  5
1
330
0
100
AcDbSymbolTable
 70
    2
  0
BLOCK_RECORD
  5
1F
330
1
100
AcDbSymbolTableRecord
100
AcDbBlockTableRecord
  2
*Model_Space
 70
    0
280
    1
281
    0
  0
BLOCK_RECORD
  5
1E
330
1
100
AcDbSymbolTableRecord
100
AcDbBlockTableRecord
  2
*Paper_Space
 70
    0
280
    1
281
    0
  0
ENDTAB
  0
ENDSEC
  0
SECTION
  2
BLOCKS
  0
BLOCK
  5
20
330
1F
100
AcDbEntity
  8
0
100
AcDbBlockBegin
  2
*Model_Space
 70
    0
 10
0
 20
0
 30
0
  3
*Model_Space
  1

  0
ENDBLK
  5
21
330
1F
100
AcDbEntity
  8
0
100
AcDbBlockEnd
  0
BLOCK
  5
1C
330
1B
100
AcDbEntity
  8
0
100
AcDbBlockBegin
  2
*Paper_Space
 70
    0
 10
0
 20
0
 30
0
  3
*Paper_Space
  1

  0
ENDBLK
  5
1D
330
1F
100
AcDbEntity
  8
0
100
AcDbBlockEnd
  0
ENDSEC
  0
SECTION
  2
ENTITIES
  0
HATCH
  5
52
100
AcDbEntity
  8
Dark_steel
  6
ByLayer
 62
  256
370
   -1
100
AcDbHatch
 10
0
 20
0
 30
0
210
0
220
0
230
1
  2
SOLID
 70
    1
 71
    0
 91
    1
 92
    0
 93
   31
 72
    1
 10
-320
 20
70
 11
320
 21
70
 72
    2
 10
320
 20
55
 40
15
 50
270
 51
360
 73
    0
 72
    1
 10
335
 20
55
 11
335
 21
-1.35003119794419e-13
 72
    1
 10
335
 20
-1.35003119794419e-13
 11
374.9999999999997
 21
-9.237055564881302e-14
 72
    2
 10
375.0000000000013
 20
2019.999999999989
 40
2019.999999999989
 50
269.9999999999999
 51
281.4211862749993
 73
    1
 72
    1
 10
775
 20
39.99999999999986
 11
657.8427124144339
 21
29.99999999144552
 72
    1
 10
657.8427124144335
 20
29.99999999144569
 11
415.00000000073
 21
29.99999997371467
 72
    2
 10
414.9999999999999
 20
59.99999997371467
 40
30
 50
90.00000000000016
 51
180.0000000000001
 73
    0
 72
    1
 10
384.9999999999999
 20
59.99999997371471
 11
384.9999999999999
 21
109.1681084241533
 72
    2
 10
374.9999999999968
 20
109.168108424154
 40
10.00000000000318
 50
359.999999999996
 51
4.763641690727451
 73
    1
 72
    1
 10
384.9654575824487
 20
109.9985632226919
 11
375
 21
229.5840542120774
 72
    1
 10
375
 20
229.5840542120774
 11
366.4937148401544
 21
127.5086322939325
 72
    2
 10
336.5973423686795
 20
129.9999999999999
 40
30
 50
4.763648035145059
 51
89.9999999999999
 73
    0
 72
    1
 10
336.5973423686796
 20
99.99999999999989
 11
38.40265763132045
 21
100
 72
    2
 10
38.40265763132051
 20
130
 40
30
 50
90.0000000000001
 51
175.2363519648548
 73
    0
 72
    1
 10
8.506285159845579
 20
127.5086322939325
 11
1.77635683940025e-14
 21
229.5840542120779
 72
    1
 10
1.77635683940025e-14
 20
229.5840542120779
 11
-8.50628515984555
 21
127.5086322939326
 72
    2
 10
-38.40265763132049
 20
130
 40
30
 50
4.763648035145059
 51
89.9999999999999
 73
    0
 72
    1
 10
-38.40265763132044
 20
100
 11
-336.5973423686796
 21
100.0000000000001
 72
    2
 10
-336.5973423686795
 20
130.0000000000001
 40
30
 50
90.0000000000001
 51
175.2363519648548
 73
    0
 72
    1
 10
-366.4937148401544
 20
127.5086322939327
 11
-375
 21
229.5840542120781
 72
    1
 10
-375
 20
229.5840542120781
 11
-384.9654575824488
 21
109.9985632226916
 72
    2
 10
-375
 20
109.1681084241552
 40
9.999999999999964
 50
175.2363583092795
 51
179.9999999999996
 73
    1
 72
    1
 10
-384.9999999999999
 20
109.1681084241553
 11
-385.0000000000001
 21
60.00000887570659
 72
    2
 10
-415.0000000000001
 20
60.00000887570665
 40
30
 50
1.017777498068325e-13
 51
90
 73
    0
 72
    1
 10
-415.0000000000001
 20
30.00000887570665
 11
-657.8427327971459
 21
30.00000288848205
 72
    1
 10
-657.8427327971459
 20
30.00000288848205
 11
-774.9999999999968
 21
39.99999999999955
 72
    2
 10
-375.0000000000013
 20
2019.999999999979
 40
2019.999999999979
 50
258.5788137250007
 51
270.0000000000001
 73
    1
 72
    1
 10
-374.9999999999999
 20
-2.273736754432321e-13
 11
-335
 21
-1.35003119794419e-13
 72
    1
 10
-335
 20
-1.35003119794419e-13
 11
-335
 21
55
 72
    2
 10
-320
 20
55
 40
15
 50
180
 51
270
 73
    0
 97
    0
 75
    0
 76
    1
 98
    0
  0
HATCH
  5
53
100
AcDbEntity
  8
Light_steel
  6
ByLayer
 62
  256
370
   -1
100
AcDbHatch
 10
0
 20
0
 30
0
210
0
220
0
230
1
  2
SOLID
 70
    1
 71
    0
 91
    1
 92
    0
 93
   42
 72
    2
 10
38.40265763132051
 20
130
 40
20
 50
184.7636480351452
 51
269.9999999999999
 73
    1
 72
    1
 10
38.40265763132049
 20
110
 11
336.5973423686795
 21
109.9999999999999
 72
    2
 10
336.5973423686795
 20
129.9999999999999
 40
20
 50
270.0000000000001
 51
355.2363519648549
 73
    1
 72
    1
 10
356.5282573496628
 20
128.339088195955
 11
375
 21
349.9999999999999
 72
    1
 10
375
 20
349.9999999999999
 11
394.9309151648975
 21
110.8290180212295
 72
    2
 10
374.9999999999968
 20
109.168108424154
 40
20.00000000000318
 50
355.2363583092725
 51
3.969332242466469e-12
 73
    0
 72
    1
 10
394.9999999999999
 20
109.168108424154
 11
394.9999999999999
 21
59.99999997371469
 72
    2
 10
414.9999999999999
 20
59.99999997371467
 40
20
 50
179.9999999999999
 51
269.9999999999998
 73
    1
 72
    1
 10
414.9999999999999
 20
39.99999997371467
 11
775
 21
39.99999999999986
 72
    1
 10
775
 20
39.99999999999986
 11
657.8427124144339
 21
29.99999999144552
 72
    1
 10
657.8427124144335
 20
29.99999999144569
 11
415.00000000073
 21
29.99999997371467
 72
    2
 10
414.9999999999999
 20
59.99999997371467
 40
30
 50
90.00000000000016
 51
180.0000000000001
 73
    0
 72
    1
 10
384.9999999999999
 20
59.99999997371471
 11
384.9999999999999
 21
109.1681084241533
 72
    2
 10
374.9999999999968
 20
109.168108424154
 40
10.00000000000318
 50
359.999999999996
 51
4.763641690727451
 73
    1
 72
    1
 10
384.9654575824487
 20
109.9985632226919
 11
375
 21
229.5840542120774
 72
    1
 10
375
 20
229.5840542120774
 11
366.4937148401544
 21
127.5086322939325
 72
    2
 10
336.5973423686795
 20
129.9999999999999
 40
30
 50
4.763648035145059
 51
89.9999999999999
 73
    0
 72
    1
 10
336.5973423686796
 20
99.99999999999989
 11
38.40265763132045
 21
100
 72
    2
 10
38.40265763132051
 20
130
 40
30
 50
90.0000000000001
 51
175.2363519648548
 73
    0
 72
    1
 10
8.506285159845579
 20
127.5086322939325
 11
1.77635683940025e-14
 21
229.5840542120779
 72
    1
 10
1.77635683940025e-14
 20
229.5840542120779
 11
-8.50628515984555
 21
127.5086322939326
 72
    2
 10
-38.40265763132049
 20
130
 40
30
 50
4.763648035145059
 51
89.9999999999999
 73
    0
 72
    1
 10
-38.40265763132044
 20
100
 11
-336.5973423686796
 21
100.0000000000001
 72
    2
 10
-336.5973423686795
 20
130.0000000000001
 40
30
 50
90.0000000000001
 51
175.2363519648548
 73
    0
 72
    1
 10
-366.4937148401544
 20
127.5086322939327
 11
-375
 21
229.5840542120781
 72
    1
 10
-375
 20
229.5840542120781
 11
-384.9654575824488
 21
109.9985632226916
 72
    2
 10
-375
 20
109.1681084241552
 40
9.999999999999964
 50
175.2363583092795
 51
179.9999999999996
 73
    1
 72
    1
 10
-384.9999999999999
 20
109.1681084241553
 11
-385.0000000000001
 21
60.00000887570659
 72
    2
 10
-415.0000000000001
 20
60.00000887570665
 40
30
 50
1.017777498068325e-13
 51
90
 73
    0
 72
    1
 10
-415.0000000000001
 20
30.00000887570665
 11
-657.8427327971459
 21
30.00000288848205
 72
    1
 10
-657.8427327971459
 20
30.00000288848205
 11
-774.9999999999968
 21
39.99999999999955
 72
    1
 10
-775
 20
40.00000000000002
 11
-415.0000000000001
 21
40.00000887570665
 72
    2
 10
-415.0000000000001
 20
60.00000887570665
 40
20
 50
270
 51
359.9999999999999
 73
    1
 72
    1
 10
-395.0000000000001
 20
60.00000887570661
 11
-394.9999999999999
 21
109.1681084241553
 72
    2
 10
-375
 20
109.1681084241552
 40
19.99999999999996
 50
180.0000000000004
 51
184.7636416907205
 73
    0
 72
    1
 10
-394.9309151648977
 20
110.829018021228
 11
-375
 21
350.0000000000001
 72
    1
 10
-375
 20
350.0000000000001
 11
-356.5282573496628
 21
128.3390881959552
 72
    2
 10
-336.5973423686795
 20
130.0000000000001
 40
20
 50
184.7636480351452
 51
269.9999999999999
 73
    1
 72
    1
 10
-336.5973423686795
 20
110.0000000000001
 11
-38.40265763132048
 21
110
 72
    2
 10
-38.40265763132049
 20
130
 40
20
 50
270.0000000000001
 51
355.2363519648549
 73
    1
 72
    1
 10
-18.47174265033719
 20
128.3390881959551
 11
2.143131898507868e-14
 21
350
 72
    1
 10
2.143131898507868e-14
 20
350
 11
18.47174265033722
 21
128.339088195955
 97
    0
 75
    0
 76
    1
 98
    0
  0
HATCH
  5
54
100
AcDbEntity
  8
handle
  6
ByLayer
 62
  256
370
   -1
100
AcDbHatch
 10
0
 20
0
 30
0
210
0
220
0
230
1
  2
SOLID
 70
    1
 71
    0
 91
    1
 92
    0
 93
    6
 72
    1
 10
320
 20
40
 11
-320
 21
40
 72
    2
 10
-320
 20
55
 40
15
 50
90
 51
180
 73
    0
 72
    1
 10
-335
 20
55
 11
-335
 21
-1.35003119794419e-13
 72
    1
 10
-335
 20
-1.35003119794419e-13
 11
335
 21
-1.35003119794419e-13
 72
    1
 10
335
 20
-1.35003119794419e-13
 11
335
 21
55
 72
    2
 10
320
 20
55
 40
15
 50
360
 51
90
 73
    0
 97
    0
 75
    0
 76
    1
 98
    0
  0
LINE
  5
55
100
AcDbEntity
  8
unsharpened_ricasso
  6
ByLayer
 62
  256
370
   -1
100
AcDbLine
 10
-320
 20
70
 11
320
 21
70
  0
ARC
  5
56
100
AcDbEntity
  8
unsharpened_ricasso
  6
ByLayer
 62
  256
370
   -1
100
AcDbCircle
 10
-375.0000000000013
 20
2019.999999999979
 40
2019.999999999979
100
AcDbArc
 50
258.5788137250007
 51
270.0000000000001
  0
ARC
  5
57
100
AcDbEntity
  8
unsharpened_ricasso
  6
ByLayer
 62
  256
370
   -1
100
AcDbCircle
 10
375.0000000000013
 20
2019.999999999989
 40
2019.999999999989
100
AcDbArc
 50
269.9999999999999
 51
281.4211862749993
  0
ARC
  5
58
100
AcDbEntity
  8
unsharpened_ricasso
  6
ByLayer
 62
  256
370
   -1
100
AcDbCircle
 10
-320
 20
55
 40
15
100
AcDbArc
 50
90
 51
180
  0
ARC
  5
59
100
AcDbEntity
  8
unsharpened_ricasso
  6
ByLayer
 62
  256
370
   -1
100
AcDbCircle
 10
320
 20
55
 40
15
100
AcDbArc
 50
0
 51
90
  0
LINE
  5
5A
100
AcDbEntity
  8
unsharpened_ricasso
  6
ByLayer
 62
  256
370
   -1
100
AcDbLine
 10
-374.9999999999999
 20
-2.273736754432321e-13
 11
-335
 21
-1.35003119794419e-13
  0
LINE
  5
5B
100
AcDbEntity
  8
unsharpened_ricasso
  6
ByLayer
 62
  256
370
   -1
100
AcDbLine
 10
335
 20
-1.35003119794419e-13
 11
374.9999999999997
 21
-9.237055564881302e-14
  0
LINE
  5
5C
100
AcDbEntity
  8
handle
  6
ByLayer
 62
  256
370
   -1
100
AcDbLine
 10
320
 20
40
 11
-320
 21
40
  0
ARC
  5
5D
100
AcDbEntity
  8
handle
  6
ByLayer
 62
  256
370
   -1
100
AcDbCircle
 10
-320
 20
55
 40
15
100
AcDbArc
 50
180
 51
270
  0
ARC
  5
5E
100
AcDbEntity
  8
handle
  6
ByLayer
 62
  256
370
   -1
100
AcDbCircle
 10
320
 20
55
 40
15
100
AcDbArc
 50
270
 51
0
  0
LINE
  5
5F
100
AcDbEntity
  8
handle
  6
ByLayer
 62
  256
370
   -1
100
AcDbLine
 10
-335
 20
-1.35003119794419e-13
 11
335
 21
-1.35003119794419e-13
  0
ARC
  5
60
100
AcDbEntity
  8
Light_steel
  6
ByLayer
 62
  256
370
   -1
100
AcDbCircle
 10
38.40265763132051
 20
130
 40
20
100
AcDbArc
 50
184.7636480351452
 51
269.9999999999999
  0
ARC
  5
61
100
AcDbEntity
  8
Light_steel
  6
ByLayer
 62
  256
370
   -1
100
AcDbCircle
 10
-38.40265763132049
 20
130
 40
20
100
AcDbArc
 50
270.0000000000001
 51
355.2363519648549
  0
ARC
  5
62
100
AcDbEntity
  8
Light_steel
  6
ByLayer
 62
  256
370
   -1
100
AcDbCircle
 10
336.5973423686795
 20
129.9999999999999
 40
20
100
AcDbArc
 50
270.0000000000001
 51
355.2363519648549
  0
ARC
  5
63
100
AcDbEntity
  8
Light_steel
  6
ByLayer
 62
  256
370
   -1
100
AcDbCircle
 10
-336.5973423686795
 20
130.0000000000001
 40
20
100
AcDbArc
 50
184.7636480351452
 51
269.9999999999999
  0
LINE
  5
64
100
AcDbEntity
  8
Light_steel
  6
ByLayer
 62
  256
370
   -1
100
AcDbLine
 10
38.40265763132049
 20
110
 11
336.5973423686795
 21
109.9999999999999
  0
LINE
  5
65
100
AcDbEntity
  8
Light_steel
  6
ByLayer
 62
  256
370
   -1
100
AcDbLine
 10
-38.40265763132048
 20
110
 11
-336.5973423686795
 21
110.0000000000001
  0
LINE
  5
66
100
AcDbEntity
  8
Light_steel
  6
ByLayer
 62
  256
370
   -1
100
AcDbLine
 10
-18.47174265033719
 20
128.3390881959551
 11
2.143131898507868e-14
 21
350
  0
ARC
  5
67
100
AcDbEntity
  8
Light_steel
  6
ByLayer
 62
  256
370
   -1
100
AcDbCircle
 10
-415.0000000000001
 20
60.00000887570665
 40
20
100
AcDbArc
 50
270
 51
359.9999999999999
  0
LINE
  5
68
100
AcDbEntity
  8
Light_steel
  6
ByLayer
 62
  256
370
   -1
100
AcDbLine
 10
-775
 20
40.00000000000002
 11
-415.0000000000001
 21
40.00000887570665
  0
ARC
  5
69
100
AcDbEntity
  8
Light_steel
  6
ByLayer
 62
  256
370
   -1
100
AcDbCircle
 10
414.9999999999999
 20
59.99999997371467
 40
20
100
AcDbArc
 50
179.9999999999999
 51
269.9999999999998
  0
LINE
  5
6A
100
AcDbEntity
  8
Light_steel
  6
ByLayer
 62
  256
370
   -1
100
AcDbLine
 10
414.9999999999999
 20
39.99999997371467
 11
775
 21
39.99999999999986
  0
LINE
  5
6B
100
AcDbEntity
  8
Light_steel
  6
ByLayer
 62
  256
370
   -1
100
AcDbLine
 10
-394.9999999999999
 20
109.1681084241553
 11
-395.0000000000001
 21
60.00000887570661
  0
LINE
  5
6C
100
AcDbEntity
  8
Light_steel
  6
ByLayer
 62
  256
370
   -1
100
AcDbLine
 10
394.9999999999999
 20
109.168108424154
 11
394.9999999999999
 21
59.99999997371469
  0
ARC
  5
6D
100
AcDbEntity
  8
Light_steel
  6
ByLayer
 62
  256
370
   -1
100
AcDbCircle
 10
-375
 20
109.1681084241552
 40
19.99999999999996
100
AcDbArc
 50
175.2363583092795
 51
179.9999999999996
  0
LINE
  5
6E
100
AcDbEntity
  8
Light_steel
  6
ByLayer
 62
  256
370
   -1
100
AcDbLine
 10
375
 20
349.9999999999999
 11
356.5282573496628
 21
128.339088195955
  0
ARC
  5
6F
100
AcDbEntity
  8
Light_steel
  6
ByLayer
 62
  256
370
   -1
100
AcDbCircle
 10
374.9999999999968
 20
109.168108424154
 40
20.00000000000318
100
AcDbArc
 50
359.999999999996
 51
4.763641690727451
  0
LINE
  5
70
100
AcDbEntity
  8
Light_steel
  6
ByLayer
 62
  256
370
   -1
100
AcDbLine
 10
-375
 20
350.0000000000001
 11
-356.5282573496628
 21
128.3390881959552
  0
LINE
  5
71
100
AcDbEntity
  8
Light_steel
  6
ByLayer
 62
  256
370
   -1
100
AcDbLine
 10
2.143131898507868e-14
 20
350
 11
18.47174265033722
 21
128.339088195955
  0
LINE
  5
72
100
AcDbEntity
  8
Light_steel
  6
ByLayer
 62
  256
370
   -1
100
AcDbLine
 10
375
 20
349.9999999999999
 11
394.9309151648975
 21
110.8290180212295
  0
LINE
  5
73
100
AcDbEntity
  8
Light_steel
  6
ByLayer
 62
  256
370
   -1
100
AcDbLine
 10
-394.9309151648977
 20
110.829018021228
 11
-375
 21
350.0000000000001
  0
ARC
  5
74
100
AcDbEntity
  8
Light_steel
  6
ByLayer
 62
  256
370
   -1
100
AcDbCircle
 10
-415.0000000000001
 20
60.00000887570665
 40
30
100
AcDbArc
 50
270
 51
359.9999999999999
  0
ARC
  5
75
100
AcDbEntity
  8
Light_steel
  6
ByLayer
 62
  256
370
   -1
100
AcDbCircle
 10
-336.5973423686795
 20
130.0000000000001
 40
30
100
AcDbArc
 50
184.7636480351452
 51
269.9999999999999
  0
ARC
  5
76
100
AcDbEntity
  8
Light_steel
  6
ByLayer
 62
  256
370
   -1
100
AcDbCircle
 10
-38.40265763132049
 20
130
 40
30
100
AcDbArc
 50
270.0000000000001
 51
355.2363519648549
  0
ARC
  5
77
100
AcDbEntity
  8
Light_steel
  6
ByLayer
 62
  256
370
   -1
100
AcDbCircle
 10
38.40265763132051
 20
130
 40
30
100
AcDbArc
 50
184.7636480351452
 51
269.9999999999999
  0
ARC
  5
78
100
AcDbEntity
  8
Light_steel
  6
ByLayer
 62
  256
370
   -1
100
AcDbCircle
 10
336.5973423686795
 20
129.9999999999999
 40
30
100
AcDbArc
 50
270.0000000000001
 51
355.2363519648549
  0
ARC
  5
79
100
AcDbEntity
  8
Light_steel
  6
ByLayer
 62
  256
370
   -1
100
AcDbCircle
 10
414.9999999999999
 20
59.99999997371467
 40
30
100
AcDbArc
 50
179.9999999999999
 51
269.9999999999998
  0
LINE
  5
7A
100
AcDbEntity
  8
Light_steel
  6
ByLayer
 62
  256
370
   -1
100
AcDbLine
 10
415.00000000073
 20
29.99999997371467
 11
657.8427124144335
 21
29.99999999144569
  0
LINE
  5
7B
100
AcDbEntity
  8
0
  6
ByLayer
 62
  256
370
   -1
100
AcDbLine
 10
-774.9999999999968
 20
39.99999999999955
 11
-657.8427327971459
 21
30.00000288848205
  0
LINE
  5
7C
100
AcDbEntity
  8
0
  6
ByLayer
 62
  256
370
   -1
100
AcDbLine
 10
-375
 20
350.0000000000001
 11
-375
 21
229.5840542120781
  0
LINE
  5
7D
100
AcDbEntity
  8
0
  6
ByLayer
 62
  256
370
   -1
100
AcDbLine
 10
2.143131898507868e-14
 20
350
 11
1.77635683940025e-14
 21
229.5840542120779
  0
LINE
  5
7E
100
AcDbEntity
  8
0
  6
ByLayer
 62
  256
370
   -1
100
AcDbLine
 10
375
 20
349.9999999999999
 11
375
 21
229.5840542120774
  0
LINE
  5
7F
100
AcDbEntity
  8
0
  6
ByLayer
 62
  256
370
   -1
100
AcDbLine
 10
775
 20
39.99999999999986
 11
657.8427124144339
 21
29.99999999144552
  0
LINE
  5
80
100
AcDbEntity
  8
Light_steel
  6
ByLayer
 62
  256
370
   -1
100
AcDbLine
 10
-657.8427327971459
 20
30.00000288848205
 11
-415.0000000000001
 21
30.00000887570665
  0
ARC
  5
81
100
AcDbEntity
  8
Light_steel
  6
ByLayer
 62
  256
370
   -1
100
AcDbCircle
 10
-375
 20
109.1681084241552
 40
9.999999999999964
100
AcDbArc
 50
175.2363583092795
 51
179.9999999999996
  0
ARC
  5
82
100
AcDbEntity
  8
Light_steel
  6
ByLayer
 62
  256
370
   -1
100
AcDbCircle
 10
374.9999999999968
 20
109.168108424154
 40
10.00000000000318
100
AcDbArc
 50
359.999999999996
 51
4.763641690727451
  0
LINE
  5
83
100
AcDbEntity
  8
Light_steel
  6
ByLayer
 62
  256
370
   -1
100
AcDbLine
 10
-385.0000000000001
 20
60.00000887570659
 11
-384.9999999999999
 21
109.1681084241553
  0
LINE
  5
84
100
AcDbEntity
  8
Light_steel
  6
ByLayer
 62
  256
370
   -1
100
AcDbLine
 10
-375
 20
229.5840542120781
 11
-384.9654575824488
 21
109.9985632226916
  0
LINE
  5
85
100
AcDbEntity
  8
Light_steel
  6
ByLayer
 62
  256
370
   -1
100
AcDbLine
 10
-375
 20
229.5840542120781
 11
-366.4937148401544
 21
127.5086322939327
  0
LINE
  5
86
100
AcDbEntity
  8
Light_steel
  6
ByLayer
 62
  256
370
   -1
100
AcDbLine
 10
-336.5973423686796
 20
100.0000000000001
 11
-38.40265763132044
 21
100
  0
LINE
  5
87
100
AcDbEntity
  8
Light_steel
  6
ByLayer
 62
  256
370
   -1
100
AcDbLine
 10
-8.50628515984555
 20
127.5086322939326
 11
1.77635683940025e-14
 21
229.5840542120779
  0
LINE
  5
88
100
AcDbEntity
  8
Light_steel
  6
ByLayer
 62
  256
370
   -1
100
AcDbLine
 10
38.40265763132045
 20
100
 11
336.5973423686796
 21
99.99999999999989
  0
LINE
  5
89
100
AcDbEntity
  8
Light_steel
  6
ByLayer
 62
  256
370
   -1
100
AcDbLine
 10
366.4937148401544
 20
127.5086322939325
 11
375
 21
229.5840542120774
  0
LINE
  5
8A
100
AcDbEntity
  8
Light_steel
  6
ByLayer
 62
  256
370
   -1
100
AcDbLine
 10
375
 20
229.5840542120774
 11
384.9654575824487
 21
109.9985632226919
  0
LINE
  5
8B
100
AcDbEntity
  8
Light_steel
  6
ByLayer
 62
  256
370
   -1
100
AcDbLine
 10
384.9999999999999
 20
59.99999997371471
 11
384.9999999999999
 21
109.1681084241533
  0
LINE
  5
8C
100
AcDbEntity
  8
Light_steel
  6
ByLayer
 62
  256
370
   -1
100
AcDbLine
 10
1.77635683940025e-14
 20
229.5840542120779
 11
8.506285159845579
 21
127.5086322939325
  0
LINE
  5
8D
100
AcDbEntity
  8
handle
  6
ByLayer
 62
  256
370
   -1
100
AcDbLine
 10
-335
 20
55
 11
-335
 21
-1.35003119794419e-13
  0
LINE
  5
8E
100
AcDbEntity
  8
handle
  6
ByLayer
 62
  256
370
   -1
100
AcDbLine
 10
335
 20
55
 11
335
 21
-1.35003119794419e-13
  0
LINE
  5
8F
100
AcDbEntity
  8
0
  6
ByLayer
 62
  256
370
   -1
100
AcDbLine
 10
-866.0254037844387
 20
400
 11
866.0254037844384
 21
400
  0
LINE
  5
90
100
AcDbEntity
  8
0
  6
ByLayer
 62
  256
370
   -1
100
AcDbLine
 10
866.0254037844384
 20
-50
 11
-866.0254037844387
 21
-50
  0
LINE
  5
91
100
AcDbEntity
  8
0
  6
ByLayer
 62
  256
370
   -1
100
AcDbLine
 10
866.0254037844384
 20
400
 11
866.0254037844384
 21
-49.99999999999999
  0
LINE
  5
92
100
AcDbEntity
  8
0
  6
ByLayer
 62
  256
370
   -1
100
AcDbLine
 10
-866.0254037844387
 20
400
 11
-866.0254037844387
 21
-49.99999999999999
  0
MTEXT
  5
93
100
AcDbEntity
  8
0
  6
ByLayer
 62
  256
370
   -1
100
AcDbMText
 10
190.5255888325764
 20
190
 30
0
 40
20
 41
296.6667111111111
 71
    5
 72
    1
  1
By Felipe\PLohan Pinheiro\Pda Silva
  7
romanc
210
0
220
0
230
1
 50
0
 73
    2
 44
1
  0
MTEXT
  5
94
100
AcDbEntity
  8
0
  6
ByLayer
 62
  256
370
   -1
100
AcDbMText
 10
-190.5255888325765
 20
210
 30
0
 40
30
 41
312.8572666666667
 71
    5
 72
    1
  1
Symmetric\PWar Scythe
  7
romanc
210
0
220
0
230
1
 50
0
 73
    2
 44
1
  0
ENDSEC
  0
SECTION
  2
OBJECTS
  0
DICTIONARY
  5
C
330
0
100
AcDbDictionary
281
    1
  3
ACAD_GROUP
350
D
  0
DICTIONARY
  5
D
330
C
100
AcDbDictionary
281
    1
  0
PLOTSETTINGS
  5
95
100
AcDbPlotSettings
  6
1x1
 40
0
 41
0
 42
0
 43
0
  0
ENDSEC
  0
EOF
