999
dxfrw 0.6.3
  0
SECTION
  2
HEADER
  9
$ACADVER
  1
AC1021
  9
$DWGCODEPAGE
  3
ANSI_1252
  9
$INSBASE
 10
0
 20
0
 30
0
  9
$EXTMIN
 10
-866.0254037844379
 20
-1500
 30
0
  9
$EXTMAX
 10
6928.203230275511
 20
2000
 30
0
  9
$LIMMIN
 10
0
 20
0
  9
$LIMMAX
 10
420
 20
297
  9
$ORTHOMODE
 70
    0
  9
$REGENMODE
 70
    1
  9
$FILLMODE
 70
    1
  9
$QTEXTMODE
 70
    0
  9
$MIRRTEXT
 70
    0
  9
$LTSCALE
 40
1
  9
$ATTMODE
 70
    0
  9
$TEXTSIZE
 40
2.5
  9
$TRACEWID
 40
15.68
  9
$TEXTSTYLE
  7
STANDARD
  9
$CLAYER
  8
steel_light
  9
$CELTYPE
  6
BYLAYER
  9
$CECOLOR
 62
  256
  9
$CELTSCALE
 40
1
  9
$DISPSILH
 70
    0
  9
$DIMSCALE
 40
1
  9
$DIMASZ
 40
2.5
  9
$DIMEXO
 40
0.625
  9
$DIMDLI
 40
3.75
  9
$DIMRND
 40
0
  9
$DIMDLE
 40
0
  9
$DIMEXE
 40
1.25
  9
$DIMTP
 40
0
  9
$DIMTM
 40
0
  9
$DIMTXT
 40
2.5
  9
$DIMCEN
 40
2.5
  9
$DIMTSZ
 40
0
  9
$DIMTOL
 70
    0
  9
$DIMLIM
 70
    0
  9
$DIMTIH
 70
    0
  9
$DIMTOH
 70
    0
  9
$DIMSE1
 70
    0
  9
$DIMSE2
 70
    0
  9
$DIMTAD
 70
    1
  9
$DIMZIN
 70
    1
  9
$DIMBLK
  1

  9
$DIMASO
 70
    1
  9
$DIMSHO
 70
    1
  9
$DIMPOST
  1

  9
$DIMAPOST
  1

  9
$DIMALT
 70
    0
  9
$DIMALTD
 70
    3
  9
$DIMALTF
 40
0.03937
  9
$DIMLFAC
 40
1
  9
$DIMTOFL
 70
    1
  9
$DIMTVP
 40
0
  9
$DIMTIX
 70
    0
  9
$DIMSOXD
 70
    0
  9
$DIMSAH
 70
    0
  9
$DIMBLK1
  1

  9
$DIMBLK2
  1

  9
$DIMSTYLE
  2
STANDARD
  9
$DIMCLRD
 70
    0
  9
$DIMCLRE
 70
    0
  9
$DIMCLRT
 70
    0
  9
$DIMTFAC
 40
1
  9
$DIMGAP
 40
0.625
  9
$DIMJUST
 70
    0
  9
$DIMSD1
 70
    0
  9
$DIMSD2
 70
    0
  9
$DIMTOLJ
 70
    0
  9
$DIMTZIN
 70
    8
  9
$DIMALTZ
 70
    0
  9
$DIMALTTZ
 70
    0
  9
$DIMUPT
 70
    0
  9
$DIMDEC
 70
    4
  9
$DIMTDEC
 70
    2
  9
$DIMALTU
 70
    2
  9
$DIMALTTD
 70
    3
  9
$DIMTXSTY
  7
standard
  9
$DIMAUNIT
 70
    0
  9
$DIMADEC
 70
    2
  9
$DIMALTRND
 40
0
  9
$DIMAZIN
 70
    0
  9
$DIMDSEP
 70
    0
  9
$DIMATFIT
 70
    3
  9
$DIMFRAC
 70
    0
  9
$DIMLDRBLK
  1
STANDARD
  9
$DIMLUNIT
 70
    2
  9
$DIMLWD
 70
   -2
  9
$DIMLWE
 70
   -2
  9
$DIMTMOVE
 70
    0
  9
$DIMFXL
 40
1
  9
$DIMFXLON
 70
    0
  9
$DIMJOGANG
 40
0.7854
  9
$DIMTFILL
 70
    0
  9
$DIMTFILLCLR
 70
    0
  9
$DIMARCSYM
 70
    0
  9
$DIMLTYPE
  6

  9
$DIMLTEX1
  6

  9
$DIMLTEX2
  6

  9
$LUNITS
 70
    2
  9
$LUPREC
 70
    4
  9
$SKETCHINC
 40
1
  9
$FILLETRAD
 40
0
  9
$AUNITS
 70
    0
  9
$AUPREC
 70
    2
  9
$MENU
  1
.
  9
$ELEVATION
 40
0
  9
$PELEVATION
 40
0
  9
$THICKNESS
 40
0
  9
$LIMCHECK
 70
    0
  9
$CHAMFERA
 40
0
  9
$CHAMFERB
 40
0
  9
$CHAMFERC
 40
0
  9
$CHAMFERD
 40
0
  9
$SKPOLY
 70
    0
  9
$USRTIMER
 70
    1
  9
$ANGBASE
 50
0
  9
$ANGDIR
 70
    0
  9
$PDMODE
 70
   96
  9
$PDSIZE
 40
-2
  9
$PLINEWID
 40
0
  9
$SPLFRAME
 70
    0
  9
$SPLINETYPE
 70
    2
  9
$SPLINESEGS
 70
    8
  9
$HANDSEED
  5
20000
  9
$SURFTAB1
 70
    6
  9
$SURFTAB2
 70
    6
  9
$SURFTYPE
 70
    6
  9
$SURFU
 70
    6
  9
$SURFV
 70
    6
  9
$UCSBASE
  2

  9
$UCSNAME
  2

  9
$UCSORG
 10
0
 20
0
 30
0
  9
$UCSXDIR
 10
1
 20
0
 30
0
  9
$UCSYDIR
 10
0
 20
1
 30
0
  9
$UCSORTHOREF
  2

  9
$UCSORTHOVIEW
 70
    0
  9
$UCSORGTOP
 10
0
 20
0
 30
0
  9
$UCSORGBOTTOM
 10
0
 20
0
 30
0
  9
$UCSORGLEFT
 10
0
 20
0
 30
0
  9
$UCSORGRIGHT
 10
0
 20
0
 30
0
  9
$UCSORGFRONT
 10
0
 20
0
 30
0
  9
$UCSORGBACK
 10
0
 20
0
 30
0
  9
$PUCSBASE
  2

  9
$PUCSNAME
  2

  9
$PUCSORG
 10
0
 20
0
 30
0
  9
$PUCSXDIR
 10
1
 20
0
 30
0
  9
$PUCSYDIR
 10
0
 20
1
 30
0
  9
$PUCSORTHOREF
  2

  9
$PUCSORTHOVIEW
 70
    0
  9
$PUCSORGTOP
 10
0
 20
0
 30
0
  9
$PUCSORGBOTTOM
 10
0
 20
0
 30
0
  9
$PUCSORGLEFT
 10
0
 20
0
 30
0
  9
$PUCSORGRIGHT
 10
0
 20
0
 30
0
  9
$PUCSORGFRONT
 10
0
 20
0
 30
0
  9
$PUCSORGBACK
 10
0
 20
0
 30
0
  9
$USERI1
 70
    0
  9
$USERI2
 70
    0
  9
$USERI3
 70
    0
  9
$USERI4
 70
    0
  9
$USERI5
 70
    0
  9
$USERR1
 40
0
  9
$USERR2
 40
0
  9
$USERR3
 40
0
  9
$USERR4
 40
0
  9
$USERR5
 40
0
  9
$WORLDVIEW
 70
    1
  9
$SHADEDGE
 70
    3
  9
$SHADEDIF
 70
   70
  9
$TILEMODE
 70
    1
  9
$MAXACTVP
 70
   64
  9
$PINSBASE
 10
42.72222222222219
 20
96.27559593224566
 30
0
  9
$PLIMCHECK
 70
    0
  9
$PEXTMIN
 10
0
 20
0
 30
0
  9
$PEXTMAX
 10
0
 20
0
 30
0
  9
$GRIDMODE
 70
    1
  9
$SNAPSTYLE
 70
    1
  9
$GRIDUNIT
 10
0
 20
0
  9
$PLIMMIN
 10
0
 20
0
  9
$PLIMMAX
 10
297
 20
210
  9
$UNITMODE
 70
    0
  9
$VISRETAIN
 70
    1
  9
$PLINEGEN
 70
    0
  9
$PSLTSCALE
 70
    1
  9
$TREEDEPTH
 70
 3020
  9
$CMLSTYLE
  2
Standard
  9
$CMLJUST
 70
    0
  9
$CMLSCALE
 40
20
  9
$PROXYGRAPHICS
 70
    1
  9
$MEASUREMENT
 70
    1
  9
$CELWEIGHT
370
   -1
  9
$ENDCAPS
280
    0
  9
$JOINSTYLE
280
    0
  9
$LWDISPLAY
290
    0
  9
$INSUNITS
 70
    4
  9
$HYPERLINKBASE
  1

  9
$STYLESHEET
  1

  9
$XEDIT
290
    1
  9
$CEPSNTYPE
380
    0
  9
$PSTYLEMODE
290
    1
  9
$EXTNAMES
290
    1
  9
$PSVPSCALE
 40
0.0348975582178515
  9
$OLESTARTUP
290
    0
  9
$SORTENTS
280
  127
  9
$INDEXCTL
280
    0
  9
$HIDETEXT
280
    1
  9
$XCLIPFRAME
290
    0
  9
$HALOGAP
280
    0
  9
$OBSCOLOR
 70
  257
  9
$OBSLTYPE
280
    0
  9
$INTERSECTIONDISPLAY
280
    0
  9
$INTERSECTIONCOLOR
 70
  257
  9
$DIMASSOC
280
    1
  9
$PROJECTNAME
  1

  9
$CAMERADISPLAY
290
    0
  9
$LENSLENGTH
 40
50
  9
$CAMERAHEIGHT
 40
0
  9
$STEPSPERSEC
 40
2
  9
$STEPSIZE
 40
50
  9
$3DDWFPREC
 40
2
  9
$PSOLWIDTH
 40
5
  9
$PSOLHEIGHT
 40
80
  9
$LOFTANG1
 40
1.570796326794897
  9
$LOFTANG2
 40
1.570796326794897
  9
$LOFTMAG1
 40
0
  9
$LOFTMAG2
 40
0
  9
$LOFTPARAM
 70
    7
  9
$LOFTNORMALS
280
    1
  9
$LATITUDE
 40
1
  9
$LONGITUDE
 40
1
  9
$NORTHDIRECTION
 40
0
  9
$TIMEZONE
 70
-8000
  9
$LIGHTGLYPHDISPLAY
280
    1
  9
$TILEMODELIGHTSYNCH
280
    1
  9
$SOLIDHIST
280
    1
  9
$SHOWHIST
280
    1
  9
$DWFFRAME
280
    2
  9
$DGNFRAME
280
    0
  9
$REALWORLDSCALE
290
    1
  9
$INTERFERECOLOR
 62
    1
  9
$CSHADOW
280
    0
  9
$SHADOWPLANELOCATION
 40
0
  0
ENDSEC
  0
SECTION
  2
CLASSES
  0
ENDSEC
  0
SECTION
  2
TABLES
  0
TABLE
  2
VPORT
  5
8
330
0
100
AcDbSymbolTable
 70
    1
  0
VPORT
  5
31
330
2
100
AcDbSymbolTableRecord
100
AcDbViewportTableRecord
  2
*ACTIVE
 70
    0
 10
0
 20
0
 11
1
 21
1
 12
4308.809096732238
 22
1362.99063263979
 13
0
 23
0
 14
10
 24
10
 15
10
 25
10
 16
0
 26
0
 36
1
 17
0
 27
0
 37
0
 40
4622.86223789348
 41
2.103260869565217
 42
50
 43
0
 44
0
 50
0
 51
0
 71
    0
 72
  100
 73
    1
 74
    3
 75
    0
 76
    1
 77
    1
 78
    0
281
    0
 65
    1
110
0
120
0
130
0
111
1
121
0
131
0
112
0
122
1
132
0
 79
    0
146
0
348
10020
 60
    7
 61
    5
292
1
282
    1
141
0
142
0
 63
  250
421
3358443
  0
ENDTAB
  0
TABLE
  2
LTYPE
  5
5
330
0
100
AcDbSymbolTable
 70
    4
  0
LTYPE
  5
14
330
5
100
AcDbSymbolTableRecord
100
AcDbLinetypeTableRecord
  2
ByBlock
 70
    0
  3

 72
   65
 73
    0
 40
0
  0
LTYPE
  5
15
330
5
100
AcDbSymbolTableRecord
100
AcDbLinetypeTableRecord
  2
ByLayer
 70
    0
  3

 72
   65
 73
    0
 40
0
  0
LTYPE
  5
16
330
5
100
AcDbSymbolTableRecord
100
AcDbLinetypeTableRecord
  2
Continuous
 70
    0
  3
Solid line
 72
   65
 73
    0
 40
0
  0
LTYPE
  5
32
330
5
100
AcDbSymbolTableRecord
100
AcDbLinetypeTableRecord
  2
DOT
 70
    0
  3
Dot . . . . . . . . . . . . . . . . . . . . . .
 72
   65
 73
    2
 40
6.35
 49
0
 74
    0
 49
-6.35
 74
    0
  0
LTYPE
  5
33
330
5
100
AcDbSymbolTableRecord
100
AcDbLinetypeTableRecord
  2
DOTTINY
 70
    0
  3
Dot (.15x) .....................................
 72
   65
 73
    2
 40
0.9525
 49
0
 74
    0
 49
-0.9525
 74
    0
  0
LTYPE
  5
34
330
5
100
AcDbSymbolTableRecord
100
AcDbLinetypeTableRecord
  2
DOT2
 70
    0
  3
Dot (.5x) .....................................
 72
   65
 73
    2
 40
3.175
 49
0
 74
    0
 49
-3.175
 74
    0
  0
LTYPE
  5
35
330
5
100
AcDbSymbolTableRecord
100
AcDbLinetypeTableRecord
  2
DOTX2
 70
    0
  3
Dot (2x) .  .  .  .  .  .  .  .  .  .  .  .  .
 72
   65
 73
    2
 40
12.7
 49
0
 74
    0
 49
-12.7
 74
    0
  0
LTYPE
  5
36
330
5
100
AcDbSymbolTableRecord
100
AcDbLinetypeTableRecord
  2
DASHED
 70
    0
  3
Dashed _ _ _ _ _ _ _ _ _ _ _ _ _ _ _ _ _
 72
   65
 73
    2
 40
19.05
 49
12.7
 74
    0
 49
-6.35
 74
    0
  0
LTYPE
  5
37
330
5
100
AcDbSymbolTableRecord
100
AcDbLinetypeTableRecord
  2
DASHEDTINY
 70
    0
  3
Dashed (.15x) _ _ _ _ _ _ _ _ _ _ _ _ _ _ _ _ _
 72
   65
 73
    2
 40
2.8575
 49
1.905
 74
    0
 49
-0.9525
 74
    0
  0
LTYPE
  5
38
330
5
100
AcDbSymbolTableRecord
100
AcDbLinetypeTableRecord
  2
DASHED2
 70
    0
  3
Dashed (.5x) _ _ _ _ _ _ _ _ _ _ _ _ _ _ _ _ _
 72
   65
 73
    2
 40
9.524999999999999
 49
6.35
 74
    0
 49
-3.175
 74
    0
  0
LTYPE
  5
39
330
5
100
AcDbSymbolTableRecord
100
AcDbLinetypeTableRecord
  2
DASHEDX2
 70
    0
  3
Dashed (2x) ____  ____  ____  ____  ____  ___
 72
   65
 73
    2
 40
38.09999999999999
 49
25.4
 74
    0
 49
-12.7
 74
    0
  0
LTYPE
  5
3A
330
5
100
AcDbSymbolTableRecord
100
AcDbLinetypeTableRecord
  2
DASHDOT
 70
    0
  3
Dash dot __ . __ . __ . __ . __ . __ . __ . __
 72
   65
 73
    4
 40
25.4
 49
12.7
 74
    0
 49
-6.35
 74
    0
 49
0
 74
    0
 49
-6.35
 74
    0
  0
LTYPE
  5
3B
330
5
100
AcDbSymbolTableRecord
100
AcDbLinetypeTableRecord
  2
DASHDOTTINY
 70
    0
  3
Dash dot (.15x) _._._._._._._._._._._._._._._.
 72
   65
 73
    4
 40
3.81
 49
1.905
 74
    0
 49
-0.9525
 74
    0
 49
0
 74
    0
 49
-0.9525
 74
    0
  0
LTYPE
  5
3C
330
5
100
AcDbSymbolTableRecord
100
AcDbLinetypeTableRecord
  2
DASHDOT2
 70
    0
  3
Dash dot (.5x) _._._._._._._._._._._._._._._.
 72
   65
 73
    4
 40
12.7
 49
6.35
 74
    0
 49
-3.175
 74
    0
 49
0
 74
    0
 49
-3.175
 74
    0
  0
LTYPE
  5
3D
330
5
100
AcDbSymbolTableRecord
100
AcDbLinetypeTableRecord
  2
DASHDOTX2
 70
    0
  3
Dash dot (2x) ____  .  ____  .  ____  .  ___
 72
   65
 73
    4
 40
50.8
 49
25.4
 74
    0
 49
-12.7
 74
    0
 49
0
 74
    0
 49
-12.7
 74
    0
  0
LTYPE
  5
3E
330
5
100
AcDbSymbolTableRecord
100
AcDbLinetypeTableRecord
  2
DIVIDE
 70
    0
  3
Divide ____ . . ____ . . ____ . . ____ . . ____
 72
   65
 73
    6
 40
31.75
 49
12.7
 74
    0
 49
-6.35
 74
    0
 49
0
 74
    0
 49
-6.35
 74
    0
 49
0
 74
    0
 49
-6.35
 74
    0
  0
LTYPE
  5
3F
330
5
100
AcDbSymbolTableRecord
100
AcDbLinetypeTableRecord
  2
DIVIDETINY
 70
    0
  3
Divide (.15x) __..__..__..__..__..__..__..__.._
 72
   65
 73
    6
 40
4.7625
 49
1.905
 74
    0
 49
-0.9525
 74
    0
 49
0
 74
    0
 49
-0.9525
 74
    0
 49
0
 74
    0
 49
-0.9525
 74
    0
  0
LTYPE
  5
40
330
5
100
AcDbSymbolTableRecord
100
AcDbLinetypeTableRecord
  2
DIVIDE2
 70
    0
  3
Divide (.5x) __..__..__..__..__..__..__..__.._
 72
   65
 73
    6
 40
15.875
 49
6.35
 74
    0
 49
-3.175
 74
    0
 49
0
 74
    0
 49
-3.175
 74
    0
 49
0
 74
    0
 49
-3.175
 74
    0
  0
LTYPE
  5
41
330
5
100
AcDbSymbolTableRecord
100
AcDbLinetypeTableRecord
  2
DIVIDEX2
 70
    0
  3
Divide (2x) ________  .  .  ________  .  .  _
 72
   65
 73
    6
 40
63.5
 49
25.4
 74
    0
 49
-12.7
 74
    0
 49
0
 74
    0
 49
-12.7
 74
    0
 49
0
 74
    0
 49
-12.7
 74
    0
  0
LTYPE
  5
42
330
5
100
AcDbSymbolTableRecord
100
AcDbLinetypeTableRecord
  2
BORDER
 70
    0
  3
Border __ __ . __ __ . __ __ . __ __ . __ __ .
 72
   65
 73
    6
 40
44.45
 49
12.7
 74
    0
 49
-6.35
 74
    0
 49
12.7
 74
    0
 49
-6.35
 74
    0
 49
0
 74
    0
 49
-6.35
 74
    0
  0
LTYPE
  5
43
330
5
100
AcDbSymbolTableRecord
100
AcDbLinetypeTableRecord
  2
BORDERTINY
 70
    0
  3
Border (.15x) __.__.__.__.__.__.__.__.__.__.__.
 72
   65
 73
    6
 40
6.6675
 49
1.905
 74
    0
 49
-0.9525
 74
    0
 49
1.905
 74
    0
 49
-0.9525
 74
    0
 49
0
 74
    0
 49
-0.9525
 74
    0
  0
LTYPE
  5
44
330
5
100
AcDbSymbolTableRecord
100
AcDbLinetypeTableRecord
  2
BORDER2
 70
    0
  3
Border (.5x) __.__.__.__.__.__.__.__.__.__.__.
 72
   65
 73
    6
 40
22.225
 49
6.35
 74
    0
 49
-3.175
 74
    0
 49
6.35
 74
    0
 49
-3.175
 74
    0
 49
0
 74
    0
 49
-3.175
 74
    0
  0
LTYPE
  5
45
330
5
100
AcDbSymbolTableRecord
100
AcDbLinetypeTableRecord
  2
BORDERX2
 70
    0
  3
Border (2x) ____  ____  .  ____  ____  .  ___
 72
   65
 73
    6
 40
88.89999999999999
 49
25.4
 74
    0
 49
-12.7
 74
    0
 49
25.4
 74
    0
 49
-12.7
 74
    0
 49
0
 74
    0
 49
-12.7
 74
    0
  0
LTYPE
  5
46
330
5
100
AcDbSymbolTableRecord
100
AcDbLinetypeTableRecord
  2
CENTER
 70
    0
  3
Center ____ _ ____ _ ____ _ ____ _ ____ _ ____
 72
   65
 73
    4
 40
50.8
 49
31.75
 74
    0
 49
-6.35
 74
    0
 49
6.35
 74
    0
 49
-6.35
 74
    0
  0
LTYPE
  5
47
330
5
100
AcDbSymbolTableRecord
100
AcDbLinetypeTableRecord
  2
CENTERTINY
 70
    0
  3
Center (.15x) ___ _ ___ _ ___ _ ___ _ ___ _ ___
 72
   65
 73
    4
 40
7.619999999999999
 49
4.7625
 74
    0
 49
-0.9525
 74
    0
 49
0.9525
 74
    0
 49
-0.9525
 74
    0
  0
LTYPE
  5
48
330
5
100
AcDbSymbolTableRecord
100
AcDbLinetypeTableRecord
  2
CENTER2
 70
    0
  3
Center (.5x) ___ _ ___ _ ___ _ ___ _ ___ _ ___
 72
   65
 73
    4
 40
28.575
 49
19.05
 74
    0
 49
-3.175
 74
    0
 49
3.175
 74
    0
 49
-3.175
 74
    0
  0
LTYPE
  5
49
330
5
100
AcDbSymbolTableRecord
100
AcDbLinetypeTableRecord
  2
CENTERX2
 70
    0
  3
Center (2x) ________  __  ________  __  _____
 72
   65
 73
    4
 40
101.6
 49
63.5
 74
    0
 49
-12.7
 74
    0
 49
12.7
 74
    0
 49
-12.7
 74
    0
  0
ENDTAB
  0
TABLE
  2
LAYER
  5
2
330
0
100
AcDbSymbolTable
 70
    1
  0
LAYER
  5
10
330
2
100
AcDbSymbolTableRecord
100
AcDbLayerTableRecord
  2
0
 70
    0
 62
    7
  6
CONTINUOUS
370
    0
390
F
  0
LAYER
  5
4A
330
2
100
AcDbSymbolTableRecord
100
AcDbLayerTableRecord
  2
draw2
 70
    0
 62
    3
  6
CONTINUOUS
370
    0
390
F
  0
LAYER
  5
4B
330
2
100
AcDbSymbolTableRecord
100
AcDbLayerTableRecord
  2
drawing
 70
    0
 62
    6
  6
CONTINUOUS
370
    0
390
F
  0
LAYER
  5
4C
330
2
100
AcDbSymbolTableRecord
100
AcDbLayerTableRecord
  2
handle
 70
    0
 62
   16
420
6684672
  6
CONTINUOUS
370
    0
390
F
  0
LAYER
  5
4D
330
2
100
AcDbSymbolTableRecord
100
AcDbLayerTableRecord
  2
ricasso
 70
    0
 62
  171
  6
CONTINUOUS
370
    0
390
F
  0
LAYER
  5
4E
330
2
100
AcDbSymbolTableRecord
100
AcDbLayerTableRecord
  2
steel_dark
 70
    0
 62
  251
420
6710886
  6
CONTINUOUS
370
    0
390
F
  0
LAYER
  5
4F
330
2
100
AcDbSymbolTableRecord
100
AcDbLayerTableRecord
  2
steel_light
 70
    0
 62
  253
420
10066329
  6
CONTINUOUS
370
    0
390
F
  0
ENDTAB
  0
TABLE
  2
STYLE
  5
3
330
0
100
AcDbSymbolTable
 70
    3
  0
STYLE
  5
50
330
2
100
AcDbSymbolTableRecord
100
AcDbTextStyleTableRecord
  2
standard
 70
    0
 40
0
 41
1
 50
0
 71
    0
 42
1
  3
standard
  4

  0
ENDTAB
  0
TABLE
  2
VIEW
  5
6
330
0
100
AcDbSymbolTable
 70
    0
  0
ENDTAB
  0
TABLE
  2
UCS
  5
7
330
0
100
AcDbSymbolTable
 70
    0
  0
ENDTAB
  0
TABLE
  2
APPID
  5
9
330
0
100
AcDbSymbolTable
 70
    1
  0
APPID
  5
12
330
9
100
AcDbSymbolTableRecord
100
AcDbRegAppTableRecord
  2
ACAD
 70
    0
  0
APPID
  5
51
330
9
100
AcDbSymbolTableRecord
100
AcDbRegAppTableRecord
  2
LibreCad
 70
    0
  0
ENDTAB
  0
TABLE
  2
DIMSTYLE
  5
A
330
0
100
AcDbSymbolTable
 70
    1
100
AcDbDimStyleTable
 71
    1
  0
DIMSTYLE
105
52
330
A
100
AcDbSymbolTableRecord
100
AcDbDimStyleTableRecord
  2
Standard
 70
    0
 40
1
 41
2.5
 42
0.625
 43
0.38
 44
1.25
 45
0
 46
0
 47
0
 48
0
 49
1
140
2.5
141
0.09
142
0
143
25.4
144
1
145
0
146
1
147
0.625
148
0
 71
    0
 72
    0
 73
    0
 74
    1
 75
    0
 76
    0
 77
    0
 78
    1
 79
    0
170
    0
171
    2
172
    0
173
    0
174
    0
175
    0
176
    0
177
    0
178
    0
179
    2
271
    4
272
    4
273
    2
274
    2
275
    0
276
    0
277
    2
278
    0
279
    0
280
    0
281
    0
282
    0
283
    1
284
    0
285
    0
286
    0
288
    0
289
    3
340
standard
341

371
   -2
372
   -2
  0
ENDTAB
  0
TABLE
  2
BLOCK_RECORD
  5
1
330
0
100
AcDbSymbolTable
 70
    2
  0
BLOCK_RECORD
  5
1F
330
1
100
AcDbSymbolTableRecord
100
AcDbBlockTableRecord
  2
*Model_Space
 70
    0
280
    1
281
    0
  0
BLOCK_RECORD
  5
1E
330
1
100
AcDbSymbolTableRecord
100
AcDbBlockTableRecord
  2
*Paper_Space
 70
    0
280
    1
281
    0
  0
ENDTAB
  0
ENDSEC
  0
SECTION
  2
BLOCKS
  0
BLOCK
  5
20
330
1F
100
AcDbEntity
  8
0
100
AcDbBlockBegin
  2
*Model_Space
 70
    0
 10
0
 20
0
 30
0
  3
*Model_Space
  1

  0
ENDBLK
  5
21
330
1F
100
AcDbEntity
  8
0
100
AcDbBlockEnd
  0
BLOCK
  5
1C
330
1B
100
AcDbEntity
  8
0
100
AcDbBlockBegin
  2
*Paper_Space
 70
    0
 10
0
 20
0
 30
0
  3
*Paper_Space
  1

  0
ENDBLK
  5
1D
330
1F
100
AcDbEntity
  8
0
100
AcDbBlockEnd
  0
ENDSEC
  0
SECTION
  2
ENTITIES
  0
HATCH
  5
53
100
AcDbEntity
  8
steel_light
  6
ByLayer
 62
  256
370
   -1
100
AcDbHatch
 10
0
 20
0
 30
0
210
0
220
0
230
1
  2
SOLID
 70
    1
 71
    0
 91
    1
 92
    0
 93
   20
 72
    1
 10
5805
 20
70.00000000000006
 11
5805
 21
40.00000000000004
 72
    1
 10
5805
 20
40.00000000000004
 11
5835
 21
40.00000000000004
 72
    1
 10
5835
 20
40.00000000000004
 11
5835
 21
70.00000000000004
 72
    1
 10
5835
 20
69.99999999999957
 11
5835.000000000015
 21
969.9999999999995
 72
    2
 10
5455.000000000015
 20
969.9999999999509
 40
380
 50
8.04044223473977e-12
 51
57.65898432486878
 73
    1
 72
    2
 10
5630
 20
1670
 40
380
 50
274.2685287392824
 51
337.0804578484558
 73
    1
 72
    2
 10
6330.000000000146
 20
1669.999999999969
 40
380
 50
202.9195421515391
 51
265.731471260698
 73
    1
 72
    2
 10
6504.999999999985
 20
969.9999999999197
 40
380
 50
122.3410156751285
 51
179.9999999999869
 73
    1
 72
    1
 10
6124.999999999985
 20
969.9999999999995
 11
6125
 21
69.99999999999955
 72
    1
 10
6125
 20
70.00000000000003
 11
6125
 21
40.00000000000001
 72
    1
 10
6125
 20
40.00000000000001
 11
6155
 21
40
 72
    1
 10
6155
 20
40
 11
6155
 21
70.00000000000001
 72
    1
 10
6155
 20
70.00000000000001
 11
6154.999999999985
 21
970
 72
    2
 10
6504.999999999985
 20
969.9999999999197
 40
350
 50
180.0000000000131
 51
270.0000000000131
 73
    0
 72
    1
 10
6505.000000000065
 20
1319.99999999992
 11
6330.000000000115
 21
1319.999999999969
 72
    2
 10
6330.000000000146
 20
1669.999999999969
 40
350
 50
90.00000000000509
 51
180.0000000000051
 73
    0
 72
    2
 10
5630
 20
1670
 40
350
 50
360
 51
90
 73
    0
 72
    1
 10
5630
 20
1320
 11
5454.999999999965
 21
1319.999999999951
 72
    2
 10
5455.000000000015
 20
969.9999999999509
 40
350
 50
269.999999999992
 51
359.999999999992
 73
    0
 72
    1
 10
5805.000000000015
 20
970
 11
5805
 21
70.00000000000006
 97
    0
 75
    0
 76
    1
 98
    0
  0
HATCH
  5
54
100
AcDbEntity
  8
steel_light
  6
ByLayer
 62
  256
370
   -1
100
AcDbHatch
 10
0
 20
0
 30
0
210
0
220
0
230
1
  2
SOLID
 70
    1
 71
    0
 91
    1
 92
    0
 93
   14
 72
    1
 10
4155
 20
69.99999999999994
 11
4155
 21
39.99999999999995
 72
    1
 10
4155
 20
39.99999999999995
 11
4125
 21
40.00000000000002
 72
    1
 10
4125
 20
40.00000000000002
 11
4125
 21
70.00000000000001
 72
    1
 10
4125
 20
70.00000000000001
 11
4125.000000000003
 21
1366.891108675445
 72
    2
 10
3805.000000000003
 20
1366.891108675445
 40
320
 50
0
 51
56.8471120713802
 73
    1
 72
    2
 10
4155.000000000003
 20
1366.891108675445
 40
320
 50
123.1528879286199
 51
180
 73
    1
 72
    1
 10
3835.000000000003
 20
1366.891108675445
 11
3835
 21
69.9999999999999
 72
    1
 10
3835
 20
69.9999999999999
 11
3835
 21
39.99999999999991
 72
    1
 10
3835
 20
39.99999999999991
 11
3805
 21
39.99999999999999
 72
    1
 10
3805
 20
39.99999999999999
 11
3805
 21
69.99999999999999
 72
    1
 10
3805
 20
69.99999999999999
 11
3805.000000000003
 21
1366.891108675445
 72
    2
 10
4155.000000000003
 20
1366.891108675445
 40
350
 50
180
 51
240.0000000000005
 73
    0
 72
    2
 10
3805.000000000003
 20
1366.891108675445
 40
350
 50
299.9999999999995
 51
360
 73
    0
 72
    1
 10
4155.000000000003
 20
1366.891108675445
 11
4155
 21
69.99999999999994
 97
    0
 75
    0
 76
    1
 98
    0
  0
HATCH
  5
55
100
AcDbEntity
  8
steel_light
  6
ByLayer
 62
  256
370
   -1
100
AcDbHatch
 10
0
 20
0
 30
0
210
0
220
0
230
1
  2
SOLID
 70
    1
 71
    0
 91
    1
 92
    0
 93
   18
 72
    1
 10
3155
 20
69.99999999999994
 11
3155
 21
39.99999999999995
 72
    1
 10
3155
 20
39.99999999999995
 11
3125
 21
39.99999999999991
 72
    1
 10
3125
 20
39.99999999999991
 11
3125
 21
69.9999999999999
 72
    1
 10
3125
 20
69.9999999999999
 11
3124.999999999998
 21
1299.344051968788
 72
    2
 10
3067.500000000059
 20
1299.344051968788
 40
57.49999999993862
 50
0
 51
26.56505117708334
 73
    1
 72
    1
 10
3118.929563482496
 20
1325.058833710015
 11
2980
 21
1602.917960675006
 72
    1
 10
2980
 20
1602.917960675006
 11
2841.070436517498
 21
1325.058833710003
 72
    2
 10
2892.499999999941
 20
1299.344051968788
 40
57.49999999993862
 50
153.4349488229253
 51
180
 73
    1
 72
    1
 10
2835.000000000002
 20
1299.344051968788
 11
2835
 21
69.99999999999993
 72
    1
 10
2835
 20
69.99999999999993
 11
2835
 21
39.99999999999994
 72
    1
 10
2835
 20
39.99999999999994
 11
2805
 21
39.99999999999999
 72
    1
 10
2805
 20
39.99999999999999
 11
2805
 21
69.99999999999999
 72
    1
 10
2805
 20
69.99999999999999
 11
2805.000000000002
 21
1299.344051968788
 72
    2
 10
2892.499999999941
 20
1299.344051968788
 40
87.49999999993862
 50
180
 51
206.5650511770747
 73
    0
 72
    1
 10
2814.237620787501
 20
1338.475241575002
 11
2980
 21
1670
 72
    1
 10
2980
 20
1670
 11
3145.762379212493
 21
1338.475241575014
 72
    2
 10
3067.500000000059
 20
1299.344051968788
 40
87.49999999993862
 50
333.4349488229167
 51
360
 73
    0
 72
    1
 10
3154.999999999998
 20
1299.344051968788
 11
3155
 21
69.99999999999994
 97
    0
 75
    0
 76
    1
 98
    0
  0
HATCH
  5
56
100
AcDbEntity
  8
steel_light
  6
ByLayer
 62
  256
370
   -1
100
AcDbHatch
 10
0
 20
0
 30
0
210
0
220
0
230
1
  2
SOLID
 70
    1
 71
    0
 91
    1
 92
    0
 93
   12
 72
    1
 10
4805
 20
70.00000000000006
 11
4805
 21
40.00000000000005
 72
    1
 10
4805
 20
40.00000000000005
 11
4835
 21
40.00000000000004
 72
    1
 10
4835
 20
40.00000000000004
 11
4835
 21
70.00000000000004
 72
    1
 10
4835
 20
70.00000000000004
 11
4835
 21
1495
 72
    2
 10
4980
 20
1495
 40
145
 50
179.9999999999999
 51
1.017777498068325e-13
 73
    0
 72
    1
 10
5125
 20
1495
 11
5125
 21
70.00000000000001
 72
    1
 10
5125
 20
70.00000000000001
 11
5125
 21
40.00000000000001
 72
    1
 10
5125
 20
40.00000000000001
 11
5155
 21
40.00000000000001
 72
    1
 10
5155
 20
40.00000000000001
 11
5155
 21
70.00000000000001
 72
    1
 10
5155
 20
70.00000000000001
 11
5155
 21
1495
 72
    2
 10
4980
 20
1495
 40
175
 50
359.9999999999999
 51
180.0000000000001
 73
    1
 72
    1
 10
4805
 20
1495
 11
4805
 21
70.00000000000006
 97
    0
 75
    0
 76
    1
 98
    0
  0
HATCH
  5
57
100
AcDbEntity
  8
steel_light
  6
ByLayer
 62
  256
370
   -1
100
AcDbHatch
 10
0
 20
0
 30
0
210
0
220
0
230
1
  2
SOLID
 70
    1
 71
    0
 91
    1
 92
    0
 93
   18
 72
    1
 10
2155
 20
69.99999999999994
 11
2155
 21
39.99999999999995
 72
    1
 10
2155
 20
39.99999999999995
 11
2125
 21
39.99999999999975
 72
    1
 10
2125
 20
39.99999999999975
 11
2125
 21
69.99999999999974
 72
    1
 10
2125
 20
69.99999999999974
 11
2124.999999999992
 21
1206.993520563706
 72
    2
 10
1804.999999999992
 20
1206.993520563706
 40
320
 50
0
 51
41.40962210926981
 73
    1
 72
    2
 10
2330
 20
1670
 40
380
 50
138.5903778907302
 51
157.0804578484302
 73
    0
 72
    2
 10
1630
 20
1670
 40
380
 50
22.91954215156979
 51
41.40962210927266
 73
    0
 72
    2
 10
2154.999999999985
 20
1206.99352056368
 40
320
 50
138.5903778907273
 51
180
 73
    1
 72
    1
 10
1834.999999999985
 20
1206.99352056368
 11
1835
 21
70.00000000000038
 72
    1
 10
1835
 20
70.00000000000038
 11
1835
 21
40.00000000000039
 72
    1
 10
1835
 20
40.00000000000039
 11
1805
 21
39.99999999999999
 72
    1
 10
1805
 20
39.99999999999999
 11
1805
 21
69.99999999999999
 72
    1
 10
1805
 20
69.99999999999999
 11
1804.999999999985
 21
1206.99352056368
 72
    2
 10
2154.999999999985
 20
1206.99352056368
 40
350
 50
180
 51
221.4096221092727
 73
    0
 72
    2
 10
1630
 20
1670
 40
350
 50
318.5903778907273
 51
0
 73
    1
 72
    2
 10
2330
 20
1670
 40
350
 50
180
 51
221.4096221092698
 73
    1
 72
    2
 10
1804.999999999992
 20
1206.993520563706
 40
350
 50
318.5903778907302
 51
360
 73
    0
 72
    1
 10
2154.999999999992
 20
1206.993520563706
 11
2155
 21
69.99999999999994
 97
    0
 75
    0
 76
    1
 98
    0
  0
HATCH
  5
58
100
AcDbEntity
  8
steel_light
  6
ByLayer
 62
  256
370
   -1
100
AcDbHatch
 10
0
 20
0
 30
0
210
0
220
0
230
1
  2
SOLID
 70
    1
 71
    0
 91
    1
 92
    0
 93
   14
 72
    1
 10
805
 20
70.00000000000006
 11
805
 21
40.00000000000005
 72
    1
 10
805
 20
40.00000000000005
 11
835
 21
40.00000000000004
 72
    1
 10
835
 20
40.00000000000004
 11
835
 21
70.00000000000004
 72
    2
 10
980
 20
70.00000000000003
 40
145
 50
180
 51
186.2792883225503
 73
    0
 72
    1
 10
835.8699190848441
 20
85.859375
 11
980.0000000000001
 21
1395.714285714285
 72
    1
 10
980.0000000000001
 20
1395.714285714285
 11
1124.130080915156
 21
85.85937500000003
 72
    2
 10
980
 20
70.00000000000003
 40
145
 50
353.7207116774497
 51
360
 73
    0
 72
    1
 10
1125
 20
70.00000000000003
 11
1125
 21
40.00000000000002
 72
    1
 10
1125
 20
40.00000000000002
 11
1155
 21
40.00000000000001
 72
    1
 10
1155
 20
40.00000000000001
 11
1155
 21
70.00000000000001
 72
    2
 10
980
 20
70.00000000000003
 40
175
 50
0
 51
6.279288322550253
 73
    1
 72
    1
 10
1153.950097656223
 20
89.140625
 11
980.0000000000001
 21
1670
 72
    1
 10
980.0000000000001
 20
1670
 11
806.0499023437774
 21
89.14062500000001
 72
    2
 10
980
 20
70.00000000000003
 40
175
 50
173.7207116774497
 51
180
 73
    1
 97
    0
 75
    0
 76
    1
 98
    0
  0
HATCH
  5
59
100
AcDbEntity
  8
steel_dark
  6
ByLayer
 62
  256
370
   -1
100
AcDbHatch
 10
0
 20
0
 30
0
210
0
220
0
230
1
  2
SOLID
 70
    1
 71
    0
 91
    1
 92
    0
 93
   17
 72
    2
 10
5945
 20
85.00000000000011
 40
15
 50
179.9999999999998
 51
2.289999370653732e-13
 73
    1
 72
    1
 10
5960
 20
85.00000000000017
 11
5960
 21
1420
 72
    2
 10
5945
 20
1420
 40
15
 50
359.9999999999998
 51
179.9999999999996
 73
    1
 72
    1
 10
5930
 20
1420
 11
5930
 21
85.00000000000017
 72
    2
 10
6015
 20
84.99999999999989
 40
15
 50
179.9999999999998
 51
2.289999370653732e-13
 73
    1
 72
    1
 10
6030
 20
84.99999999999994
 11
6030
 21
1420
 72
    2
 10
6015
 20
1420
 40
15
 50
359.9999999999998
 51
179.9999999999996
 73
    1
 72
    1
 10
6000
 20
1420
 11
6000
 21
84.99999999999994
 72
    1
 10
5835
 20
40.00000000000004
 11
6125
 21
40.00000000000001
 72
    1
 10
6125
 20
40.00000000000001
 11
6125
 21
70.00000000000003
 72
    1
 10
6125
 20
69.99999999999955
 11
6124.999999999985
 21
969.9999999999995
 72
    2
 10
6504.999999999985
 20
969.9999999999197
 40
380
 50
180.0000000000131
 51
237.6589843248715
 73
    0
 72
    2
 10
6330.000000000146
 20
1669.999999999969
 40
380
 50
94.26852873930204
 51
157.0804578484609
 73
    0
 72
    2
 10
5630
 20
1670
 40
380
 50
22.91954215154419
 51
85.7314712607176
 73
    0
 72
    2
 10
5455.000000000015
 20
969.9999999999509
 40
380
 50
302.3410156751312
 51
359.999999999992
 73
    0
 72
    1
 10
5835.000000000015
 20
969.9999999999995
 11
5835
 21
69.99999999999957
 72
    1
 10
5835
 20
70.00000000000004
 11
5835
 21
40.00000000000004
 97
    0
 75
    0
 76
    1
 98
    0
  0
HATCH
  5
5A
100
AcDbEntity
  8
handle
  6
ByLayer
 62
  256
370
   -1
100
AcDbHatch
 10
0
 20
0
 30
0
210
0
220
0
230
1
  2
SOLID
 70
    1
 71
    0
 91
    1
 92
    0
 93
    4
 72
    1
 10
5960
 20
-455.3589838486218
 11
5960
 21
3.074712202016434e-14
 72
    1
 10
5960
 20
3.074712202016434e-14
 11
6000
 21
2.609629684064367e-14
 72
    1
 10
6000
 20
2.609629684064367e-14
 11
6000
 21
-455.3589838486221
 72
    2
 10
5980
 20
-490
 40
40
 50
60.00000000000029
 51
119.9999999999995
 73
    1
 97
    0
 75
    0
 76
    1
 98
    0
  0
HATCH
  5
5B
100
AcDbEntity
  8
steel_dark
  6
ByLayer
 62
  256
370
   -1
100
AcDbHatch
 10
0
 20
0
 30
0
210
0
220
0
230
1
  2
SOLID
 70
    1
 71
    0
 91
    1
 92
    0
 93
    1
 72
    2
 10
5980
 20
-490
 40
20
 50
0
 51
360
 73
    1
 97
    0
 75
    0
 76
    1
 98
    0
  0
HATCH
  5
5C
100
AcDbEntity
  8
steel_light
  6
ByLayer
 62
  256
370
   -1
100
AcDbHatch
 10
0
 20
0
 30
0
210
0
220
0
230
1
  2
SOLID
 70
    1
 71
    0
 91
    1
 92
    0
 93
    3
 72
    2
 10
5980
 20
-490
 40
20
 50
0
 51
360
 73
    1
 72
    2
 10
5980
 20
-490
 40
40
 50
119.9999999999995
 51
60.00000000000029
 73
    1
 72
    2
 10
5980
 20
-490
 40
40
 50
60.00000000000029
 51
119.9999999999995
 73
    1
 97
    0
 75
    0
 76
    1
 98
    0
  0
HATCH
  5
5D
100
AcDbEntity
  8
steel_dark
  6
ByLayer
 62
  256
370
   -1
100
AcDbHatch
 10
0
 20
0
 30
0
210
0
220
0
230
1
  2
SOLID
 70
    1
 71
    0
 91
    1
 92
    0
 93
    6
 72
    1
 10
5705
 20
60.00000000000006
 11
5665
 21
60.00000000000007
 72
    1
 10
5665
 20
60.00000000000007
 11
5665
 21
-19.99999999999993
 72
    1
 10
5665
 20
-19.99999999999993
 11
5705
 21
-19.99999999999993
 72
    1
 10
5705
 20
-19.99999999999993
 11
5705
 21
5.927422295682942e-14
 72
    1
 10
5705
 20
5.927422295682942e-14
 11
5705
 21
40.00000000000006
 72
    1
 10
5705
 20
40.00000000000006
 11
5705
 21
60.00000000000006
 97
    0
 75
    0
 76
    1
 98
    0
  0
HATCH
  5
5E
100
AcDbEntity
  8
steel_dark
  6
ByLayer
 62
  256
370
   -1
100
AcDbHatch
 10
0
 20
0
 30
0
210
0
220
0
230
1
  2
SOLID
 70
    1
 71
    0
 91
    1
 92
    0
 93
    6
 72
    1
 10
6295
 20
60
 11
6255
 21
60
 72
    1
 10
6255
 20
60
 11
6255
 21
40
 72
    1
 10
6255
 20
40
 11
6255
 21
-2.430804096021392e-15
 72
    1
 10
6255
 20
-2.430804096021392e-15
 11
6255
 21
-19.99999999999999
 72
    1
 10
6255
 20
-19.99999999999999
 11
6295
 21
-19.99999999999999
 72
    1
 10
6295
 20
-19.99999999999999
 11
6295
 21
60
 97
    0
 75
    0
 76
    1
 98
    0
  0
HATCH
  5
5F
100
AcDbEntity
  8
steel_light
  6
ByLayer
 62
  256
370
   -1
100
AcDbHatch
 10
0
 20
0
 30
0
210
0
220
0
230
1
  2
SOLID
 70
    1
 71
    0
 91
    1
 92
    0
 93
    6
 72
    1
 10
6255
 20
40
 11
5705
 21
40.00000000000006
 72
    1
 10
5705
 20
40.00000000000006
 11
5705
 21
5.927422295682942e-14
 72
    1
 10
5705
 20
5.927422295682942e-14
 11
5960
 21
3.074712202016434e-14
 72
    1
 10
5960
 20
3.074712202016434e-14
 11
6000
 21
2.609629684064367e-14
 72
    1
 10
6000
 20
2.609629684064367e-14
 11
6255
 21
-2.430804096021392e-15
 72
    1
 10
6255
 20
-2.430804096021392e-15
 11
6255
 21
40
 97
    0
 75
    0
 76
    1
 98
    0
  0
HATCH
  5
60
100
AcDbEntity
  8
steel_dark
  6
ByLayer
 62
  256
370
   -1
100
AcDbHatch
 10
0
 20
0
 30
0
210
0
220
0
230
1
  2
SOLID
 70
    1
 71
    0
 91
    1
 92
    0
 93
   19
 72
    2
 10
945.0000000000003
 20
85.00000000000011
 40
15
 50
179.9999999999998
 51
2.289999370653732e-13
 73
    1
 72
    1
 10
960.0000000000003
 20
85.00000000000017
 11
960
 21
899.9999999999999
 72
    2
 10
945
 20
900
 40
15
 50
359.9999999999998
 51
179.9999999999996
 73
    1
 72
    1
 10
930
 20
900.0000000000001
 11
930.0000000000003
 21
85.00000000000017
 72
    2
 10
1015
 20
84.99999999999989
 40
15
 50
179.9999999999998
 51
2.289999370653732e-13
 73
    1
 72
    1
 10
1030
 20
84.99999999999994
 11
1030
 21
899.9999999999999
 72
    2
 10
1015
 20
900
 40
15
 50
359.9999999999998
 51
179.9999999999996
 73
    1
 72
    1
 10
1000
 20
900.0000000000001
 11
1000
 21
84.99999999999994
 72
    2
 10
980
 20
70.00000000000003
 40
145
 50
173.7207116774497
 51
180
 73
    1
 72
    1
 10
835
 20
70.00000000000004
 11
835
 21
40.00000000000004
 72
    1
 10
835
 20
40.00000000000004
 11
1125
 21
40.00000000000002
 72
    1
 10
1125
 20
40.00000000000002
 11
1125
 21
70.00000000000003
 72
    2
 10
980
 20
70.00000000000003
 40
145
 50
0
 51
6.279288322550253
 73
    1
 72
    1
 10
1124.130080915156
 20
85.85937500000003
 11
980.0000000000001
 21
1395.714285714285
 72
    1
 10
980.0000000000001
 20
1395.714285714285
 11
835.8699190848441
 21
85.859375
 72
    2
 10
979.9999883408614
 20
929.9999999999999
 40
15
 50
179.9999999999998
 51
2.289999370653732e-13
 73
    1
 72
    1
 10
994.9999883408614
 20
930
 11
994.9999883408614
 21
1245
 72
    2
 10
979.9999883408614
 20
1245
 40
15
 50
2.289999370653732e-13
 51
180.0000000000007
 73
    1
 72
    1
 10
964.9999883408614
 20
1245
 11
964.9999883408614
 21
929.9999999999999
 97
    0
 75
    0
 76
    1
 98
    0
  0
HATCH
  5
61
100
AcDbEntity
  8
steel_dark
  6
ByLayer
 62
  256
370
   -1
100
AcDbHatch
 10
0
 20
0
 30
0
210
0
220
0
230
1
  2
SOLID
 70
    1
 71
    0
 91
    1
 92
    0
 93
   15
 72
    2
 10
3945
 20
85.00000000000011
 40
15
 50
179.9999999999998
 51
2.289999370653732e-13
 73
    1
 72
    1
 10
3960
 20
85.00000000000017
 11
3960
 21
1580
 72
    2
 10
3945
 20
1580
 40
15
 50
359.9999999999998
 51
179.9999999999996
 73
    1
 72
    1
 10
3930
 20
1580
 11
3930
 21
85.00000000000017
 72
    2
 10
4015
 20
84.99999999999989
 40
15
 50
179.9999999999998
 51
2.289999370653732e-13
 73
    1
 72
    1
 10
4030
 20
84.99999999999994
 11
4030
 21
1580
 72
    2
 10
4015
 20
1580
 40
15
 50
359.9999999999998
 51
179.9999999999996
 73
    1
 72
    1
 10
4000
 20
1580
 11
4000
 21
84.99999999999994
 72
    1
 10
4125.000000000003
 20
1366.891108675445
 11
4125
 21
70.00000000000001
 72
    1
 10
4125
 20
70.00000000000001
 11
4125
 21
40.00000000000002
 72
    1
 10
4125
 20
40.00000000000002
 11
3835
 21
39.99999999999991
 72
    1
 10
3835
 20
39.99999999999991
 11
3835
 21
69.9999999999999
 72
    1
 10
3835
 20
69.9999999999999
 11
3835.000000000003
 21
1366.891108675445
 72
    2
 10
4155.000000000003
 20
1366.891108675445
 40
320
 50
180
 51
236.8471120713801
 73
    0
 72
    2
 10
3805.000000000003
 20
1366.891108675445
 40
320
 50
303.1528879286198
 51
360
 73
    0
 97
    0
 75
    0
 76
    1
 98
    0
  0
HATCH
  5
62
100
AcDbEntity
  8
steel_dark
  6
ByLayer
 62
  256
370
   -1
100
AcDbHatch
 10
0
 20
0
 30
0
210
0
220
0
230
1
  2
SOLID
 70
    1
 71
    0
 91
    1
 92
    0
 93
   17
 72
    2
 10
2945
 20
85.00000000000011
 40
15
 50
179.9999999999998
 51
2.289999370653732e-13
 73
    1
 72
    1
 10
2960
 20
85.00000000000017
 11
2960
 21
1490
 72
    2
 10
2945
 20
1490
 40
15
 50
359.9999999999998
 51
179.9999999999996
 73
    1
 72
    1
 10
2930
 20
1490
 11
2930
 21
85.00000000000017
 72
    2
 10
3015
 20
84.99999999999989
 40
15
 50
179.9999999999998
 51
2.289999370653732e-13
 73
    1
 72
    1
 10
3030
 20
84.99999999999994
 11
3030
 21
1490
 72
    2
 10
3015
 20
1490
 40
15
 50
359.9999999999998
 51
179.9999999999996
 73
    1
 72
    1
 10
3000
 20
1490
 11
3000
 21
84.99999999999994
 72
    1
 10
2835.000000000002
 20
1299.344051968788
 11
2835
 21
69.99999999999993
 72
    1
 10
2835
 20
69.99999999999993
 11
2835
 21
39.99999999999994
 72
    1
 10
2835
 20
39.99999999999994
 11
3125
 21
39.99999999999991
 72
    1
 10
3125
 20
39.99999999999991
 11
3125
 21
69.9999999999999
 72
    1
 10
3125
 20
69.9999999999999
 11
3124.999999999998
 21
1299.344051968788
 72
    2
 10
3067.500000000059
 20
1299.344051968788
 40
57.49999999993862
 50
0
 51
26.56505117708334
 73
    1
 72
    1
 10
3118.929563482496
 20
1325.058833710015
 11
2980
 21
1602.917960675006
 72
    1
 10
2980
 20
1602.917960675006
 11
2841.070436517498
 21
1325.058833710003
 72
    2
 10
2892.499999999941
 20
1299.344051968788
 40
57.49999999993862
 50
153.4349488229253
 51
180
 73
    1
 97
    0
 75
    0
 76
    1
 98
    0
  0
HATCH
  5
63
100
AcDbEntity
  8
steel_dark
  6
ByLayer
 62
  256
370
   -1
100
AcDbHatch
 10
0
 20
0
 30
0
210
0
220
0
230
1
  2
SOLID
 70
    1
 71
    0
 91
    1
 92
    0
 93
   14
 72
    2
 10
4945
 20
85.00000000000011
 40
15
 50
179.9999999999998
 51
2.289999370653732e-13
 73
    1
 72
    1
 10
4960
 20
85.00000000000017
 11
4960
 21
1610
 72
    2
 10
4945
 20
1610
 40
15
 50
359.9999999999998
 51
179.9999999999996
 73
    1
 72
    1
 10
4930
 20
1610
 11
4930
 21
85.00000000000017
 72
    2
 10
5015
 20
84.99999999999989
 40
15
 50
179.9999999999998
 51
2.289999370653732e-13
 73
    1
 72
    1
 10
5030
 20
84.99999999999994
 11
5030
 21
1610
 72
    2
 10
5015
 20
1610
 40
15
 50
359.9999999999998
 51
179.9999999999996
 73
    1
 72
    1
 10
5000
 20
1610
 11
5000
 21
84.99999999999994
 72
    1
 10
4835
 20
40.00000000000004
 11
5125
 21
40.00000000000001
 72
    1
 10
5125
 20
40.00000000000001
 11
5125
 21
70.00000000000001
 72
    1
 10
5125
 20
70.00000000000001
 11
5125
 21
1495
 72
    2
 10
4980
 20
1495
 40
145
 50
359.9999999999999
 51
180.0000000000001
 73
    1
 72
    1
 10
4835
 20
1495
 11
4835
 21
70.00000000000004
 72
    1
 10
4835
 20
70.00000000000004
 11
4835
 21
40.00000000000004
 97
    0
 75
    0
 76
    1
 98
    0
  0
HATCH
  5
64
100
AcDbEntity
  8
steel_dark
  6
ByLayer
 62
  256
370
   -1
100
AcDbHatch
 10
0
 20
0
 30
0
210
0
220
0
230
1
  2
SOLID
 70
    1
 71
    0
 91
    1
 92
    0
 93
   17
 72
    2
 10
1945
 20
85.00000000000011
 40
15
 50
179.9999999999998
 51
2.289999370653732e-13
 73
    1
 72
    1
 10
1960
 20
85.00000000000017
 11
1960
 21
1425
 72
    2
 10
1945
 20
1425
 40
15
 50
359.9999999999998
 51
179.9999999999996
 73
    1
 72
    1
 10
1930
 20
1425
 11
1930
 21
85.00000000000017
 72
    2
 10
2015
 20
84.99999999999989
 40
15
 50
179.9999999999998
 51
2.289999370653732e-13
 73
    1
 72
    1
 10
2030
 20
84.99999999999994
 11
2030
 21
1425
 72
    2
 10
2015
 20
1425
 40
15
 50
359.9999999999998
 51
179.9999999999996
 73
    1
 72
    1
 10
2000
 20
1425
 11
2000
 21
84.99999999999994
 72
    1
 10
1834.999999999985
 20
1206.99352056368
 11
1835
 21
70.00000000000038
 72
    1
 10
1835
 20
70.00000000000038
 11
1835
 21
40.00000000000039
 72
    1
 10
1835
 20
40.00000000000039
 11
2125
 21
39.99999999999975
 72
    1
 10
2125
 20
39.99999999999975
 11
2125
 21
69.99999999999974
 72
    1
 10
2125
 20
69.99999999999974
 11
2124.999999999992
 21
1206.993520563706
 72
    2
 10
1804.999999999992
 20
1206.993520563706
 40
320
 50
0
 51
41.40962210926981
 73
    1
 72
    2
 10
2330
 20
1670
 40
380
 50
138.5903778907302
 51
157.0804578484302
 73
    0
 72
    2
 10
1630
 20
1670
 40
380
 50
22.91954215156979
 51
41.40962210927266
 73
    0
 72
    2
 10
2154.999999999985
 20
1206.99352056368
 40
320
 50
138.5903778907273
 51
180
 73
    1
 97
    0
 75
    0
 76
    1
 98
    0
  0
HATCH
  5
65
100
AcDbEntity
  8
steel_light
  6
ByLayer
 62
  256
370
   -1
100
AcDbHatch
 10
0
 20
0
 30
0
210
0
220
0
230
1
  2
SOLID
 70
    1
 71
    0
 91
    1
 92
    0
 93
    6
 72
    1
 10
3705
 20
40
 11
4255
 21
39.99999999999994
 72
    1
 10
4255
 20
39.99999999999994
 11
4255
 21
-6.282693663562992e-14
 72
    1
 10
4255
 20
-6.282693663562992e-14
 11
4000
 21
-3.429983569896484e-14
 72
    1
 10
4000
 20
-3.429983569896484e-14
 11
3960
 21
-2.964901051944417e-14
 72
    1
 10
3960
 20
-2.964901051944417e-14
 11
3705
 21
-1.121909582779109e-15
 72
    1
 10
3705
 20
-1.121909582779109e-15
 11
3705
 21
40
 97
    0
 75
    0
 76
    1
 98
    0
  0
HATCH
  5
66
100
AcDbEntity
  8
steel_dark
  6
ByLayer
 62
  256
370
   -1
100
AcDbHatch
 10
0
 20
0
 30
0
210
0
220
0
230
1
  2
SOLID
 70
    1
 71
    0
 91
    1
 92
    0
 93
    6
 72
    1
 10
3665
 20
59.99999999999999
 11
3705
 21
59.99999999999999
 72
    1
 10
3705
 20
59.99999999999999
 11
3705
 21
40
 72
    1
 10
3705
 20
40
 11
3705
 21
-1.121909582779109e-15
 72
    1
 10
3705
 20
-1.121909582779109e-15
 11
3705
 21
-20.00000000000001
 72
    1
 10
3705
 20
-20.00000000000001
 11
3665
 21
-20.00000000000001
 72
    1
 10
3665
 20
-20.00000000000001
 11
3665
 21
59.99999999999999
 97
    0
 75
    0
 76
    1
 98
    0
  0
HATCH
  5
67
100
AcDbEntity
  8
steel_dark
  6
ByLayer
 62
  256
370
   -1
100
AcDbHatch
 10
0
 20
0
 30
0
210
0
220
0
230
1
  2
SOLID
 70
    1
 71
    0
 91
    1
 92
    0
 93
    6
 72
    1
 10
4255
 20
59.99999999999994
 11
4295
 21
59.99999999999993
 72
    1
 10
4295
 20
59.99999999999993
 11
4295
 21
-20.00000000000007
 72
    1
 10
4295
 20
-20.00000000000007
 11
4255
 21
-20.00000000000007
 72
    1
 10
4255
 20
-20.00000000000007
 11
4255
 21
-6.282693663562992e-14
 72
    1
 10
4255
 20
-6.282693663562992e-14
 11
4255
 21
39.99999999999994
 72
    1
 10
4255
 20
39.99999999999994
 11
4255
 21
59.99999999999994
 97
    0
 75
    0
 76
    1
 98
    0
  0
HATCH
  5
68
100
AcDbEntity
  8
steel_light
  6
ByLayer
 62
  256
370
   -1
100
AcDbHatch
 10
0
 20
0
 30
0
210
0
220
0
230
1
  2
SOLID
 70
    1
 71
    0
 91
    1
 92
    0
 93
    3
 72
    2
 10
3980
 20
-490
 40
20
 50
0
 51
360
 73
    1
 72
    2
 10
3980
 20
-490
 40
40
 50
299.9999999999995
 51
240.0000000000003
 73
    0
 72
    2
 10
3980
 20
-490
 40
40
 50
240.0000000000003
 51
299.9999999999995
 73
    0
 97
    0
 75
    0
 76
    1
 98
    0
  0
HATCH
  5
69
100
AcDbEntity
  8
steel_dark
  6
ByLayer
 62
  256
370
   -1
100
AcDbHatch
 10
0
 20
0
 30
0
210
0
220
0
230
1
  2
SOLID
 70
    1
 71
    0
 91
    1
 92
    0
 93
    1
 72
    2
 10
3980
 20
-490
 40
20
 50
0
 51
360
 73
    1
 97
    0
 75
    0
 76
    1
 98
    0
  0
HATCH
  5
6A
100
AcDbEntity
  8
handle
  6
ByLayer
 62
  256
370
   -1
100
AcDbHatch
 10
0
 20
0
 30
0
210
0
220
0
230
1
  2
SOLID
 70
    1
 71
    0
 91
    1
 92
    0
 93
    4
 72
    1
 10
4000
 20
-455.3589838486219
 11
4000
 21
-3.429983569896484e-14
 72
    1
 10
4000
 20
-3.429983569896484e-14
 11
3960
 21
-2.964901051944417e-14
 72
    1
 10
3960
 20
-2.964901051944417e-14
 11
3960
 21
-455.3589838486225
 72
    2
 10
3980
 20
-490
 40
40
 50
240.0000000000003
 51
299.9999999999995
 73
    0
 97
    0
 75
    0
 76
    1
 98
    0
  0
HATCH
  5
6B
100
AcDbEntity
  8
steel_light
  6
ByLayer
 62
  256
370
   -1
100
AcDbHatch
 10
0
 20
0
 30
0
210
0
220
0
230
1
  2
SOLID
 70
    1
 71
    0
 91
    1
 92
    0
 93
    6
 72
    1
 10
2705
 20
40
 11
3255
 21
39.99999999999994
 72
    1
 10
3255
 20
39.99999999999994
 11
3255
 21
-6.282693663562992e-14
 72
    1
 10
3255
 20
-6.282693663562992e-14
 11
3000
 21
-3.429983569896484e-14
 72
    1
 10
3000
 20
-3.429983569896484e-14
 11
2960
 21
-2.964901051944417e-14
 72
    1
 10
2960
 20
-2.964901051944417e-14
 11
2705
 21
-1.121909582779109e-15
 72
    1
 10
2705
 20
-1.121909582779109e-15
 11
2705
 21
40
 97
    0
 75
    0
 76
    1
 98
    0
  0
HATCH
  5
6C
100
AcDbEntity
  8
steel_dark
  6
ByLayer
 62
  256
370
   -1
100
AcDbHatch
 10
0
 20
0
 30
0
210
0
220
0
230
1
  2
SOLID
 70
    1
 71
    0
 91
    1
 92
    0
 93
    6
 72
    1
 10
2665
 20
59.99999999999999
 11
2705
 21
59.99999999999999
 72
    1
 10
2705
 20
59.99999999999999
 11
2705
 21
40
 72
    1
 10
2705
 20
40
 11
2705
 21
-1.121909582779109e-15
 72
    1
 10
2705
 20
-1.121909582779109e-15
 11
2705
 21
-20.00000000000001
 72
    1
 10
2705
 20
-20.00000000000001
 11
2665
 21
-20.00000000000001
 72
    1
 10
2665
 20
-20.00000000000001
 11
2665
 21
59.99999999999999
 97
    0
 75
    0
 76
    1
 98
    0
  0
HATCH
  5
6D
100
AcDbEntity
  8
steel_dark
  6
ByLayer
 62
  256
370
   -1
100
AcDbHatch
 10
0
 20
0
 30
0
210
0
220
0
230
1
  2
SOLID
 70
    1
 71
    0
 91
    1
 92
    0
 93
    6
 72
    1
 10
3255
 20
59.99999999999994
 11
3295
 21
59.99999999999993
 72
    1
 10
3295
 20
59.99999999999993
 11
3295
 21
-20.00000000000007
 72
    1
 10
3295
 20
-20.00000000000007
 11
3255
 21
-20.00000000000007
 72
    1
 10
3255
 20
-20.00000000000007
 11
3255
 21
-6.282693663562992e-14
 72
    1
 10
3255
 20
-6.282693663562992e-14
 11
3255
 21
39.99999999999994
 72
    1
 10
3255
 20
39.99999999999994
 11
3255
 21
59.99999999999994
 97
    0
 75
    0
 76
    1
 98
    0
  0
HATCH
  5
6E
100
AcDbEntity
  8
steel_light
  6
ByLayer
 62
  256
370
   -1
100
AcDbHatch
 10
0
 20
0
 30
0
210
0
220
0
230
1
  2
SOLID
 70
    1
 71
    0
 91
    1
 92
    0
 93
    3
 72
    2
 10
2980
 20
-490
 40
20
 50
0
 51
360
 73
    1
 72
    2
 10
2980
 20
-490
 40
40
 50
299.9999999999995
 51
240.0000000000003
 73
    0
 72
    2
 10
2980
 20
-490
 40
40
 50
240.0000000000003
 51
299.9999999999995
 73
    0
 97
    0
 75
    0
 76
    1
 98
    0
  0
HATCH
  5
6F
100
AcDbEntity
  8
steel_dark
  6
ByLayer
 62
  256
370
   -1
100
AcDbHatch
 10
0
 20
0
 30
0
210
0
220
0
230
1
  2
SOLID
 70
    1
 71
    0
 91
    1
 92
    0
 93
    1
 72
    2
 10
2980
 20
-490
 40
20
 50
0
 51
360
 73
    1
 97
    0
 75
    0
 76
    1
 98
    0
  0
HATCH
  5
70
100
AcDbEntity
  8
handle
  6
ByLayer
 62
  256
370
   -1
100
AcDbHatch
 10
0
 20
0
 30
0
210
0
220
0
230
1
  2
SOLID
 70
    1
 71
    0
 91
    1
 92
    0
 93
    4
 72
    1
 10
3000
 20
-455.3589838486219
 11
3000
 21
-3.429983569896484e-14
 72
    1
 10
3000
 20
-3.429983569896484e-14
 11
2960
 21
-2.964901051944417e-14
 72
    1
 10
2960
 20
-2.964901051944417e-14
 11
2960
 21
-455.3589838486225
 72
    2
 10
2980
 20
-490
 40
40
 50
240.0000000000003
 51
299.9999999999995
 73
    0
 97
    0
 75
    0
 76
    1
 98
    0
  0
HATCH
  5
71
100
AcDbEntity
  8
steel_light
  6
ByLayer
 62
  256
370
   -1
100
AcDbHatch
 10
0
 20
0
 30
0
210
0
220
0
230
1
  2
SOLID
 70
    1
 71
    0
 91
    1
 92
    0
 93
    6
 72
    1
 10
1705
 20
40
 11
2255
 21
39.99999999999994
 72
    1
 10
2255
 20
39.99999999999994
 11
2255
 21
-6.282693663562992e-14
 72
    1
 10
2255
 20
-6.282693663562992e-14
 11
2000
 21
-3.429983569896484e-14
 72
    1
 10
2000
 20
-3.429983569896484e-14
 11
1960
 21
-2.964901051944417e-14
 72
    1
 10
1960
 20
-2.964901051944417e-14
 11
1705
 21
-1.121909582779109e-15
 72
    1
 10
1705
 20
-1.121909582779109e-15
 11
1705
 21
40
 97
    0
 75
    0
 76
    1
 98
    0
  0
HATCH
  5
72
100
AcDbEntity
  8
steel_dark
  6
ByLayer
 62
  256
370
   -1
100
AcDbHatch
 10
0
 20
0
 30
0
210
0
220
0
230
1
  2
SOLID
 70
    1
 71
    0
 91
    1
 92
    0
 93
    6
 72
    1
 10
1665
 20
59.99999999999999
 11
1705
 21
59.99999999999999
 72
    1
 10
1705
 20
59.99999999999999
 11
1705
 21
40
 72
    1
 10
1705
 20
40
 11
1705
 21
-1.121909582779109e-15
 72
    1
 10
1705
 20
-1.121909582779109e-15
 11
1705
 21
-20.00000000000001
 72
    1
 10
1705
 20
-20.00000000000001
 11
1665
 21
-20.00000000000001
 72
    1
 10
1665
 20
-20.00000000000001
 11
1665
 21
59.99999999999999
 97
    0
 75
    0
 76
    1
 98
    0
  0
HATCH
  5
73
100
AcDbEntity
  8
steel_dark
  6
ByLayer
 62
  256
370
   -1
100
AcDbHatch
 10
0
 20
0
 30
0
210
0
220
0
230
1
  2
SOLID
 70
    1
 71
    0
 91
    1
 92
    0
 93
    6
 72
    1
 10
2255
 20
59.99999999999994
 11
2295
 21
59.99999999999993
 72
    1
 10
2295
 20
59.99999999999993
 11
2295
 21
-20.00000000000007
 72
    1
 10
2295
 20
-20.00000000000007
 11
2255
 21
-20.00000000000007
 72
    1
 10
2255
 20
-20.00000000000007
 11
2255
 21
-6.282693663562992e-14
 72
    1
 10
2255
 20
-6.282693663562992e-14
 11
2255
 21
39.99999999999994
 72
    1
 10
2255
 20
39.99999999999994
 11
2255
 21
59.99999999999994
 97
    0
 75
    0
 76
    1
 98
    0
  0
HATCH
  5
74
100
AcDbEntity
  8
steel_light
  6
ByLayer
 62
  256
370
   -1
100
AcDbHatch
 10
0
 20
0
 30
0
210
0
220
0
230
1
  2
SOLID
 70
    1
 71
    0
 91
    1
 92
    0
 93
    3
 72
    2
 10
1980
 20
-490
 40
20
 50
0
 51
360
 73
    1
 72
    2
 10
1980
 20
-490
 40
40
 50
299.9999999999995
 51
240.0000000000003
 73
    0
 72
    2
 10
1980
 20
-490
 40
40
 50
240.0000000000003
 51
299.9999999999995
 73
    0
 97
    0
 75
    0
 76
    1
 98
    0
  0
HATCH
  5
75
100
AcDbEntity
  8
steel_dark
  6
ByLayer
 62
  256
370
   -1
100
AcDbHatch
 10
0
 20
0
 30
0
210
0
220
0
230
1
  2
SOLID
 70
    1
 71
    0
 91
    1
 92
    0
 93
    1
 72
    2
 10
1980
 20
-490
 40
20
 50
0
 51
360
 73
    1
 97
    0
 75
    0
 76
    1
 98
    0
  0
HATCH
  5
76
100
AcDbEntity
  8
handle
  6
ByLayer
 62
  256
370
   -1
100
AcDbHatch
 10
0
 20
0
 30
0
210
0
220
0
230
1
  2
SOLID
 70
    1
 71
    0
 91
    1
 92
    0
 93
    4
 72
    1
 10
2000
 20
-455.3589838486219
 11
2000
 21
-3.429983569896484e-14
 72
    1
 10
2000
 20
-3.429983569896484e-14
 11
1960
 21
-2.964901051944417e-14
 72
    1
 10
1960
 20
-2.964901051944417e-14
 11
1960
 21
-455.3589838486225
 72
    2
 10
1980
 20
-490
 40
40
 50
240.0000000000003
 51
299.9999999999995
 73
    0
 97
    0
 75
    0
 76
    1
 98
    0
  0
HATCH
  5
77
100
AcDbEntity
  8
handle
  6
ByLayer
 62
  256
370
   -1
100
AcDbHatch
 10
0
 20
0
 30
0
210
0
220
0
230
1
  2
SOLID
 70
    1
 71
    0
 91
    1
 92
    0
 93
    4
 72
    1
 10
4960
 20
-455.3589838486218
 11
4960
 21
3.429983569896484e-14
 72
    1
 10
4960
 20
3.429983569896484e-14
 11
5000
 21
2.964901051944417e-14
 72
    1
 10
5000
 20
2.964901051944417e-14
 11
5000
 21
-455.3589838486221
 72
    2
 10
4980
 20
-490
 40
40
 50
60.00000000000029
 51
119.9999999999995
 73
    1
 97
    0
 75
    0
 76
    1
 98
    0
  0
HATCH
  5
78
100
AcDbEntity
  8
steel_dark
  6
ByLayer
 62
  256
370
   -1
100
AcDbHatch
 10
0
 20
0
 30
0
210
0
220
0
230
1
  2
SOLID
 70
    1
 71
    0
 91
    1
 92
    0
 93
    1
 72
    2
 10
4980
 20
-490
 40
20
 50
0
 51
360
 73
    1
 97
    0
 75
    0
 76
    1
 98
    0
  0
HATCH
  5
79
100
AcDbEntity
  8
steel_light
  6
ByLayer
 62
  256
370
   -1
100
AcDbHatch
 10
0
 20
0
 30
0
210
0
220
0
230
1
  2
SOLID
 70
    1
 71
    0
 91
    1
 92
    0
 93
    3
 72
    2
 10
4980
 20
-490
 40
20
 50
0
 51
360
 73
    1
 72
    2
 10
4980
 20
-490
 40
40
 50
119.9999999999995
 51
60.00000000000029
 73
    1
 72
    2
 10
4980
 20
-490
 40
40
 50
60.00000000000029
 51
119.9999999999995
 73
    1
 97
    0
 75
    0
 76
    1
 98
    0
  0
HATCH
  5
7A
100
AcDbEntity
  8
steel_dark
  6
ByLayer
 62
  256
370
   -1
100
AcDbHatch
 10
0
 20
0
 30
0
210
0
220
0
230
1
  2
SOLID
 70
    1
 71
    0
 91
    1
 92
    0
 93
    6
 72
    1
 10
4705
 20
60.00000000000006
 11
4665
 21
60.00000000000007
 72
    1
 10
4665
 20
60.00000000000007
 11
4665
 21
-19.99999999999993
 72
    1
 10
4665
 20
-19.99999999999993
 11
4705
 21
-19.99999999999993
 72
    1
 10
4705
 20
-19.99999999999993
 11
4705
 21
6.282693663562992e-14
 72
    1
 10
4705
 20
6.282693663562992e-14
 11
4705
 21
40.00000000000006
 72
    1
 10
4705
 20
40.00000000000006
 11
4705
 21
60.00000000000006
 97
    0
 75
    0
 76
    1
 98
    0
  0
HATCH
  5
7B
100
AcDbEntity
  8
steel_dark
  6
ByLayer
 62
  256
370
   -1
100
AcDbHatch
 10
0
 20
0
 30
0
210
0
220
0
230
1
  2
SOLID
 70
    1
 71
    0
 91
    1
 92
    0
 93
    6
 72
    1
 10
5295
 20
60.00000000000001
 11
5255
 21
60.00000000000001
 72
    1
 10
5255
 20
60.00000000000001
 11
5255
 21
40
 72
    1
 10
5255
 20
40
 11
5255
 21
1.121909582779109e-15
 72
    1
 10
5255
 20
1.121909582779109e-15
 11
5255
 21
-19.99999999999999
 72
    1
 10
5255
 20
-19.99999999999999
 11
5295
 21
-19.99999999999999
 72
    1
 10
5295
 20
-19.99999999999999
 11
5295
 21
60.00000000000001
 97
    0
 75
    0
 76
    1
 98
    0
  0
HATCH
  5
7C
100
AcDbEntity
  8
steel_light
  6
ByLayer
 62
  256
370
   -1
100
AcDbHatch
 10
0
 20
0
 30
0
210
0
220
0
230
1
  2
SOLID
 70
    1
 71
    0
 91
    1
 92
    0
 93
    6
 72
    1
 10
5255
 20
40
 11
4705
 21
40.00000000000006
 72
    1
 10
4705
 20
40.00000000000006
 11
4705
 21
6.282693663562992e-14
 72
    1
 10
4705
 20
6.282693663562992e-14
 11
4960
 21
3.429983569896484e-14
 72
    1
 10
4960
 20
3.429983569896484e-14
 11
5000
 21
2.964901051944417e-14
 72
    1
 10
5000
 20
2.964901051944417e-14
 11
5255
 21
1.121909582779109e-15
 72
    1
 10
5255
 20
1.121909582779109e-15
 11
5255
 21
40
 97
    0
 75
    0
 76
    1
 98
    0
  0
HATCH
  5
7D
100
AcDbEntity
  8
handle
  6
ByLayer
 62
  256
370
   -1
100
AcDbHatch
 10
0
 20
0
 30
0
210
0
220
0
230
1
  2
SOLID
 70
    1
 71
    0
 91
    1
 92
    0
 93
    4
 72
    1
 10
960
 20
-455.3589838486218
 11
960
 21
3.429983569896484e-14
 72
    1
 10
960
 20
3.429983569896484e-14
 11
1000
 21
2.964901051944417e-14
 72
    1
 10
1000
 20
2.964901051944417e-14
 11
999.9999999999999
 21
-455.3589838486221
 72
    2
 10
979.9999999999999
 20
-490
 40
40
 50
60.00000000000029
 51
119.9999999999995
 73
    1
 97
    0
 75
    0
 76
    1
 98
    0
  0
HATCH
  5
7E
100
AcDbEntity
  8
steel_dark
  6
ByLayer
 62
  256
370
   -1
100
AcDbHatch
 10
0
 20
0
 30
0
210
0
220
0
230
1
  2
SOLID
 70
    1
 71
    0
 91
    1
 92
    0
 93
    1
 72
    2
 10
979.9999999999999
 20
-490
 40
20
 50
0
 51
360
 73
    1
 97
    0
 75
    0
 76
    1
 98
    0
  0
HATCH
  5
7F
100
AcDbEntity
  8
steel_light
  6
ByLayer
 62
  256
370
   -1
100
AcDbHatch
 10
0
 20
0
 30
0
210
0
220
0
230
1
  2
SOLID
 70
    1
 71
    0
 91
    1
 92
    0
 93
    3
 72
    2
 10
979.9999999999999
 20
-490
 40
20
 50
0
 51
360
 73
    1
 72
    2
 10
979.9999999999999
 20
-490
 40
40
 50
119.9999999999995
 51
60.00000000000029
 73
    1
 72
    2
 10
979.9999999999999
 20
-490
 40
40
 50
60.00000000000029
 51
119.9999999999995
 73
    1
 97
    0
 75
    0
 76
    1
 98
    0
  0
HATCH
  5
80
100
AcDbEntity
  8
steel_dark
  6
ByLayer
 62
  256
370
   -1
100
AcDbHatch
 10
0
 20
0
 30
0
210
0
220
0
230
1
  2
SOLID
 70
    1
 71
    0
 91
    1
 92
    0
 93
    6
 72
    1
 10
705
 20
60.00000000000006
 11
665
 21
60.00000000000007
 72
    1
 10
665
 20
60.00000000000007
 11
665
 21
-19.99999999999993
 72
    1
 10
665
 20
-19.99999999999993
 11
705
 21
-19.99999999999993
 72
    1
 10
705
 20
-19.99999999999993
 11
705
 21
6.282693663562992e-14
 72
    1
 10
705
 20
6.282693663562992e-14
 11
705
 21
40.00000000000006
 72
    1
 10
705
 20
40.00000000000006
 11
705
 21
60.00000000000006
 97
    0
 75
    0
 76
    1
 98
    0
  0
HATCH
  5
81
100
AcDbEntity
  8
steel_dark
  6
ByLayer
 62
  256
370
   -1
100
AcDbHatch
 10
0
 20
0
 30
0
210
0
220
0
230
1
  2
SOLID
 70
    1
 71
    0
 91
    1
 92
    0
 93
    6
 72
    1
 10
1295
 20
60.00000000000001
 11
1255
 21
60.00000000000001
 72
    1
 10
1255
 20
60.00000000000001
 11
1255
 21
40
 72
    1
 10
1255
 20
40
 11
1255
 21
1.121909582779109e-15
 72
    1
 10
1255
 20
1.121909582779109e-15
 11
1255
 21
-19.99999999999999
 72
    1
 10
1255
 20
-19.99999999999999
 11
1295
 21
-19.99999999999999
 72
    1
 10
1295
 20
-19.99999999999999
 11
1295
 21
60.00000000000001
 97
    0
 75
    0
 76
    1
 98
    0
  0
HATCH
  5
82
100
AcDbEntity
  8
steel_light
  6
ByLayer
 62
  256
370
   -1
100
AcDbHatch
 10
0
 20
0
 30
0
210
0
220
0
230
1
  2
SOLID
 70
    1
 71
    0
 91
    1
 92
    0
 93
    6
 72
    1
 10
1255
 20
40
 11
705
 21
40.00000000000006
 72
    1
 10
705
 20
40.00000000000006
 11
705
 21
6.282693663562992e-14
 72
    1
 10
705
 20
6.282693663562992e-14
 11
960
 21
3.429983569896484e-14
 72
    1
 10
960
 20
3.429983569896484e-14
 11
1000
 21
2.964901051944417e-14
 72
    1
 10
1000
 20
2.964901051944417e-14
 11
1255
 21
1.121909582779109e-15
 72
    1
 10
1255
 20
1.121909582779109e-15
 11
1255
 21
40
 97
    0
 75
    0
 76
    1
 98
    0
  0
HATCH
  5
83
100
AcDbEntity
  8
steel_light
  6
ByLayer
 62
  256
370
   -1
100
AcDbHatch
 10
0
 20
0
 30
0
210
0
220
0
230
1
  2
SOLID
 70
    1
 71
    0
 91
    1
 92
    0
 93
    6
 72
    1
 10
255
 20
40
 11
-295
 21
40.00000000000006
 72
    1
 10
-295
 20
40.00000000000006
 11
-295
 21
6.282693663562992e-14
 72
    1
 10
-295
 20
6.282693663562992e-14
 11
-40.00000000000006
 21
3.429983569896484e-14
 72
    1
 10
-40.00000000000006
 20
3.429983569896484e-14
 11
-3.480759185408107e-17
 21
2.964901051944417e-14
 72
    1
 10
-3.480759185408107e-17
 20
2.964901051944417e-14
 11
255
 21
1.121909582779109e-15
 72
    1
 10
255
 20
1.121909582779109e-15
 11
255
 21
40
 97
    0
 75
    0
 76
    1
 98
    0
  0
HATCH
  5
84
100
AcDbEntity
  8
steel_dark
  6
ByLayer
 62
  256
370
   -1
100
AcDbHatch
 10
0
 20
0
 30
0
210
0
220
0
230
1
  2
SOLID
 70
    1
 71
    0
 91
    1
 92
    0
 93
    6
 72
    1
 10
295
 20
60.00000000000001
 11
255
 21
60.00000000000001
 72
    1
 10
255
 20
60.00000000000001
 11
255
 21
40
 72
    1
 10
255
 20
40
 11
255
 21
1.121909582779109e-15
 72
    1
 10
255
 20
1.121909582779109e-15
 11
255
 21
-19.99999999999999
 72
    1
 10
255
 20
-19.99999999999999
 11
295
 21
-19.99999999999999
 72
    1
 10
295
 20
-19.99999999999999
 11
295
 21
60.00000000000001
 97
    0
 75
    0
 76
    1
 98
    0
  0
HATCH
  5
85
100
AcDbEntity
  8
steel_dark
  6
ByLayer
 62
  256
370
   -1
100
AcDbHatch
 10
0
 20
0
 30
0
210
0
220
0
230
1
  2
SOLID
 70
    1
 71
    0
 91
    1
 92
    0
 93
    6
 72
    1
 10
-295
 20
60.00000000000006
 11
-335
 21
60.00000000000007
 72
    1
 10
-335
 20
60.00000000000007
 11
-335
 21
-19.99999999999993
 72
    1
 10
-335
 20
-19.99999999999993
 11
-295
 21
-19.99999999999993
 72
    1
 10
-295
 20
-19.99999999999993
 11
-295
 21
6.282693663562992e-14
 72
    1
 10
-295
 20
6.282693663562992e-14
 11
-295
 21
40.00000000000006
 72
    1
 10
-295
 20
40.00000000000006
 11
-295
 21
60.00000000000006
 97
    0
 75
    0
 76
    1
 98
    0
  0
HATCH
  5
86
100
AcDbEntity
  8
steel_light
  6
ByLayer
 62
  256
370
   -1
100
AcDbHatch
 10
0
 20
0
 30
0
210
0
220
0
230
1
  2
SOLID
 70
    1
 71
    0
 91
    1
 92
    0
 93
    3
 72
    2
 10
-20.00000000000009
 20
-490
 40
20
 50
0
 51
360
 73
    1
 72
    2
 10
-20.00000000000009
 20
-490
 40
40
 50
119.9999999999995
 51
60.00000000000029
 73
    1
 72
    2
 10
-20.00000000000009
 20
-490
 40
40
 50
60.00000000000029
 51
119.9999999999995
 73
    1
 97
    0
 75
    0
 76
    1
 98
    0
  0
HATCH
  5
87
100
AcDbEntity
  8
steel_dark
  6
ByLayer
 62
  256
370
   -1
100
AcDbHatch
 10
0
 20
0
 30
0
210
0
220
0
230
1
  2
SOLID
 70
    1
 71
    0
 91
    1
 92
    0
 93
    1
 72
    2
 10
-20.00000000000009
 20
-490
 40
20
 50
0
 51
360
 73
    1
 97
    0
 75
    0
 76
    1
 98
    0
  0
HATCH
  5
88
100
AcDbEntity
  8
handle
  6
ByLayer
 62
  256
370
   -1
100
AcDbHatch
 10
0
 20
0
 30
0
210
0
220
0
230
1
  2
SOLID
 70
    1
 71
    0
 91
    1
 92
    0
 93
    4
 72
    1
 10
-40.00000000000006
 20
-455.3589838486218
 11
-40.00000000000006
 21
3.429983569896484e-14
 72
    1
 10
-40.00000000000006
 20
3.429983569896484e-14
 11
-3.480759185408107e-17
 21
2.964901051944417e-14
 72
    1
 10
-3.480759185408107e-17
 20
2.964901051944417e-14
 11
-8.526512829121202e-14
 21
-455.3589838486221
 72
    2
 10
-20.00000000000009
 20
-490
 40
40
 50
60.00000000000029
 51
119.9999999999995
 73
    1
 97
    0
 75
    0
 76
    1
 98
    0
  0
CIRCLE
  5
89
100
AcDbEntity
  8
0
  6
ByLayer
 62
  256
370
   -1
100
AcDbCircle
 10
-20.00000000000009
 20
-490
 40
20
  0
LINE
  5
8A
100
AcDbEntity
  8
0
  6
ByLayer
 62
  256
370
   -1
100
AcDbLine
 10
-40.00000000000006
 20
-455.3589838486218
 11
-40.00000000000006
 21
3.429983569896484e-14
  0
LINE
  5
8B
100
AcDbEntity
  8
0
  6
ByLayer
 62
  256
370
   -1
100
AcDbLine
 10
-3.480759185408107e-17
 20
2.964901051944417e-14
 11
-8.526512829121202e-14
 21
-455.3589838486221
  0
LINE
  5
8C
100
AcDbEntity
  8
0
  6
ByLayer
 62
  256
370
   -1
100
AcDbLine
 10
-295
 20
60.00000000000006
 11
-335
 21
60.00000000000007
  0
LINE
  5
8D
100
AcDbEntity
  8
0
  6
ByLayer
 62
  256
370
   -1
100
AcDbLine
 10
-335
 20
60.00000000000007
 11
-335
 21
-19.99999999999993
  0
LINE
  5
8E
100
AcDbEntity
  8
0
  6
ByLayer
 62
  256
370
   -1
100
AcDbLine
 10
-335
 20
-19.99999999999993
 11
-295
 21
-19.99999999999993
  0
LINE
  5
8F
100
AcDbEntity
  8
0
  6
ByLayer
 62
  256
370
   -1
100
AcDbLine
 10
295
 20
60.00000000000001
 11
255
 21
60.00000000000001
  0
LINE
  5
90
100
AcDbEntity
  8
0
  6
ByLayer
 62
  256
370
   -1
100
AcDbLine
 10
255
 20
-19.99999999999999
 11
295
 21
-19.99999999999999
  0
LINE
  5
91
100
AcDbEntity
  8
0
  6
ByLayer
 62
  256
370
   -1
100
AcDbLine
 10
295
 20
60.00000000000001
 11
295
 21
-19.99999999999999
  0
LINE
  5
92
100
AcDbEntity
  8
0
  6
ByLayer
 62
  256
370
   -1
100
AcDbLine
 10
255
 20
40
 11
-295
 21
40.00000000000006
  0
LINE
  5
93
100
AcDbEntity
  8
0
  6
ByLayer
 62
  256
370
   -1
100
AcDbLine
 10
-20
 20
40.00000000000003
 11
-19.9999999999999
 21
1670
  0
LINE
  5
94
100
AcDbEntity
  8
0
  6
ByLayer
 62
  256
370
   -1
100
AcDbLine
 10
-194.9999999999999
 20
1670
 11
155.0000000000001
 21
1670
  0
LINE
  5
95
100
AcDbEntity
  8
0
  6
ByLayer
 62
  256
370
   -1
100
AcDbLine
 10
-194.9999999999999
 20
1320
 11
155.0000000000001
 21
1320
  0
ARC
  5
96
100
AcDbEntity
  8
0
  6
ByLayer
 62
  256
370
   -1
100
AcDbCircle
 10
-20.00000000000009
 20
-490
 40
40
100
AcDbArc
 50
119.9999999999995
 51
60.00000000000029
  0
ARC
  5
97
100
AcDbEntity
  8
0
  6
ByLayer
 62
  256
370
   -1
100
AcDbCircle
 10
-20.00000000000009
 20
-490
 40
40
100
AcDbArc
 50
60.00000000000029
 51
119.9999999999995
  0
LINE
  5
98
100
AcDbEntity
  8
0
  6
ByLayer
 62
  256
370
   -1
100
AcDbLine
 10
-295
 20
6.282693663562992e-14
 11
-40.00000000000006
 21
3.429983569896484e-14
  0
LINE
  5
99
100
AcDbEntity
  8
0
  6
ByLayer
 62
  256
370
   -1
100
AcDbLine
 10
-40.00000000000006
 20
3.429983569896484e-14
 11
-3.480759185408107e-17
 21
2.964901051944417e-14
  0
LINE
  5
9A
100
AcDbEntity
  8
0
  6
ByLayer
 62
  256
370
   -1
100
AcDbLine
 10
-3.480759185408107e-17
 20
2.964901051944417e-14
 11
255
 21
1.121909582779109e-15
  0
LINE
  5
9B
100
AcDbEntity
  8
0
  6
ByLayer
 62
  256
370
   -1
100
AcDbLine
 10
-295
 20
60.00000000000006
 11
-295
 21
40.00000000000006
  0
LINE
  5
9C
100
AcDbEntity
  8
0
  6
ByLayer
 62
  256
370
   -1
100
AcDbLine
 10
-295
 20
40.00000000000006
 11
-295
 21
6.282693663562992e-14
  0
LINE
  5
9D
100
AcDbEntity
  8
0
  6
ByLayer
 62
  256
370
   -1
100
AcDbLine
 10
-295
 20
6.282693663562992e-14
 11
-295
 21
-19.99999999999993
  0
LINE
  5
9E
100
AcDbEntity
  8
0
  6
ByLayer
 62
  256
370
   -1
100
AcDbLine
 10
255
 20
60.00000000000001
 11
255
 21
40
  0
LINE
  5
9F
100
AcDbEntity
  8
0
  6
ByLayer
 62
  256
370
   -1
100
AcDbLine
 10
255
 20
40
 11
255
 21
1.121909582779109e-15
  0
LINE
  5
A0
100
AcDbEntity
  8
0
  6
ByLayer
 62
  256
370
   -1
100
AcDbLine
 10
255
 20
1.121909582779109e-15
 11
255
 21
-19.99999999999999
  0
LINE
  5
A1
100
AcDbEntity
  8
0
  6
ByLayer
 62
  256
370
   -1
100
AcDbLine
 10
-195
 20
70.00000000000006
 11
-194.9999999999999
 21
1670
  0
LINE
  5
A2
100
AcDbEntity
  8
0
  6
ByLayer
 62
  256
370
   -1
100
AcDbLine
 10
155
 20
70.00000000000001
 11
155.0000000000001
 21
1670
  0
LINE
  5
A3
100
AcDbEntity
  8
ricasso
  6
ByLayer
 62
  256
370
   -1
100
AcDbLine
 10
-195
 20
70.00000000000006
 11
-195
 21
40.00000000000005
  0
LINE
  5
A4
100
AcDbEntity
  8
ricasso
  6
ByLayer
 62
  256
370
   -1
100
AcDbLine
 10
155
 20
70.00000000000001
 11
155
 21
40.00000000000001
  0
CIRCLE
  5
A5
100
AcDbEntity
  8
0
  6
ByLayer
 62
  256
370
   -1
100
AcDbCircle
 10
979.9999999999999
 20
-490
 40
20
  0
LINE
  5
A6
100
AcDbEntity
  8
0
  6
ByLayer
 62
  256
370
   -1
100
AcDbLine
 10
960
 20
-455.3589838486218
 11
960
 21
3.429983569896484e-14
  0
LINE
  5
A7
100
AcDbEntity
  8
0
  6
ByLayer
 62
  256
370
   -1
100
AcDbLine
 10
1000
 20
2.964901051944417e-14
 11
999.9999999999999
 21
-455.3589838486221
  0
LINE
  5
A8
100
AcDbEntity
  8
0
  6
ByLayer
 62
  256
370
   -1
100
AcDbLine
 10
705
 20
60.00000000000006
 11
665
 21
60.00000000000007
  0
LINE
  5
A9
100
AcDbEntity
  8
0
  6
ByLayer
 62
  256
370
   -1
100
AcDbLine
 10
665
 20
60.00000000000007
 11
665
 21
-19.99999999999993
  0
LINE
  5
AA
100
AcDbEntity
  8
0
  6
ByLayer
 62
  256
370
   -1
100
AcDbLine
 10
665
 20
-19.99999999999993
 11
705
 21
-19.99999999999993
  0
LINE
  5
AB
100
AcDbEntity
  8
0
  6
ByLayer
 62
  256
370
   -1
100
AcDbLine
 10
1295
 20
60.00000000000001
 11
1255
 21
60.00000000000001
  0
LINE
  5
AC
100
AcDbEntity
  8
0
  6
ByLayer
 62
  256
370
   -1
100
AcDbLine
 10
1255
 20
-19.99999999999999
 11
1295
 21
-19.99999999999999
  0
LINE
  5
AD
100
AcDbEntity
  8
0
  6
ByLayer
 62
  256
370
   -1
100
AcDbLine
 10
1295
 20
60.00000000000001
 11
1295
 21
-19.99999999999999
  0
LINE
  5
AE
100
AcDbEntity
  8
0
  6
ByLayer
 62
  256
370
   -1
100
AcDbLine
 10
1255
 20
40
 11
705
 21
40.00000000000006
  0
ARC
  5
AF
100
AcDbEntity
  8
0
  6
ByLayer
 62
  256
370
   -1
100
AcDbCircle
 10
979.9999999999999
 20
-490
 40
40
100
AcDbArc
 50
119.9999999999995
 51
60.00000000000029
  0
ARC
  5
B0
100
AcDbEntity
  8
0
  6
ByLayer
 62
  256
370
   -1
100
AcDbCircle
 10
979.9999999999999
 20
-490
 40
40
100
AcDbArc
 50
60.00000000000029
 51
119.9999999999995
  0
LINE
  5
B1
100
AcDbEntity
  8
0
  6
ByLayer
 62
  256
370
   -1
100
AcDbLine
 10
705
 20
6.282693663562992e-14
 11
960
 21
3.429983569896484e-14
  0
LINE
  5
B2
100
AcDbEntity
  8
0
  6
ByLayer
 62
  256
370
   -1
100
AcDbLine
 10
960
 20
3.429983569896484e-14
 11
1000
 21
2.964901051944417e-14
  0
LINE
  5
B3
100
AcDbEntity
  8
0
  6
ByLayer
 62
  256
370
   -1
100
AcDbLine
 10
1000
 20
2.964901051944417e-14
 11
1255
 21
1.121909582779109e-15
  0
LINE
  5
B4
100
AcDbEntity
  8
0
  6
ByLayer
 62
  256
370
   -1
100
AcDbLine
 10
705
 20
60.00000000000006
 11
705
 21
40.00000000000006
  0
LINE
  5
B5
100
AcDbEntity
  8
0
  6
ByLayer
 62
  256
370
   -1
100
AcDbLine
 10
705
 20
40.00000000000006
 11
705
 21
6.282693663562992e-14
  0
LINE
  5
B6
100
AcDbEntity
  8
0
  6
ByLayer
 62
  256
370
   -1
100
AcDbLine
 10
705
 20
6.282693663562992e-14
 11
705
 21
-19.99999999999993
  0
LINE
  5
B7
100
AcDbEntity
  8
0
  6
ByLayer
 62
  256
370
   -1
100
AcDbLine
 10
1255
 20
60.00000000000001
 11
1255
 21
40
  0
LINE
  5
B8
100
AcDbEntity
  8
0
  6
ByLayer
 62
  256
370
   -1
100
AcDbLine
 10
1255
 20
40
 11
1255
 21
1.121909582779109e-15
  0
LINE
  5
B9
100
AcDbEntity
  8
0
  6
ByLayer
 62
  256
370
   -1
100
AcDbLine
 10
1255
 20
1.121909582779109e-15
 11
1255
 21
-19.99999999999999
  0
CIRCLE
  5
BA
100
AcDbEntity
  8
0
  6
ByLayer
 62
  256
370
   -1
100
AcDbCircle
 10
4980
 20
-490
 40
20
  0
LINE
  5
BB
100
AcDbEntity
  8
0
  6
ByLayer
 62
  256
370
   -1
100
AcDbLine
 10
4960
 20
-455.3589838486218
 11
4960
 21
3.429983569896484e-14
  0
LINE
  5
BC
100
AcDbEntity
  8
0
  6
ByLayer
 62
  256
370
   -1
100
AcDbLine
 10
5000
 20
2.964901051944417e-14
 11
5000
 21
-455.3589838486221
  0
LINE
  5
BD
100
AcDbEntity
  8
0
  6
ByLayer
 62
  256
370
   -1
100
AcDbLine
 10
4705
 20
60.00000000000006
 11
4665
 21
60.00000000000007
  0
LINE
  5
BE
100
AcDbEntity
  8
0
  6
ByLayer
 62
  256
370
   -1
100
AcDbLine
 10
4665
 20
60.00000000000007
 11
4665
 21
-19.99999999999993
  0
LINE
  5
BF
100
AcDbEntity
  8
0
  6
ByLayer
 62
  256
370
   -1
100
AcDbLine
 10
4665
 20
-19.99999999999993
 11
4705
 21
-19.99999999999993
  0
LINE
  5
C0
100
AcDbEntity
  8
0
  6
ByLayer
 62
  256
370
   -1
100
AcDbLine
 10
5295
 20
60.00000000000001
 11
5255
 21
60.00000000000001
  0
LINE
  5
C1
100
AcDbEntity
  8
0
  6
ByLayer
 62
  256
370
   -1
100
AcDbLine
 10
5255
 20
-19.99999999999999
 11
5295
 21
-19.99999999999999
  0
LINE
  5
C2
100
AcDbEntity
  8
0
  6
ByLayer
 62
  256
370
   -1
100
AcDbLine
 10
5295
 20
60.00000000000001
 11
5295
 21
-19.99999999999999
  0
LINE
  5
C3
100
AcDbEntity
  8
0
  6
ByLayer
 62
  256
370
   -1
100
AcDbLine
 10
5255
 20
40
 11
4705
 21
40.00000000000006
  0
LINE
  5
C4
100
AcDbEntity
  8
0
  6
ByLayer
 62
  256
370
   -1
100
AcDbLine
 10
4980
 20
40.00000000000003
 11
4980
 21
1670
  0
ARC
  5
C5
100
AcDbEntity
  8
0
  6
ByLayer
 62
  256
370
   -1
100
AcDbCircle
 10
4980
 20
-490
 40
40
100
AcDbArc
 50
119.9999999999995
 51
60.00000000000029
  0
ARC
  5
C6
100
AcDbEntity
  8
0
  6
ByLayer
 62
  256
370
   -1
100
AcDbCircle
 10
4980
 20
-490
 40
40
100
AcDbArc
 50
60.00000000000029
 51
119.9999999999995
  0
LINE
  5
C7
100
AcDbEntity
  8
0
  6
ByLayer
 62
  256
370
   -1
100
AcDbLine
 10
4705
 20
6.282693663562992e-14
 11
4960
 21
3.429983569896484e-14
  0
LINE
  5
C8
100
AcDbEntity
  8
0
  6
ByLayer
 62
  256
370
   -1
100
AcDbLine
 10
4960
 20
3.429983569896484e-14
 11
5000
 21
2.964901051944417e-14
  0
LINE
  5
C9
100
AcDbEntity
  8
0
  6
ByLayer
 62
  256
370
   -1
100
AcDbLine
 10
5000
 20
2.964901051944417e-14
 11
5255
 21
1.121909582779109e-15
  0
LINE
  5
CA
100
AcDbEntity
  8
0
  6
ByLayer
 62
  256
370
   -1
100
AcDbLine
 10
4705
 20
60.00000000000006
 11
4705
 21
40.00000000000006
  0
LINE
  5
CB
100
AcDbEntity
  8
0
  6
ByLayer
 62
  256
370
   -1
100
AcDbLine
 10
4705
 20
40.00000000000006
 11
4705
 21
6.282693663562992e-14
  0
LINE
  5
CC
100
AcDbEntity
  8
0
  6
ByLayer
 62
  256
370
   -1
100
AcDbLine
 10
4705
 20
6.282693663562992e-14
 11
4705
 21
-19.99999999999993
  0
LINE
  5
CD
100
AcDbEntity
  8
0
  6
ByLayer
 62
  256
370
   -1
100
AcDbLine
 10
5255
 20
60.00000000000001
 11
5255
 21
40
  0
LINE
  5
CE
100
AcDbEntity
  8
0
  6
ByLayer
 62
  256
370
   -1
100
AcDbLine
 10
5255
 20
40
 11
5255
 21
1.121909582779109e-15
  0
LINE
  5
CF
100
AcDbEntity
  8
0
  6
ByLayer
 62
  256
370
   -1
100
AcDbLine
 10
5255
 20
1.121909582779109e-15
 11
5255
 21
-19.99999999999999
  0
LINE
  5
D0
100
AcDbEntity
  8
ricasso
  6
ByLayer
 62
  256
370
   -1
100
AcDbLine
 10
4805
 20
70.00000000000006
 11
4805
 21
40.00000000000005
  0
LINE
  5
D1
100
AcDbEntity
  8
ricasso
  6
ByLayer
 62
  256
370
   -1
100
AcDbLine
 10
5155
 20
70.00000000000001
 11
5155
 21
40.00000000000001
  0
CIRCLE
  5
D2
100
AcDbEntity
  8
0
  6
ByLayer
 62
  256
370
   -1
100
AcDbCircle
 10
3980
 20
-490
 40
20
  0
LINE
  5
D3
100
AcDbEntity
  8
0
  6
ByLayer
 62
  256
370
   -1
100
AcDbLine
 10
4000
 20
-455.3589838486219
 11
4000
 21
-3.429983569896484e-14
  0
LINE
  5
D4
100
AcDbEntity
  8
0
  6
ByLayer
 62
  256
370
   -1
100
AcDbLine
 10
3960
 20
-2.964901051944417e-14
 11
3960
 21
-455.3589838486225
  0
LINE
  5
D5
100
AcDbEntity
  8
0
  6
ByLayer
 62
  256
370
   -1
100
AcDbLine
 10
4255
 20
59.99999999999994
 11
4295
 21
59.99999999999993
  0
LINE
  5
D6
100
AcDbEntity
  8
0
  6
ByLayer
 62
  256
370
   -1
100
AcDbLine
 10
4295
 20
59.99999999999993
 11
4295
 21
-20.00000000000007
  0
LINE
  5
D7
100
AcDbEntity
  8
0
  6
ByLayer
 62
  256
370
   -1
100
AcDbLine
 10
4295
 20
-20.00000000000007
 11
4255
 21
-20.00000000000007
  0
LINE
  5
D8
100
AcDbEntity
  8
0
  6
ByLayer
 62
  256
370
   -1
100
AcDbLine
 10
3665
 20
59.99999999999999
 11
3705
 21
59.99999999999999
  0
LINE
  5
D9
100
AcDbEntity
  8
0
  6
ByLayer
 62
  256
370
   -1
100
AcDbLine
 10
3705
 20
-20.00000000000001
 11
3665
 21
-20.00000000000001
  0
LINE
  5
DA
100
AcDbEntity
  8
0
  6
ByLayer
 62
  256
370
   -1
100
AcDbLine
 10
3665
 20
59.99999999999999
 11
3665
 21
-20.00000000000001
  0
LINE
  5
DB
100
AcDbEntity
  8
0
  6
ByLayer
 62
  256
370
   -1
100
AcDbLine
 10
3705
 20
40
 11
4255
 21
39.99999999999994
  0
LINE
  5
DC
100
AcDbEntity
  8
0
  6
ByLayer
 62
  256
370
   -1
100
AcDbLine
 10
3980
 20
39.99999999999997
 11
3980
 21
1670
  0
ARC
  5
DD
100
AcDbEntity
  8
0
  6
ByLayer
 62
  256
370
   -1
100
AcDbCircle
 10
3980
 20
-490
 40
40
100
AcDbArc
 50
119.9999999999997
 51
60.00000000000049
  0
ARC
  5
DE
100
AcDbEntity
  8
0
  6
ByLayer
 62
  256
370
   -1
100
AcDbCircle
 10
3980
 20
-490
 40
40
100
AcDbArc
 50
60.00000000000049
 51
119.9999999999997
  0
LINE
  5
DF
100
AcDbEntity
  8
0
  6
ByLayer
 62
  256
370
   -1
100
AcDbLine
 10
4255
 20
-6.282693663562992e-14
 11
4000
 21
-3.429983569896484e-14
  0
LINE
  5
E0
100
AcDbEntity
  8
0
  6
ByLayer
 62
  256
370
   -1
100
AcDbLine
 10
4000
 20
-3.429983569896484e-14
 11
3960
 21
-2.964901051944417e-14
  0
LINE
  5
E1
100
AcDbEntity
  8
0
  6
ByLayer
 62
  256
370
   -1
100
AcDbLine
 10
3960
 20
-2.964901051944417e-14
 11
3705
 21
-1.121909582779109e-15
  0
LINE
  5
E2
100
AcDbEntity
  8
0
  6
ByLayer
 62
  256
370
   -1
100
AcDbLine
 10
4255
 20
59.99999999999994
 11
4255
 21
39.99999999999994
  0
LINE
  5
E3
100
AcDbEntity
  8
0
  6
ByLayer
 62
  256
370
   -1
100
AcDbLine
 10
4255
 20
39.99999999999994
 11
4255
 21
-6.282693663562992e-14
  0
LINE
  5
E4
100
AcDbEntity
  8
0
  6
ByLayer
 62
  256
370
   -1
100
AcDbLine
 10
4255
 20
-6.282693663562992e-14
 11
4255
 21
-20.00000000000007
  0
LINE
  5
E5
100
AcDbEntity
  8
0
  6
ByLayer
 62
  256
370
   -1
100
AcDbLine
 10
3705
 20
59.99999999999999
 11
3705
 21
40
  0
LINE
  5
E6
100
AcDbEntity
  8
0
  6
ByLayer
 62
  256
370
   -1
100
AcDbLine
 10
3705
 20
40
 11
3705
 21
-1.121909582779109e-15
  0
LINE
  5
E7
100
AcDbEntity
  8
0
  6
ByLayer
 62
  256
370
   -1
100
AcDbLine
 10
3705
 20
-1.121909582779109e-15
 11
3705
 21
-20.00000000000001
  0
LINE
  5
E8
100
AcDbEntity
  8
ricasso
  6
ByLayer
 62
  256
370
   -1
100
AcDbLine
 10
4155
 20
69.99999999999994
 11
4155
 21
39.99999999999995
  0
LINE
  5
E9
100
AcDbEntity
  8
ricasso
  6
ByLayer
 62
  256
370
   -1
100
AcDbLine
 10
3805
 20
69.99999999999999
 11
3805
 21
39.99999999999999
  0
CIRCLE
  5
EA
100
AcDbEntity
  8
0
  6
ByLayer
 62
  256
370
   -1
100
AcDbCircle
 10
2980
 20
-490
 40
20
  0
LINE
  5
EB
100
AcDbEntity
  8
0
  6
ByLayer
 62
  256
370
   -1
100
AcDbLine
 10
3000
 20
-455.3589838486219
 11
3000
 21
-3.429983569896484e-14
  0
LINE
  5
EC
100
AcDbEntity
  8
0
  6
ByLayer
 62
  256
370
   -1
100
AcDbLine
 10
2960
 20
-2.964901051944417e-14
 11
2960
 21
-455.3589838486225
  0
LINE
  5
ED
100
AcDbEntity
  8
0
  6
ByLayer
 62
  256
370
   -1
100
AcDbLine
 10
3255
 20
59.99999999999994
 11
3295
 21
59.99999999999993
  0
LINE
  5
EE
100
AcDbEntity
  8
0
  6
ByLayer
 62
  256
370
   -1
100
AcDbLine
 10
3295
 20
59.99999999999993
 11
3295
 21
-20.00000000000007
  0
LINE
  5
EF
100
AcDbEntity
  8
0
  6
ByLayer
 62
  256
370
   -1
100
AcDbLine
 10
3295
 20
-20.00000000000007
 11
3255
 21
-20.00000000000007
  0
LINE
  5
F0
100
AcDbEntity
  8
0
  6
ByLayer
 62
  256
370
   -1
100
AcDbLine
 10
2665
 20
59.99999999999999
 11
2705
 21
59.99999999999999
  0
LINE
  5
F1
100
AcDbEntity
  8
0
  6
ByLayer
 62
  256
370
   -1
100
AcDbLine
 10
2705
 20
-20.00000000000001
 11
2665
 21
-20.00000000000001
  0
LINE
  5
F2
100
AcDbEntity
  8
0
  6
ByLayer
 62
  256
370
   -1
100
AcDbLine
 10
2665
 20
59.99999999999999
 11
2665
 21
-20.00000000000001
  0
LINE
  5
F3
100
AcDbEntity
  8
0
  6
ByLayer
 62
  256
370
   -1
100
AcDbLine
 10
2705
 20
40
 11
3255
 21
39.99999999999994
  0
LINE
  5
F4
100
AcDbEntity
  8
0
  6
ByLayer
 62
  256
370
   -1
100
AcDbLine
 10
2980
 20
39.99999999999997
 11
2980
 21
1670
  0
ARC
  5
F5
100
AcDbEntity
  8
0
  6
ByLayer
 62
  256
370
   -1
100
AcDbCircle
 10
2980
 20
-490
 40
40
100
AcDbArc
 50
119.9999999999997
 51
60.00000000000049
  0
ARC
  5
F6
100
AcDbEntity
  8
0
  6
ByLayer
 62
  256
370
   -1
100
AcDbCircle
 10
2980
 20
-490
 40
40
100
AcDbArc
 50
60.00000000000049
 51
119.9999999999997
  0
LINE
  5
F7
100
AcDbEntity
  8
0
  6
ByLayer
 62
  256
370
   -1
100
AcDbLine
 10
3255
 20
-6.282693663562992e-14
 11
3000
 21
-3.429983569896484e-14
  0
LINE
  5
F8
100
AcDbEntity
  8
0
  6
ByLayer
 62
  256
370
   -1
100
AcDbLine
 10
3000
 20
-3.429983569896484e-14
 11
2960
 21
-2.964901051944417e-14
  0
LINE
  5
F9
100
AcDbEntity
  8
0
  6
ByLayer
 62
  256
370
   -1
100
AcDbLine
 10
2960
 20
-2.964901051944417e-14
 11
2705
 21
-1.121909582779109e-15
  0
LINE
  5
FA
100
AcDbEntity
  8
0
  6
ByLayer
 62
  256
370
   -1
100
AcDbLine
 10
3255
 20
59.99999999999994
 11
3255
 21
39.99999999999994
  0
LINE
  5
FB
100
AcDbEntity
  8
0
  6
ByLayer
 62
  256
370
   -1
100
AcDbLine
 10
3255
 20
39.99999999999994
 11
3255
 21
-6.282693663562992e-14
  0
LINE
  5
FC
100
AcDbEntity
  8
0
  6
ByLayer
 62
  256
370
   -1
100
AcDbLine
 10
3255
 20
-6.282693663562992e-14
 11
3255
 21
-20.00000000000007
  0
LINE
  5
FD
100
AcDbEntity
  8
0
  6
ByLayer
 62
  256
370
   -1
100
AcDbLine
 10
2705
 20
59.99999999999999
 11
2705
 21
40
  0
LINE
  5
FE
100
AcDbEntity
  8
0
  6
ByLayer
 62
  256
370
   -1
100
AcDbLine
 10
2705
 20
40
 11
2705
 21
-1.121909582779109e-15
  0
LINE
  5
FF
100
AcDbEntity
  8
0
  6
ByLayer
 62
  256
370
   -1
100
AcDbLine
 10
2705
 20
-1.121909582779109e-15
 11
2705
 21
-20.00000000000001
  0
LINE
  5
100
100
AcDbEntity
  8
ricasso
  6
ByLayer
 62
  256
370
   -1
100
AcDbLine
 10
3155
 20
69.99999999999994
 11
3155
 21
39.99999999999995
  0
LINE
  5
101
100
AcDbEntity
  8
ricasso
  6
ByLayer
 62
  256
370
   -1
100
AcDbLine
 10
2805
 20
69.99999999999999
 11
2805
 21
39.99999999999999
  0
CIRCLE
  5
102
100
AcDbEntity
  8
0
  6
ByLayer
 62
  256
370
   -1
100
AcDbCircle
 10
1980
 20
-490
 40
20
  0
LINE
  5
103
100
AcDbEntity
  8
0
  6
ByLayer
 62
  256
370
   -1
100
AcDbLine
 10
2000
 20
-455.3589838486219
 11
2000
 21
-3.429983569896484e-14
  0
LINE
  5
104
100
AcDbEntity
  8
0
  6
ByLayer
 62
  256
370
   -1
100
AcDbLine
 10
1960
 20
-2.964901051944417e-14
 11
1960
 21
-455.3589838486225
  0
LINE
  5
105
100
AcDbEntity
  8
0
  6
ByLayer
 62
  256
370
   -1
100
AcDbLine
 10
2255
 20
59.99999999999994
 11
2295
 21
59.99999999999993
  0
LINE
  5
106
100
AcDbEntity
  8
0
  6
ByLayer
 62
  256
370
   -1
100
AcDbLine
 10
2295
 20
59.99999999999993
 11
2295
 21
-20.00000000000007
  0
LINE
  5
107
100
AcDbEntity
  8
0
  6
ByLayer
 62
  256
370
   -1
100
AcDbLine
 10
2295
 20
-20.00000000000007
 11
2255
 21
-20.00000000000007
  0
LINE
  5
108
100
AcDbEntity
  8
0
  6
ByLayer
 62
  256
370
   -1
100
AcDbLine
 10
1665
 20
59.99999999999999
 11
1705
 21
59.99999999999999
  0
LINE
  5
109
100
AcDbEntity
  8
0
  6
ByLayer
 62
  256
370
   -1
100
AcDbLine
 10
1705
 20
-20.00000000000001
 11
1665
 21
-20.00000000000001
  0
LINE
  5
10A
100
AcDbEntity
  8
0
  6
ByLayer
 62
  256
370
   -1
100
AcDbLine
 10
1665
 20
59.99999999999999
 11
1665
 21
-20.00000000000001
  0
LINE
  5
10B
100
AcDbEntity
  8
0
  6
ByLayer
 62
  256
370
   -1
100
AcDbLine
 10
1705
 20
40
 11
2255
 21
39.99999999999994
  0
ARC
  5
10C
100
AcDbEntity
  8
0
  6
ByLayer
 62
  256
370
   -1
100
AcDbCircle
 10
1980
 20
-490
 40
40
100
AcDbArc
 50
119.9999999999997
 51
60.00000000000049
  0
ARC
  5
10D
100
AcDbEntity
  8
0
  6
ByLayer
 62
  256
370
   -1
100
AcDbCircle
 10
1980
 20
-490
 40
40
100
AcDbArc
 50
60.00000000000049
 51
119.9999999999997
  0
LINE
  5
10E
100
AcDbEntity
  8
0
  6
ByLayer
 62
  256
370
   -1
100
AcDbLine
 10
2255
 20
-6.282693663562992e-14
 11
2000
 21
-3.429983569896484e-14
  0
LINE
  5
10F
100
AcDbEntity
  8
0
  6
ByLayer
 62
  256
370
   -1
100
AcDbLine
 10
2000
 20
-3.429983569896484e-14
 11
1960
 21
-2.964901051944417e-14
  0
LINE
  5
110
100
AcDbEntity
  8
0
  6
ByLayer
 62
  256
370
   -1
100
AcDbLine
 10
1960
 20
-2.964901051944417e-14
 11
1705
 21
-1.121909582779109e-15
  0
LINE
  5
111
100
AcDbEntity
  8
0
  6
ByLayer
 62
  256
370
   -1
100
AcDbLine
 10
2255
 20
59.99999999999994
 11
2255
 21
39.99999999999994
  0
LINE
  5
112
100
AcDbEntity
  8
0
  6
ByLayer
 62
  256
370
   -1
100
AcDbLine
 10
2255
 20
39.99999999999994
 11
2255
 21
-6.282693663562992e-14
  0
LINE
  5
113
100
AcDbEntity
  8
0
  6
ByLayer
 62
  256
370
   -1
100
AcDbLine
 10
2255
 20
-6.282693663562992e-14
 11
2255
 21
-20.00000000000007
  0
LINE
  5
114
100
AcDbEntity
  8
0
  6
ByLayer
 62
  256
370
   -1
100
AcDbLine
 10
1705
 20
59.99999999999999
 11
1705
 21
40
  0
LINE
  5
115
100
AcDbEntity
  8
0
  6
ByLayer
 62
  256
370
   -1
100
AcDbLine
 10
1705
 20
40
 11
1705
 21
-1.121909582779109e-15
  0
LINE
  5
116
100
AcDbEntity
  8
0
  6
ByLayer
 62
  256
370
   -1
100
AcDbLine
 10
1705
 20
-1.121909582779109e-15
 11
1705
 21
-20.00000000000001
  0
LINE
  5
117
100
AcDbEntity
  8
ricasso
  6
ByLayer
 62
  256
370
   -1
100
AcDbLine
 10
2155
 20
69.99999999999994
 11
2155
 21
39.99999999999995
  0
LINE
  5
118
100
AcDbEntity
  8
ricasso
  6
ByLayer
 62
  256
370
   -1
100
AcDbLine
 10
1805
 20
69.99999999999999
 11
1805
 21
39.99999999999999
  0
LINE
  5
119
100
AcDbEntity
  8
0
  6
ByLayer
 62
  256
370
   -1
100
AcDbLine
 10
1980
 20
1670
 11
1980
 21
39.99999999999997
  0
ARC
  5
11A
100
AcDbEntity
  8
ricasso
  6
ByLayer
 62
  256
370
   -1
100
AcDbCircle
 10
-54.99999999999966
 20
85.00000000000011
 40
15
100
AcDbArc
 50
179.9999999999998
 51
2.289999370653732e-13
  0
ARC
  5
11B
100
AcDbEntity
  8
ricasso
  6
ByLayer
 62
  256
370
   -1
100
AcDbCircle
 10
15.00000000000034
 20
84.99999999999989
 40
15
100
AcDbArc
 50
179.9999999999998
 51
2.289999370653732e-13
  0
ARC
  5
11C
100
AcDbEntity
  8
ricasso
  6
ByLayer
 62
  256
370
   -1
100
AcDbCircle
 10
-54.99999999999989
 20
1625
 40
15
100
AcDbArc
 50
359.9999999999998
 51
179.9999999999996
  0
ARC
  5
11D
100
AcDbEntity
  8
ricasso
  6
ByLayer
 62
  256
370
   -1
100
AcDbCircle
 10
15.00000000000011
 20
1625
 40
15
100
AcDbArc
 50
359.9999999999998
 51
179.9999999999996
  0
LINE
  5
11E
100
AcDbEntity
  8
ricasso
  6
ByLayer
 62
  256
370
   -1
100
AcDbLine
 10
-69.99999999999966
 20
85.00000000000017
 11
-69.99999999999989
 21
1625
  0
LINE
  5
11F
100
AcDbEntity
  8
ricasso
  6
ByLayer
 62
  256
370
   -1
100
AcDbLine
 10
-39.99999999999989
 20
1625
 11
-39.99999999999966
 21
85.00000000000017
  0
LINE
  5
120
100
AcDbEntity
  8
ricasso
  6
ByLayer
 62
  256
370
   -1
100
AcDbLine
 10
3.410605131648481e-13
 20
84.99999999999994
 11
1.13686837721616e-13
 21
1625
  0
LINE
  5
121
100
AcDbEntity
  8
ricasso
  6
ByLayer
 62
  256
370
   -1
100
AcDbLine
 10
30.00000000000011
 20
1625
 11
30.00000000000034
 21
84.99999999999994
  0
LINE
  5
122
100
AcDbEntity
  8
draw2
  6
ByLayer
 62
  256
370
   -1
100
AcDbLine
 10
-54.99999999999989
 20
1625
 11
-54.99999999999966
 21
85.00000000000011
  0
LINE
  5
123
100
AcDbEntity
  8
draw2
  6
ByLayer
 62
  256
370
   -1
100
AcDbLine
 10
15.00000000000034
 20
84.99999999999989
 11
15.00000000000011
 21
1625
  0
ARC
  5
124
100
AcDbEntity
  8
ricasso
  6
ByLayer
 62
  256
370
   -1
100
AcDbCircle
 10
945.0000000000003
 20
85.00000000000011
 40
15
100
AcDbArc
 50
179.9999999999998
 51
2.289999370653732e-13
  0
ARC
  5
125
100
AcDbEntity
  8
ricasso
  6
ByLayer
 62
  256
370
   -1
100
AcDbCircle
 10
1015
 20
84.99999999999989
 40
15
100
AcDbArc
 50
179.9999999999998
 51
2.289999370653732e-13
  0
ARC
  5
126
100
AcDbEntity
  8
ricasso
  6
ByLayer
 62
  256
370
   -1
100
AcDbCircle
 10
1945
 20
85.00000000000011
 40
15
100
AcDbArc
 50
179.9999999999998
 51
2.289999370653732e-13
  0
ARC
  5
127
100
AcDbEntity
  8
ricasso
  6
ByLayer
 62
  256
370
   -1
100
AcDbCircle
 10
2015
 20
84.99999999999989
 40
15
100
AcDbArc
 50
179.9999999999998
 51
2.289999370653732e-13
  0
ARC
  5
128
100
AcDbEntity
  8
ricasso
  6
ByLayer
 62
  256
370
   -1
100
AcDbCircle
 10
2945
 20
85.00000000000011
 40
15
100
AcDbArc
 50
179.9999999999998
 51
2.289999370653732e-13
  0
ARC
  5
129
100
AcDbEntity
  8
ricasso
  6
ByLayer
 62
  256
370
   -1
100
AcDbCircle
 10
3015
 20
84.99999999999989
 40
15
100
AcDbArc
 50
179.9999999999998
 51
2.289999370653732e-13
  0
ARC
  5
12A
100
AcDbEntity
  8
ricasso
  6
ByLayer
 62
  256
370
   -1
100
AcDbCircle
 10
3945
 20
85.00000000000011
 40
15
100
AcDbArc
 50
179.9999999999998
 51
2.289999370653732e-13
  0
ARC
  5
12B
100
AcDbEntity
  8
ricasso
  6
ByLayer
 62
  256
370
   -1
100
AcDbCircle
 10
4015
 20
84.99999999999989
 40
15
100
AcDbArc
 50
179.9999999999998
 51
2.289999370653732e-13
  0
ARC
  5
12C
100
AcDbEntity
  8
ricasso
  6
ByLayer
 62
  256
370
   -1
100
AcDbCircle
 10
4945
 20
85.00000000000011
 40
15
100
AcDbArc
 50
179.9999999999998
 51
2.289999370653732e-13
  0
ARC
  5
12D
100
AcDbEntity
  8
ricasso
  6
ByLayer
 62
  256
370
   -1
100
AcDbCircle
 10
5015
 20
84.99999999999989
 40
15
100
AcDbArc
 50
179.9999999999998
 51
2.289999370653732e-13
  0
ARC
  5
12E
100
AcDbEntity
  8
ricasso
  6
ByLayer
 62
  256
370
   -1
100
AcDbCircle
 10
945
 20
900
 40
15
100
AcDbArc
 50
359.9999999999998
 51
179.9999999999996
  0
ARC
  5
12F
100
AcDbEntity
  8
ricasso
  6
ByLayer
 62
  256
370
   -1
100
AcDbCircle
 10
1015
 20
900
 40
15
100
AcDbArc
 50
359.9999999999998
 51
179.9999999999996
  0
LINE
  5
130
100
AcDbEntity
  8
ricasso
  6
ByLayer
 62
  256
370
   -1
100
AcDbLine
 10
805
 20
70.00000000000006
 11
805
 21
40.00000000000005
  0
LINE
  5
131
100
AcDbEntity
  8
ricasso
  6
ByLayer
 62
  256
370
   -1
100
AcDbLine
 10
1155
 20
70.00000000000001
 11
1155
 21
40.00000000000001
  0
ARC
  5
132
100
AcDbEntity
  8
steel_dark
  6
ByLayer
 62
  256
370
   -1
100
AcDbCircle
 10
980
 20
70.00000000000003
 40
145
100
AcDbArc
 50
173.7207116774497
 51
180
  0
ARC
  5
133
100
AcDbEntity
  8
steel_dark
  6
ByLayer
 62
  256
370
   -1
100
AcDbCircle
 10
980
 20
70.00000000000003
 40
145
100
AcDbArc
 50
0
 51
6.279288322550253
  0
LINE
  5
134
100
AcDbEntity
  8
steel_dark
  6
ByLayer
 62
  256
370
   -1
100
AcDbLine
 10
835.8699190848441
 20
85.859375
 11
980.0000000000001
 21
1395.714285714285
  0
LINE
  5
135
100
AcDbEntity
  8
steel_dark
  6
ByLayer
 62
  256
370
   -1
100
AcDbLine
 10
980.0000000000001
 20
1395.714285714285
 11
1124.130080915156
 21
85.85937500000003
  0
LINE
  5
136
100
AcDbEntity
  8
steel_dark
  6
ByLayer
 62
  256
370
   -1
100
AcDbLine
 10
835
 20
70.00000000000004
 11
835
 21
40.00000000000004
  0
LINE
  5
137
100
AcDbEntity
  8
steel_dark
  6
ByLayer
 62
  256
370
   -1
100
AcDbLine
 10
1125
 20
70.00000000000003
 11
1125
 21
40.00000000000002
  0
ARC
  5
138
100
AcDbEntity
  8
steel_dark
  6
ByLayer
 62
  256
370
   -1
100
AcDbCircle
 10
980
 20
70.00000000000003
 40
175
100
AcDbArc
 50
173.7207116774497
 51
180
  0
ARC
  5
139
100
AcDbEntity
  8
steel_dark
  6
ByLayer
 62
  256
370
   -1
100
AcDbCircle
 10
980
 20
70.00000000000003
 40
175
100
AcDbArc
 50
0
 51
6.279288322550253
  0
LINE
  5
13A
100
AcDbEntity
  8
steel_dark
  6
ByLayer
 62
  256
370
   -1
100
AcDbLine
 10
806.0499023437774
 20
89.14062500000001
 11
980.0000000000001
 21
1670
  0
LINE
  5
13B
100
AcDbEntity
  8
steel_dark
  6
ByLayer
 62
  256
370
   -1
100
AcDbLine
 10
980.0000000000001
 20
1670
 11
1153.950097656223
 21
89.140625
  0
LINE
  5
13C
100
AcDbEntity
  8
ricasso
  6
ByLayer
 62
  256
370
   -1
100
AcDbLine
 10
960
 20
899.9999999999999
 11
960.0000000000003
 21
85.00000000000017
  0
LINE
  5
13D
100
AcDbEntity
  8
ricasso
  6
ByLayer
 62
  256
370
   -1
100
AcDbLine
 10
930.0000000000003
 20
85.00000000000017
 11
930
 21
900.0000000000001
  0
LINE
  5
13E
100
AcDbEntity
  8
ricasso
  6
ByLayer
 62
  256
370
   -1
100
AcDbLine
 10
1000
 20
900.0000000000001
 11
1000
 21
84.99999999999994
  0
LINE
  5
13F
100
AcDbEntity
  8
ricasso
  6
ByLayer
 62
  256
370
   -1
100
AcDbLine
 10
1030
 20
84.99999999999994
 11
1030
 21
899.9999999999999
  0
ARC
  5
140
100
AcDbEntity
  8
ricasso
  6
ByLayer
 62
  256
370
   -1
100
AcDbCircle
 10
1945
 20
1425
 40
15
100
AcDbArc
 50
359.9999999999998
 51
179.9999999999996
  0
ARC
  5
141
100
AcDbEntity
  8
ricasso
  6
ByLayer
 62
  256
370
   -1
100
AcDbCircle
 10
2015
 20
1425
 40
15
100
AcDbArc
 50
359.9999999999998
 51
179.9999999999996
  0
LINE
  5
142
100
AcDbEntity
  8
ricasso
  6
ByLayer
 62
  256
370
   -1
100
AcDbLine
 10
1930
 20
1425
 11
1930
 21
85.00000000000017
  0
LINE
  5
143
100
AcDbEntity
  8
ricasso
  6
ByLayer
 62
  256
370
   -1
100
AcDbLine
 10
1960
 20
85.00000000000017
 11
1960
 21
1425
  0
LINE
  5
144
100
AcDbEntity
  8
ricasso
  6
ByLayer
 62
  256
370
   -1
100
AcDbLine
 10
2000
 20
84.99999999999994
 11
2000
 21
1425
  0
LINE
  5
145
100
AcDbEntity
  8
ricasso
  6
ByLayer
 62
  256
370
   -1
100
AcDbLine
 10
2030
 20
1425
 11
2030
 21
84.99999999999994
  0
ARC
  5
146
100
AcDbEntity
  8
steel_light
  6
ByLayer
 62
  256
370
   -1
100
AcDbCircle
 10
1630
 20
1670
 40
350
100
AcDbArc
 50
318.5903778907273
 51
0
  0
ARC
  5
147
100
AcDbEntity
  8
steel_light
  6
ByLayer
 62
  256
370
   -1
100
AcDbCircle
 10
2330
 20
1670
 40
350
100
AcDbArc
 50
180
 51
221.4096221092698
  0
ARC
  5
148
100
AcDbEntity
  8
steel_light
  6
ByLayer
 62
  256
370
   -1
100
AcDbCircle
 10
1804.999999999992
 20
1206.993520563706
 40
350
100
AcDbArc
 50
0
 51
41.40962210926981
  0
ARC
  5
149
100
AcDbEntity
  8
steel_light
  6
ByLayer
 62
  256
370
   -1
100
AcDbCircle
 10
2154.999999999985
 20
1206.99352056368
 40
350
100
AcDbArc
 50
138.5903778907273
 51
180
  0
LINE
  5
14A
100
AcDbEntity
  8
steel_light
  6
ByLayer
 62
  256
370
   -1
100
AcDbLine
 10
2154.999999999992
 20
1206.993520563706
 11
2155
 21
69.99999999999994
  0
LINE
  5
14B
100
AcDbEntity
  8
steel_light
  6
ByLayer
 62
  256
370
   -1
100
AcDbLine
 10
1804.999999999985
 20
1206.99352056368
 11
1805
 21
69.99999999999999
  0
ARC
  5
14C
100
AcDbEntity
  8
steel_light
  6
ByLayer
 62
  256
370
   -1
100
AcDbCircle
 10
1804.999999999992
 20
1206.993520563706
 40
320
100
AcDbArc
 50
0
 51
41.40962210926981
  0
ARC
  5
14D
100
AcDbEntity
  8
steel_light
  6
ByLayer
 62
  256
370
   -1
100
AcDbCircle
 10
2154.999999999985
 20
1206.99352056368
 40
320
100
AcDbArc
 50
138.5903778907273
 51
180
  0
ARC
  5
14E
100
AcDbEntity
  8
steel_light
  6
ByLayer
 62
  256
370
   -1
100
AcDbCircle
 10
2330
 20
1670
 40
380
100
AcDbArc
 50
202.9195421515698
 51
221.4096221092698
  0
ARC
  5
14F
100
AcDbEntity
  8
steel_light
  6
ByLayer
 62
  256
370
   -1
100
AcDbCircle
 10
1630
 20
1670
 40
380
100
AcDbArc
 50
318.5903778907273
 51
337.0804578484302
  0
ARC
  5
150
100
AcDbEntity
  8
ricasso
  6
ByLayer
 62
  256
370
   -1
100
AcDbCircle
 10
4945
 20
1610
 40
15
100
AcDbArc
 50
359.9999999999998
 51
179.9999999999996
  0
ARC
  5
151
100
AcDbEntity
  8
ricasso
  6
ByLayer
 62
  256
370
   -1
100
AcDbCircle
 10
5015
 20
1610
 40
15
100
AcDbArc
 50
359.9999999999998
 51
179.9999999999996
  0
LINE
  5
152
100
AcDbEntity
  8
ricasso
  6
ByLayer
 62
  256
370
   -1
100
AcDbLine
 10
4930
 20
85.00000000000017
 11
4930
 21
1610
  0
LINE
  5
153
100
AcDbEntity
  8
ricasso
  6
ByLayer
 62
  256
370
   -1
100
AcDbLine
 10
4960
 20
1610
 11
4960
 21
85.00000000000017
  0
LINE
  5
154
100
AcDbEntity
  8
ricasso
  6
ByLayer
 62
  256
370
   -1
100
AcDbLine
 10
5000
 20
84.99999999999994
 11
5000
 21
1610
  0
LINE
  5
155
100
AcDbEntity
  8
ricasso
  6
ByLayer
 62
  256
370
   -1
100
AcDbLine
 10
5030
 20
1610
 11
5030
 21
84.99999999999994
  0
LINE
  5
156
100
AcDbEntity
  8
steel_light
  6
ByLayer
 62
  256
370
   -1
100
AcDbLine
 10
5155
 20
70.00000000000001
 11
5155
 21
1495
  0
LINE
  5
157
100
AcDbEntity
  8
steel_light
  6
ByLayer
 62
  256
370
   -1
100
AcDbLine
 10
4805
 20
70.00000000000006
 11
4805
 21
1495
  0
ARC
  5
158
100
AcDbEntity
  8
steel_light
  6
ByLayer
 62
  256
370
   -1
100
AcDbCircle
 10
4980
 20
1495
 40
175
100
AcDbArc
 50
359.9999999999999
 51
180.0000000000001
  0
ARC
  5
159
100
AcDbEntity
  8
steel_light
  6
ByLayer
 62
  256
370
   -1
100
AcDbCircle
 10
4980
 20
1495
 40
145
100
AcDbArc
 50
359.9999999999999
 51
180.0000000000001
  0
ARC
  5
15A
100
AcDbEntity
  8
ricasso
  6
ByLayer
 62
  256
370
   -1
100
AcDbCircle
 10
2945
 20
1490
 40
15
100
AcDbArc
 50
359.9999999999998
 51
179.9999999999996
  0
ARC
  5
15B
100
AcDbEntity
  8
ricasso
  6
ByLayer
 62
  256
370
   -1
100
AcDbCircle
 10
3015
 20
1490
 40
15
100
AcDbArc
 50
359.9999999999998
 51
179.9999999999996
  0
LINE
  5
15C
100
AcDbEntity
  8
ricasso
  6
ByLayer
 62
  256
370
   -1
100
AcDbLine
 10
2930
 20
85.00000000000017
 11
2930
 21
1490
  0
LINE
  5
15D
100
AcDbEntity
  8
ricasso
  6
ByLayer
 62
  256
370
   -1
100
AcDbLine
 10
2960
 20
1490
 11
2960
 21
85.00000000000017
  0
LINE
  5
15E
100
AcDbEntity
  8
ricasso
  6
ByLayer
 62
  256
370
   -1
100
AcDbLine
 10
3000
 20
84.99999999999994
 11
3000
 21
1490
  0
LINE
  5
15F
100
AcDbEntity
  8
ricasso
  6
ByLayer
 62
  256
370
   -1
100
AcDbLine
 10
3030
 20
1490
 11
3030
 21
84.99999999999994
  0
ARC
  5
160
100
AcDbEntity
  8
steel_light
  6
ByLayer
 62
  256
370
   -1
100
AcDbCircle
 10
3067.500000000059
 20
1299.344051968788
 40
87.49999999993862
100
AcDbArc
 50
0
 51
26.56505117708334
  0
ARC
  5
161
100
AcDbEntity
  8
steel_light
  6
ByLayer
 62
  256
370
   -1
100
AcDbCircle
 10
2892.499999999941
 20
1299.344051968788
 40
87.49999999993862
100
AcDbArc
 50
153.4349488229253
 51
180
  0
LINE
  5
162
100
AcDbEntity
  8
steel_light
  6
ByLayer
 62
  256
370
   -1
100
AcDbLine
 10
3155
 20
69.99999999999994
 11
3154.999999999998
 21
1299.344051968788
  0
LINE
  5
163
100
AcDbEntity
  8
steel_light
  6
ByLayer
 62
  256
370
   -1
100
AcDbLine
 10
3145.762379212493
 20
1338.475241575014
 11
2980
 21
1670
  0
LINE
  5
164
100
AcDbEntity
  8
steel_light
  6
ByLayer
 62
  256
370
   -1
100
AcDbLine
 10
2980
 20
1670
 11
2814.237620787501
 21
1338.475241575002
  0
LINE
  5
165
100
AcDbEntity
  8
steel_light
  6
ByLayer
 62
  256
370
   -1
100
AcDbLine
 10
2805.000000000002
 20
1299.344051968788
 11
2805
 21
69.99999999999999
  0
ARC
  5
166
100
AcDbEntity
  8
steel_light
  6
ByLayer
 62
  256
370
   -1
100
AcDbCircle
 10
2892.499999999941
 20
1299.344051968788
 40
57.49999999993862
100
AcDbArc
 50
153.4349488229253
 51
180
  0
ARC
  5
167
100
AcDbEntity
  8
steel_light
  6
ByLayer
 62
  256
370
   -1
100
AcDbCircle
 10
3067.500000000059
 20
1299.344051968788
 40
57.49999999993862
100
AcDbArc
 50
0
 51
26.56505117708334
  0
LINE
  5
168
100
AcDbEntity
  8
steel_light
  6
ByLayer
 62
  256
370
   -1
100
AcDbLine
 10
2980
 20
1602.917960675006
 11
2841.070436517498
 21
1325.058833710003
  0
LINE
  5
169
100
AcDbEntity
  8
steel_light
  6
ByLayer
 62
  256
370
   -1
100
AcDbLine
 10
3118.929563482496
 20
1325.058833710015
 11
2980
 21
1602.917960675006
  0
ARC
  5
16A
100
AcDbEntity
  8
steel_light
  6
ByLayer
 62
  256
370
   -1
100
AcDbCircle
 10
4155.000000000003
 20
1366.891108675445
 40
350
100
AcDbArc
 50
119.9999999999995
 51
180
  0
ARC
  5
16B
100
AcDbEntity
  8
steel_light
  6
ByLayer
 62
  256
370
   -1
100
AcDbCircle
 10
3805.000000000003
 20
1366.891108675445
 40
350
100
AcDbArc
 50
0
 51
60.00000000000049
  0
LINE
  5
16C
100
AcDbEntity
  8
steel_light
  6
ByLayer
 62
  256
370
   -1
100
AcDbLine
 10
4155.000000000003
 20
1366.891108675445
 11
4155
 21
69.99999999999994
  0
LINE
  5
16D
100
AcDbEntity
  8
steel_light
  6
ByLayer
 62
  256
370
   -1
100
AcDbLine
 10
3805.000000000003
 20
1366.891108675445
 11
3805
 21
69.99999999999999
  0
ARC
  5
16E
100
AcDbEntity
  8
steel_light
  6
ByLayer
 62
  256
370
   -1
100
AcDbCircle
 10
4155.000000000003
 20
1366.891108675445
 40
320
100
AcDbArc
 50
123.1528879286199
 51
180
  0
ARC
  5
16F
100
AcDbEntity
  8
steel_light
  6
ByLayer
 62
  256
370
   -1
100
AcDbCircle
 10
3805.000000000003
 20
1366.891108675445
 40
320
100
AcDbArc
 50
0
 51
56.8471120713802
  0
ARC
  5
170
100
AcDbEntity
  8
ricasso
  6
ByLayer
 62
  256
370
   -1
100
AcDbCircle
 10
3945
 20
1580
 40
15
100
AcDbArc
 50
359.9999999999998
 51
179.9999999999996
  0
ARC
  5
171
100
AcDbEntity
  8
ricasso
  6
ByLayer
 62
  256
370
   -1
100
AcDbCircle
 10
4015
 20
1580
 40
15
100
AcDbArc
 50
359.9999999999998
 51
179.9999999999996
  0
LINE
  5
172
100
AcDbEntity
  8
ricasso
  6
ByLayer
 62
  256
370
   -1
100
AcDbLine
 10
3930
 20
1580
 11
3930
 21
85.00000000000017
  0
LINE
  5
173
100
AcDbEntity
  8
ricasso
  6
ByLayer
 62
  256
370
   -1
100
AcDbLine
 10
3960
 20
85.00000000000017
 11
3960
 21
1580
  0
LINE
  5
174
100
AcDbEntity
  8
ricasso
  6
ByLayer
 62
  256
370
   -1
100
AcDbLine
 10
4000
 20
1580
 11
4000
 21
84.99999999999994
  0
LINE
  5
175
100
AcDbEntity
  8
ricasso
  6
ByLayer
 62
  256
370
   -1
100
AcDbLine
 10
4030
 20
84.99999999999994
 11
4030
 21
1580
  0
ARC
  5
176
100
AcDbEntity
  8
ricasso
  6
ByLayer
 62
  256
370
   -1
100
AcDbCircle
 10
979.9999883408614
 20
929.9999999999999
 40
15
100
AcDbArc
 50
179.9999999999998
 51
2.289999370653732e-13
  0
ARC
  5
177
100
AcDbEntity
  8
ricasso
  6
ByLayer
 62
  256
370
   -1
100
AcDbCircle
 10
979.9999883408614
 20
1245
 40
15
100
AcDbArc
 50
2.289999370653732e-13
 51
180.0000000000007
  0
LINE
  5
178
100
AcDbEntity
  8
ricasso
  6
ByLayer
 62
  256
370
   -1
100
AcDbLine
 10
964.9999883408614
 20
1245
 11
964.9999883408614
 21
929.9999999999999
  0
LINE
  5
179
100
AcDbEntity
  8
ricasso
  6
ByLayer
 62
  256
370
   -1
100
AcDbLine
 10
994.9999883408614
 20
930
 11
994.9999883408614
 21
1245
  0
LINE
  5
17A
100
AcDbEntity
  8
0
  6
ByLayer
 62
  256
370
   -1
100
AcDbLine
 10
980
 20
40.00000000000003
 11
979.9999999999999
 21
915.000000000011
  0
LINE
  5
17B
100
AcDbEntity
  8
0
  6
ByLayer
 62
  256
370
   -1
100
AcDbLine
 10
979.9999999999999
 20
1259.999999999939
 11
980.0000000000001
 21
1670
  0
CIRCLE
  5
17C
100
AcDbEntity
  8
0
  6
ByLayer
 62
  256
370
   -1
100
AcDbCircle
 10
5980
 20
-490
 40
20
  0
LINE
  5
17D
100
AcDbEntity
  8
0
  6
ByLayer
 62
  256
370
   -1
100
AcDbLine
 10
5960
 20
-455.3589838486218
 11
5960
 21
3.074712202016434e-14
  0
LINE
  5
17E
100
AcDbEntity
  8
0
  6
ByLayer
 62
  256
370
   -1
100
AcDbLine
 10
6000
 20
2.609629684064367e-14
 11
6000
 21
-455.3589838486221
  0
LINE
  5
17F
100
AcDbEntity
  8
0
  6
ByLayer
 62
  256
370
   -1
100
AcDbLine
 10
5705
 20
60.00000000000006
 11
5665
 21
60.00000000000007
  0
LINE
  5
180
100
AcDbEntity
  8
0
  6
ByLayer
 62
  256
370
   -1
100
AcDbLine
 10
5665
 20
60.00000000000007
 11
5665
 21
-19.99999999999993
  0
LINE
  5
181
100
AcDbEntity
  8
0
  6
ByLayer
 62
  256
370
   -1
100
AcDbLine
 10
5665
 20
-19.99999999999993
 11
5705
 21
-19.99999999999993
  0
LINE
  5
182
100
AcDbEntity
  8
0
  6
ByLayer
 62
  256
370
   -1
100
AcDbLine
 10
6295
 20
60
 11
6255
 21
60
  0
LINE
  5
183
100
AcDbEntity
  8
0
  6
ByLayer
 62
  256
370
   -1
100
AcDbLine
 10
6255
 20
-19.99999999999999
 11
6295
 21
-19.99999999999999
  0
LINE
  5
184
100
AcDbEntity
  8
0
  6
ByLayer
 62
  256
370
   -1
100
AcDbLine
 10
6295
 20
60
 11
6295
 21
-19.99999999999999
  0
LINE
  5
185
100
AcDbEntity
  8
0
  6
ByLayer
 62
  256
370
   -1
100
AcDbLine
 10
6255
 20
40
 11
5705
 21
40.00000000000006
  0
LINE
  5
186
100
AcDbEntity
  8
0
  6
ByLayer
 62
  256
370
   -1
100
AcDbLine
 10
5980
 20
40.00000000000003
 11
5980
 21
1670
  0
ARC
  5
187
100
AcDbEntity
  8
0
  6
ByLayer
 62
  256
370
   -1
100
AcDbCircle
 10
5980
 20
-490
 40
40
100
AcDbArc
 50
119.9999999999995
 51
60.00000000000029
  0
ARC
  5
188
100
AcDbEntity
  8
0
  6
ByLayer
 62
  256
370
   -1
100
AcDbCircle
 10
5980
 20
-490
 40
40
100
AcDbArc
 50
60.00000000000029
 51
119.9999999999995
  0
LINE
  5
189
100
AcDbEntity
  8
0
  6
ByLayer
 62
  256
370
   -1
100
AcDbLine
 10
5705
 20
5.927422295682942e-14
 11
5960
 21
3.074712202016434e-14
  0
LINE
  5
18A
100
AcDbEntity
  8
0
  6
ByLayer
 62
  256
370
   -1
100
AcDbLine
 10
5960
 20
3.074712202016434e-14
 11
6000
 21
2.609629684064367e-14
  0
LINE
  5
18B
100
AcDbEntity
  8
0
  6
ByLayer
 62
  256
370
   -1
100
AcDbLine
 10
6000
 20
2.609629684064367e-14
 11
6255
 21
-2.430804096021392e-15
  0
LINE
  5
18C
100
AcDbEntity
  8
0
  6
ByLayer
 62
  256
370
   -1
100
AcDbLine
 10
5705
 20
60.00000000000006
 11
5705
 21
40.00000000000006
  0
LINE
  5
18D
100
AcDbEntity
  8
0
  6
ByLayer
 62
  256
370
   -1
100
AcDbLine
 10
5705
 20
40.00000000000006
 11
5705
 21
5.927422295682942e-14
  0
LINE
  5
18E
100
AcDbEntity
  8
0
  6
ByLayer
 62
  256
370
   -1
100
AcDbLine
 10
5705
 20
5.927422295682942e-14
 11
5705
 21
-19.99999999999993
  0
LINE
  5
18F
100
AcDbEntity
  8
0
  6
ByLayer
 62
  256
370
   -1
100
AcDbLine
 10
6255
 20
60
 11
6255
 21
40
  0
LINE
  5
190
100
AcDbEntity
  8
0
  6
ByLayer
 62
  256
370
   -1
100
AcDbLine
 10
6255
 20
40
 11
6255
 21
-2.430804096021392e-15
  0
LINE
  5
191
100
AcDbEntity
  8
0
  6
ByLayer
 62
  256
370
   -1
100
AcDbLine
 10
6255
 20
-2.430804096021392e-15
 11
6255
 21
-19.99999999999999
  0
LINE
  5
192
100
AcDbEntity
  8
ricasso
  6
ByLayer
 62
  256
370
   -1
100
AcDbLine
 10
5805
 20
70.00000000000006
 11
5805
 21
40.00000000000004
  0
LINE
  5
193
100
AcDbEntity
  8
ricasso
  6
ByLayer
 62
  256
370
   -1
100
AcDbLine
 10
6155
 20
70.00000000000001
 11
6155
 21
40
  0
ARC
  5
194
100
AcDbEntity
  8
ricasso
  6
ByLayer
 62
  256
370
   -1
100
AcDbCircle
 10
5945
 20
85.00000000000011
 40
15
100
AcDbArc
 50
179.9999999999998
 51
2.289999370653732e-13
  0
ARC
  5
195
100
AcDbEntity
  8
ricasso
  6
ByLayer
 62
  256
370
   -1
100
AcDbCircle
 10
6015
 20
84.99999999999989
 40
15
100
AcDbArc
 50
179.9999999999998
 51
2.289999370653732e-13
  0
ARC
  5
196
100
AcDbEntity
  8
ricasso
  6
ByLayer
 62
  256
370
   -1
100
AcDbCircle
 10
5945
 20
1420
 40
15
100
AcDbArc
 50
359.9999999999998
 51
179.9999999999996
  0
ARC
  5
197
100
AcDbEntity
  8
ricasso
  6
ByLayer
 62
  256
370
   -1
100
AcDbCircle
 10
6015
 20
1420
 40
15
100
AcDbArc
 50
359.9999999999998
 51
179.9999999999996
  0
LINE
  5
198
100
AcDbEntity
  8
ricasso
  6
ByLayer
 62
  256
370
   -1
100
AcDbLine
 10
5930
 20
1420
 11
5930
 21
85.00000000000017
  0
LINE
  5
199
100
AcDbEntity
  8
ricasso
  6
ByLayer
 62
  256
370
   -1
100
AcDbLine
 10
5960
 20
85.00000000000017
 11
5960
 21
1420
  0
LINE
  5
19A
100
AcDbEntity
  8
ricasso
  6
ByLayer
 62
  256
370
   -1
100
AcDbLine
 10
6000
 20
1420
 11
6000
 21
84.99999999999994
  0
LINE
  5
19B
100
AcDbEntity
  8
ricasso
  6
ByLayer
 62
  256
370
   -1
100
AcDbLine
 10
6030
 20
84.99999999999994
 11
6030
 21
1420
  0
ARC
  5
19C
100
AcDbEntity
  8
steel_light
  6
ByLayer
 62
  256
370
   -1
100
AcDbCircle
 10
5630
 20
1670
 40
350
100
AcDbArc
 50
270
 51
0
  0
ARC
  5
19D
100
AcDbEntity
  8
steel_light
  6
ByLayer
 62
  256
370
   -1
100
AcDbCircle
 10
6330.000000000146
 20
1669.999999999969
 40
350
100
AcDbArc
 50
179.9999999999949
 51
269.9999999999949
  0
ARC
  5
19E
100
AcDbEntity
  8
steel_light
  6
ByLayer
 62
  256
370
   -1
100
AcDbCircle
 10
5455.000000000015
 20
969.9999999999509
 40
350
100
AcDbArc
 50
8.04044223473977e-12
 51
90.00000000000804
  0
ARC
  5
19F
100
AcDbEntity
  8
steel_light
  6
ByLayer
 62
  256
370
   -1
100
AcDbCircle
 10
6504.999999999985
 20
969.9999999999197
 40
350
100
AcDbArc
 50
89.99999999998687
 51
179.9999999999869
  0
LINE
  5
1A0
100
AcDbEntity
  8
steel_light
  6
ByLayer
 62
  256
370
   -1
100
AcDbLine
 10
5454.999999999965
 20
1319.999999999951
 11
5630
 21
1320
  0
LINE
  5
1A1
100
AcDbEntity
  8
steel_light
  6
ByLayer
 62
  256
370
   -1
100
AcDbLine
 10
6330.000000000115
 20
1319.999999999969
 11
6505.000000000065
 21
1319.99999999992
  0
LINE
  5
1A2
100
AcDbEntity
  8
steel_light
  6
ByLayer
 62
  256
370
   -1
100
AcDbLine
 10
5805.000000000015
 20
970
 11
5805
 21
70.00000000000006
  0
LINE
  5
1A3
100
AcDbEntity
  8
steel_light
  6
ByLayer
 62
  256
370
   -1
100
AcDbLine
 10
6154.999999999985
 20
970
 11
6155
 21
70.00000000000001
  0
ARC
  5
1A4
100
AcDbEntity
  8
steel_light
  6
ByLayer
 62
  256
370
   -1
100
AcDbCircle
 10
6504.999999999985
 20
969.9999999999197
 40
380
100
AcDbArc
 50
122.3410156751285
 51
179.9999999999869
  0
ARC
  5
1A5
100
AcDbEntity
  8
steel_light
  6
ByLayer
 62
  256
370
   -1
100
AcDbCircle
 10
5455.000000000015
 20
969.9999999999509
 40
380
100
AcDbArc
 50
8.04044223473977e-12
 51
57.65898432486878
  0
ARC
  5
1A6
100
AcDbEntity
  8
steel_light
  6
ByLayer
 62
  256
370
   -1
100
AcDbCircle
 10
5630
 20
1670
 40
380
100
AcDbArc
 50
274.2685287392824
 51
337.0804578484558
  0
ARC
  5
1A7
100
AcDbEntity
  8
steel_light
  6
ByLayer
 62
  256
370
   -1
100
AcDbCircle
 10
6330.000000000146
 20
1669.999999999969
 40
380
100
AcDbArc
 50
202.9195421515391
 51
265.731471260698
  0
MTEXT
  5
1A8
100
AcDbEntity
  8
0
  6
ByLayer
 62
  256
370
   -1
100
AcDbMText
 10
-14.18757357748198
 20
-646.9533551331784
 30
0
 40
50
 41
238.8888888888982
 71
    5
 72
    1
  1
Base\Pdrawing
  7
standard
210
0
220
0
230
1
 50
0
 73
    2
 44
1
  0
MTEXT
  5
1A9
100
AcDbEntity
  8
0
  6
ByLayer
 62
  256
370
   -1
100
AcDbMText
 10
2982.288112786149
 20
-748.3232164924655
 30
0
 40
50
 41
277.7777777777848
 71
    5
 72
    1
  1
Balanced\Pcutting\P&\PPiercing
  7
standard
210
0
220
0
230
1
 50
0
 73
    2
 44
1
  0
MTEXT
  5
1AA
100
AcDbEntity
  8
0
  6
ByLayer
 62
  256
370
   -1
100
AcDbMText
 10
3978.010955585998
 20
-648.8600053026095
 30
0
 40
50
 41
216.6666666666721
 71
    5
 72
    1
  1
Convex\Ptip
  7
standard
210
0
220
0
230
1
 50
0
 73
    2
 44
1
  0
MTEXT
  5
1AB
100
AcDbEntity
  8
0
  6
ByLayer
 62
  256
370
   -1
100
AcDbMText
 10
1981.518631577969
 20
-648.8600053026096
 30
0
 40
50
 41
250.0000000000077
 71
    5
 72
    1
  1
Concave\Ptip
  7
standard
210
0
220
0
230
1
 50
0
 73
    2
 44
1
  0
MTEXT
  5
1AC
100
AcDbEntity
  8
0
  6
ByLayer
 62
  256
370
   -1
100
AcDbMText
 10
977.5550321503849
 20
-674.2871343875593
 30
0
 40
50
 41
250.0000257143599
 71
    5
 72
    1
  1
Focused\Pin\Ppiercing
  7
standard
210
0
220
0
230
1
 50
0
 73
    2
 44
1
  0
LINE
  5
1AD
100
AcDbEntity
  8
0
  6
ByLayer
 62
  256
370
   -1
100
AcDbLine
 10
6928.203230275511
 20
2000
 11
-866.0254037844379
 21
2000
  0
LINE
  5
1AE
100
AcDbEntity
  8
0
  6
ByLayer
 62
  256
370
   -1
100
AcDbLine
 10
-866.0254037844379
 20
2000
 11
-866.0254037844379
 21
-1500
  0
LINE
  5
1AF
100
AcDbEntity
  8
0
  6
ByLayer
 62
  256
370
   -1
100
AcDbLine
 10
-866.0254037844379
 20
-1500
 11
6928.203230275511
 21
-1500
  0
LINE
  5
1B0
100
AcDbEntity
  8
0
  6
ByLayer
 62
  256
370
   -1
100
AcDbLine
 10
6928.203230275511
 20
-1500
 11
6928.203230275511
 21
2000
  0
MTEXT
  5
1B1
100
AcDbEntity
  8
0
  6
ByLayer
 62
  256
370
   -1
100
AcDbMText
 10
6000.832870626101
 20
-771.0747613331388
 30
0
 40
50
 41
244.4444444444491
 71
    5
 72
    1
  1
Double\Ppickaxe\P+\PPiercing\Ptip
  7
standard
210
0
220
0
230
1
 50
0
 73
    2
 44
1
  0
MTEXT
  5
1B2
100
AcDbEntity
  8
0
  6
ByLayer
 62
  256
370
   -1
100
AcDbMText
 10
4982.675840411728
 20
-749.1038848910571
 30
0
 40
50
 41
238.888883333338
 71
    5
 72
    1
  1
Only\Pcutting\P(cutting\Ptip)
  7
standard
210
0
220
0
230
1
 50
0
 73
    2
 44
1
  0
LINE
  5
1B3
100
AcDbEntity
  8
steel_light
  6
ByLayer
 62
  256
370
   -1
100
AcDbLine
 10
1834.999999999985
 20
1206.99352056368
 11
1834.999999999985
 21
39.99999999999998
  0
LINE
  5
1B4
100
AcDbEntity
  8
steel_light
  6
ByLayer
 62
  256
370
   -1
100
AcDbLine
 10
2124.999999999992
 20
1206.993520563706
 11
2124.999999999991
 21
39.99999999999995
  0
LINE
  5
1B5
100
AcDbEntity
  8
steel_light
  6
ByLayer
 62
  256
370
   -1
100
AcDbLine
 10
2835.000000000002
 20
1299.344051968788
 11
2835.000000000002
 21
39.99999999999999
  0
LINE
  5
1B6
100
AcDbEntity
  8
steel_light
  6
ByLayer
 62
  256
370
   -1
100
AcDbLine
 10
3124.999999999998
 20
1299.344051968788
 11
3124.999999999997
 21
39.99999999999995
  0
LINE
  5
1B7
100
AcDbEntity
  8
steel_light
  6
ByLayer
 62
  256
370
   -1
100
AcDbLine
 10
3835.000000000003
 20
1366.891108675445
 11
3835.000000000002
 21
39.99999999999998
  0
LINE
  5
1B8
100
AcDbEntity
  8
steel_light
  6
ByLayer
 62
  256
370
   -1
100
AcDbLine
 10
4125.000000000004
 20
1366.891108675445
 11
4125.000000000004
 21
39.99999999999995
  0
LINE
  5
1B9
100
AcDbEntity
  8
steel_light
  6
ByLayer
 62
  256
370
   -1
100
AcDbLine
 10
4835
 20
1495
 11
4835
 21
40.00000000000005
  0
LINE
  5
1BA
100
AcDbEntity
  8
steel_light
  6
ByLayer
 62
  256
370
   -1
100
AcDbLine
 10
5125
 20
1495
 11
5125
 21
40.00000000000002
  0
LINE
  5
1BB
100
AcDbEntity
  8
steel_light
  6
ByLayer
 62
  256
370
   -1
100
AcDbLine
 10
5835.000000000015
 20
970.0000000000042
 11
5835.000000000015
 21
40.00000000000005
  0
LINE
  5
1BC
100
AcDbEntity
  8
steel_light
  6
ByLayer
 62
  256
370
   -1
100
AcDbLine
 10
6124.999999999985
 20
970.0000000000067
 11
6124.999999999985
 21
40.00000000000001
  0
ENDSEC
  0
SECTION
  2
OBJECTS
  0
DICTIONARY
  5
C
330
0
100
AcDbDictionary
281
    1
  3
ACAD_GROUP
350
D
  0
DICTIONARY
  5
D
330
C
100
AcDbDictionary
281
    1
  0
ENDSEC
  0
EOF
